SplineFontDB: 3.2
FontName: linja-nanpa
FullName: linja-nanpa
FamilyName: linja-nanpa
Weight: Regular
Copyright: ""
FontLog: "#### toki tan ijo ni: ijo li tan anpa nanpa ####+AAoACgAA### tenpo sike ku nanpa tu la+AAoACgAKAAoA## tenpo mun nanpa tu la+AAoACgAK# tenpo suno nanpa luka luka luka tu tu la+AAoACgAA-wa. ni li ijo anu seme?? ken la mi kepeken ni.+AAoA-tenpo poka la ni li kama lon: linja nanpa!+AAoA-open la ona li sona ala e nasin pi nimi jan (cartouches) li ike lukin.+AAoA-tenpo suno wan pini la mi pali e ni: linja nanpa li pona lukin li sona e nasin pi nimi jan.+AAoA-tenpo lon la nanpa pi linja nanpa li: n2.2."
Version: 2.2
ItalicAngle: 0
UnderlinePosition: 0
UnderlineWidth: 0
Ascent: 950
Descent: 50
InvalidEm: 0
sfntRevision: 0x00010000
LayerCount: 2
Layer: 0 0 "Back" 1
Layer: 1 0 "Fore" 0
XUID: [1021 511 -2811647 6872]
StyleMap: 0x0040
FSType: 0
OS2Version: 3
OS2_WeightWidthSlopeOnly: 0
OS2_UseTypoMetrics: 0
CreationTime: 1645217081
ModificationTime: 1645260472
PfmFamily: 81
TTFWeight: 400
TTFWidth: 5
LineGap: 0
VLineGap: 0
Panose: 0 0 8 9 0 0 0 6 0 0
OS2TypoAscent: 950
OS2TypoAOffset: 0
OS2TypoDescent: -50
OS2TypoDOffset: 0
OS2TypoLinegap: 0
OS2WinAscent: 990
OS2WinAOffset: 0
OS2WinDescent: 90
OS2WinDOffset: 0
HheadAscent: 950
HheadAOffset: 0
HheadDescent: -50
HheadDOffset: 0
OS2SubXSize: 650
OS2SubYSize: 699
OS2SubXOff: 0
OS2SubYOff: 140
OS2SupXSize: 650
OS2SupYSize: 699
OS2SupXOff: 0
OS2SupYOff: 479
OS2StrikeYSize: 49
OS2StrikeYPos: 258
OS2CapHeight: 990
OS2XHeight: 475
OS2Vendor: 'XXXX'
OS2CodePages: 00000001.00000000
OS2UnicodeRanges: 00000004.00000000.00000000.00000000
MarkAttachClasses: 1
DEI: 91125
LangName: 1033 "" "" "Regular" "+ACIAIgAA:linja-nanpa" "" "2.2" "" "+ACIA-jan Itan 2022+ACIA" "+ACIAIgAA" "+ACIA-jan Itan+ACIA" "+ACIAIgAA" "+ACIAIgAA" "+ACIA-https://itan.surge.sh/+ACIA" "+ACIAIgAA" "+ACIAIgAA" "" "linja-nanpa" "Regular"
Encoding: Custom
UnicodeInterp: none
NameList: AGL For New Fonts
DisplaySize: -72
AntiAlias: 1
FitToEm: 0

StartChar: .notdef
Encoding: 0 0 0
Width: 586
Flags: W
HStem: 0 68<68 518> 882 68<68 518>
VStem: 0 68<68 882> 518 68<68 882>
LayerCount: 2
Fore
SplineSet
0 950 m 1
 0 950 586 950 586 950 c 1
 586 950 586 0 586 0 c 1
 586 0 0 0 0 0 c 1
 0 950 l 1
68 68 m 1
 68 68 518 68 518 68 c 1
 518 68 518 882 518 882 c 1
 518 882 68 882 68 882 c 1
 68 68 l 1
EndSplineSet
Validated: 1
EndChar

StartChar: SP_A
Encoding: 1 989440 1
Width: 1000
Flags: W
HStem: 0 100<439.527 561.352> 300 100<439.527 561.59>
VStem: 300 100<139.527 260.473> 450 100<458.438 891.562> 600 199.956<37.1618 227.5>
LayerCount: 2
Fore
SplineSet
550 850 m 2
 550 850 550 500 550 500 c 2
 550 472 528 450 500 450 c 0
 472 450 450 472 450 500 c 2
 450 500 450 850 450 850 c 2
 450 878 472 900 500 900 c 0
 528 900 550 878 550 850 c 2
799.955977446 49.8996198436 m 0
 799.955977446 24.4239458546 779.702312115 0.0440225539424 749.899619844 0.0440225539424 c 0
 731.992925442 0.0440225539424 714.959279832 9.45979108023 706 26 c 2
 706 26 670 94 670 94 c 1
 634 38 572 0 500 0 c 0
 390 0 300 90 300 200 c 0
 300 310 390 400 500 400 c 0
 581 400 650 352 682 283 c 0
 683 282 683 281 684 280 c 2
 684 280 794 74 794 74 c 2
 798.040720168 66.2293842914 799.955977446 57.9757088349 799.955977446 49.8996198436 c 0
500 100 m 0
 555 100 600 145 600 200 c 0
 600 255 555 300 500 300 c 0
 445 300 400 255 400 200 c 0
 400 145 445 100 500 100 c 0
EndSplineSet
Validated: 1
EndChar

StartChar: SP_AKESI
Encoding: 2 989441 2
Width: 1000
Flags: W
HStem: 0 100<352.412 647.592> 150 100<83.4375 200 311 689 800 916.562> 300 100<58.4375 200 300 700 800 941.562> 450 100<83.4375 200 311 689 800 916.562> 600 100<351.976 647.588> 750 150<273.417 376.583 623.417 726.583>
VStem: 200 100<250 300 400 450> 250 150<773.417 876.583> 600 150<773.417 876.583> 700 100<250 300 400 450>
LayerCount: 2
Fore
SplineSet
400 825 m 0xfd
 400 784 366 750 325 750 c 0
 284 750 250 784 250 825 c 0
 250 866 284 900 325 900 c 0
 366 900 400 866 400 825 c 0xfd
204 550 m 1
 229.782931848 668.6014865 363.81499079 700 500 700 c 0
 636.166360389 700 770.215316085 668.609546009 796 550 c 1
 796 550 875 550 875 550 c 2
 903 550 925 528 925 500 c 0
 925 472 903 450 875 450 c 2
 875 450 800 450 800 450 c 1
 800 450 800 400 800 400 c 1
 800 400 900 400 900 400 c 2
 928 400 950 378 950 350 c 0
 950 322 928 300 900 300 c 2
 900 300 800 300 800 300 c 1
 800 300 800 250 800 250 c 1
 800 250 875 250 875 250 c 2
 903 250 925 228 925 200 c 0
 925 172 903 150 875 150 c 2
 875 150 796 150 796 150 c 1
 770.217068152 31.3985135002 636.18500921 0 500 0 c 0
 363.833639611 0 229.784683915 31.3904539912 204 150 c 1
 204 150 125 150 125 150 c 2
 97 150 75 172 75 200 c 0
 75 228 97 250 125 250 c 2
 125 250 200 250 200 250 c 1
 200 250 200 300 200 300 c 1
 200 300 100 300 100 300 c 2
 72 300 50 322 50 350 c 0
 50 378 72 400 100 400 c 2
 100 400 200 400 200 400 c 1
 200 400 200 450 200 450 c 1xfe40
 200 450 125 450 125 450 c 2
 97 450 75 472 75 500 c 0
 75 528 97 550 125 550 c 2
 125 550 204 550 204 550 c 1
500 600 m 0
 424.594814237 600 341.871877427 590.692413835 311 551 c 0
 311 550 311 550 311 550 c 1
 689 550 l 1
 689 550 689 551 689 551 c 1
 682 560 670 569 652 577 c 0
 615 593 560 600 500 600 c 0
300 450 m 1
 300 450 300 400 300 400 c 1
 300 400 700 400 700 400 c 1
 700 400 700 450 700 450 c 1
 300 450 l 1
300 250 m 1
 300 250 700 250 700 250 c 1
 700 250 700 300 700 300 c 1
 566.666666667 300 433.333333333 300 300 300 c 1
 300 250 l 1
311 150 m 1
 311 150 311 150 311 149 c 0
 318.436634225 139.438613126 330.082877512 130.96316555 348 123 c 0
 385 107 440 100 500 100 c 0
 560 100 615 107 652 123 c 0
 670 131 682 140 689 149 c 0
 689 150 689 150 689 150 c 1
 563 150 437 150 311 150 c 1
675 750 m 0
 634 750 600 784 600 825 c 0
 600 866 634 900 675 900 c 0
 716 900 750 866 750 825 c 0xfc80
 750 784 716 750 675 750 c 0
EndSplineSet
Validated: 1
EndChar

StartChar: SP_ALA
Encoding: 3 989442 3
Width: 1000
Flags: W
HStem: 0 21G<86.5861 106.5 893.5 913.418>
LayerCount: 2
Fore
SplineSet
50 850 m 0
 50 876.40866101 73.5819913434 900 100 900 c 0
 112.75 900 125.5 895 135 885 c 2
 135 885 500 521 500 521 c 1
 500 521 865 885 865 885 c 2
 874 895 887 900 900 900 c 0
 926.827812223 900 950 876.835749815 950 850 c 0
 950 837 945 824 935 815 c 2
 935 815 571 450 571 450 c 1
 571 450 935 85 935 85 c 2
 945 76 950 63 950 50 c 0
 950 23.1721877769 926.835749815 0 900 0 c 0
 887 0 874 5 865 15 c 2
 865 15 500 379 500 379 c 1
 500 379 135 15 135 15 c 2
 126 5 113 0 100 0 c 0
 73.1721877769 0 50 23.1642501851 50 50 c 0
 50 63 55 76 65 85 c 2
 65 85 429 450 429 450 c 1
 429 450 65 815 65 815 c 2
 55 824.5 50 837.25 50 850 c 0
EndSplineSet
Validated: 1
EndChar

StartChar: SP_ALASA
Encoding: 4 989443 4
Width: 1000
Flags: W
HStem: 0 21G<236 343.147> 400 100<58.4375 200 300 574 674 779>
VStem: 200 100<102 400 500 798> 574 100<269.922 400 500 630.078>
LayerCount: 2
Fore
SplineSet
750 250 m 0
 723.172187777 250 700 273.164250185 700 300 c 0
 700 313 705 326 715 335 c 2
 715 335 779 400 779 400 c 1
 779 400 674 400 674 400 c 1
 672 338 663 254 622 180 c 0
 558.776003632 67.1000064852 436.29367401 0 250 0 c 0
 222 0 200 22 200 50 c 2
 200 50 200 400 200 400 c 1
 200 400 100 400 100 400 c 2
 72 400 50 422 50 450 c 0
 50 478 72 500 100 500 c 2
 100 500 200 500 200 500 c 1
 200 500 200 850 200 850 c 2
 200 878 222 900 250 900 c 0
 436.363672651 900 558.71816308 833.003280214 622 720 c 0
 663 646 672 562 674 500 c 1
 674 500 779 500 779 500 c 1
 779 500 715 565 715 565 c 2
 705 574 700 587 700 600 c 0
 700 626.827812223 723.164250185 650 750 650 c 0
 763 650 776 645 785 635 c 2
 785 635 935 485 935 485 c 1
 943.957712651 477.833829879 950 464.641418109 950 450 c 0
 950 435.354388772 943.95569008 422.164552064 935 415 c 1
 935 415 785 265 785 265 c 2
 776 255 763 250 750 250 c 0
574 500 m 1
 572 555 564 618 534 672 c 0
 492.751084946 745.813847991 417.972028292 788.486126751 300 798 c 1
 300 798 300 500 300 500 c 1
 574 500 l 1
300 400 m 1
 300 400 300 102 300 102 c 1
 418.074626954 111.522147335 492.698062521 154.091269774 534 228 c 0
 564 282 572 345 574 400 c 1
 300 400 l 1
EndSplineSet
Validated: 1
EndChar

StartChar: SP_ALE
Encoding: 5 989444 5
Width: 1000
Flags: W
HStem: 200 100<195.416 317.517 682.483 804.584> 600 100<195.416 317.517 682.483 804.584>
VStem: 50 100<350.773 549.227> 850 100<350.773 549.227>
LayerCount: 2
Fore
SplineSet
103 625 m 0
 139 672 192 700 254 700 c 0
 317 700 367 672 411 632 c 0
 440 605 470 570 500 532 c 1
 530 570 560 605 589 632 c 0
 633 672 683 700 746 700 c 0
 808 700 861 672 897 625 c 0
 933 580 950 518 950 450 c 0
 950 382 933 320 897 275 c 0
 861 228 808 200 746 200 c 0
 683 200 633 228 589 268 c 0
 560 295 530 330 500 368 c 1
 470 330 440 295 411 268 c 0
 367 228 317 200 254 200 c 0
 192 200 139 228 103 275 c 0
 67 320 50 382 50 450 c 0
 50 518 67 580 103 625 c 0
437 450 m 1
 401 496 372 532 343 558 c 0
 310 588 283 600 254 600 c 0
 224 600 200 588 182 565 c 0
 163 540 150 502 150 450 c 0
 150 398 163 360 182 335 c 0
 200 312 224 300 254 300 c 0
 283 300 310 312 343 342 c 0
 372 368 401 404 437 450 c 1
563 450 m 1
 599 404 628 368 657 342 c 0
 690 312 717 300 746 300 c 0
 776 300 800 312 818 335 c 0
 837 360 850 398 850 450 c 0
 850 502 837 540 818 565 c 0
 800 588 776 600 746 600 c 0
 717 600 690 588 657 558 c 0
 628 532 599 496 563 450 c 1
EndSplineSet
Validated: 1
EndChar

StartChar: SP_ANPA
Encoding: 6 989445 6
Width: 1000
Flags: W
HStem: 0 150<448.417 551.583> 200 100<150 850>
VStem: 50 100<300 891.562> 425 150<23.4173 126.583> 850 100<300 891.562>
CounterMasks: 1 38
LayerCount: 2
Fore
SplineSet
100 900 m 0
 128 900 150 878 150 850 c 2
 150 850 150 300 150 300 c 1
 150 300 850 300 850 300 c 1
 850 300 850 850 850 850 c 2
 850 878 872 900 900 900 c 0
 928 900 950 878 950 850 c 2
 950 850 950 250 950 250 c 2
 950 222 928 200 900 200 c 2
 900 200 100 200 100 200 c 2
 72 200 50 222 50 250 c 2
 50 250 50 850 50 850 c 2
 50 878 72 900 100 900 c 0
575 75 m 0
 575 34 541 0 500 0 c 0
 459 0 425 34 425 75 c 0
 425 116 459 150 500 150 c 0
 541 150 575 116 575 75 c 0
EndSplineSet
Validated: 1
EndChar

StartChar: SP_ANTE
Encoding: 7 989446 7
Width: 1000
Flags: W
HStem: -0.161501 21G<87.7003 105.536 894.464 912.301>
LayerCount: 2
Fore
SplineSet
899.63102165 900.161500626 m 0
 924.968281134 900.161500626 950.161500626 878.494878248 950.161500626 850.36897835 c 0
 950.161500626 835.186191489 943.089931164 820.114946808 930 810 c 2
 530 510 l 2
 521 503.5 510.5 500.25 500 500.25 c 0
 489.5 500.25 479 503.5 470 510 c 2
 470 510 70 810 70 810 c 2
 56.9100688361 820.114946808 49.8384993744 835.186191489 49.8384993744 850.36897835 c 0
 49.8384993744 878.474556737 75.029424793 900.161500626 100.36897835 900.161500626 c 0
 110.703614518 900.161500626 121.089931164 896.885053192 130 890 c 2
 130 890 500 613 500 613 c 1
 500 613 870 890 870 890 c 2
 878.910068836 896.885053192 889.296385482 900.161500626 899.63102165 900.161500626 c 0
100.36897835 -0.161500625587 m 0
 75.0317188658 -0.161500625587 49.8384993744 21.5051217516 49.8384993744 49.6310216504 c 0
 49.8384993744 64.8138085106 56.9100688361 79.8850531915 70 90 c 2
 470 390 l 2
 479 396.5 489.5 399.75 500 399.75 c 0
 510.5 399.75 521 396.5 530 390 c 2
 530 390 930 90 930 90 c 2
 943.089931164 79.8850531915 950.161500626 64.8138085106 950.161500626 49.6310216504 c 0
 950.161500626 21.5254432631 924.970575208 -0.161500625587 899.63102165 -0.161500625587 c 0
 889.296385482 -0.161500625587 878.910068836 3.11494680849 870 10 c 2
 870 10 500 288 500 288 c 1
 500 288 130 10 130 10 c 2
 121.089931164 3.11494680849 110.703614518 -0.161500625587 100.36897835 -0.161500625587 c 0
EndSplineSet
Validated: 1
EndChar

StartChar: SP_ANU
Encoding: 8 989447 8
Width: 1000
Flags: W
HStem: 0 21G<486 514>
VStem: 450 100<8.4375 474>
LayerCount: 2
Fore
SplineSet
49.9157301732 849.715417107 m 0
 49.9157301732 876.43565423 73.8204874001 900.084269827 99.7154171071 900.084269827 c 0
 111.432347385 900.084269827 123.286028949 895.788830951 133 887 c 2
 133 887 500 563 500 563 c 1
 500 563 867 887 867 887 c 2
 876.713971051 895.788830951 888.567652615 900.084269827 900.284582893 900.084269827 c 0
 926.173996985 900.084269827 950.084269827 876.451370259 950.084269827 849.715417107 c 0
 950.084269827 836.102280562 944.286028949 822.673739099 933 813 c 2
 933 813 550 474 550 474 c 1
 550 474 550 50 550 50 c 2
 550 22 528 0 500 0 c 0
 472 0 450 22 450 50 c 2
 450 50 450 474 450 474 c 1
 450 474 67 813 67 813 c 2
 55.7139710512 822.673739099 49.9157301732 836.102280562 49.9157301732 849.715417107 c 0
EndSplineSet
Validated: 1
EndChar

StartChar: SP_AWEN
Encoding: 9 989448 9
Width: 1000
Flags: W
HStem: 0 100<58.4375 261 739 941.562>
LayerCount: 2
Fore
SplineSet
500 900 m 0
 523 900 543 884 549 862 c 2
 549 862 739 100 739 100 c 1
 739 100 900 100 900 100 c 2
 928 100 950 78 950 50 c 0
 950 22 928 0 900 0 c 2
 900 0 700 0 700 0 c 2
 677 0 657 16 651 38 c 2
 651 38 500 644 500 644 c 1
 500 644 349 38 349 38 c 2
 343 16 323 0 300 0 c 2
 300 0 100 0 100 0 c 2
 72 0 50 22 50 50 c 0
 50 78 72 100 100 100 c 2
 100 100 261 100 261 100 c 1
 261 100 451 862 451 862 c 2
 457 884 477 900 500 900 c 0
EndSplineSet
Validated: 1
EndChar

StartChar: SP_E
Encoding: 10 989449 10
Width: 1000
Flags: W
HStem: 0 21G<86.7957 106.375 486.796 506.375>
LayerCount: 2
Fore
SplineSet
50 850 m 0
 50 876.40866101 73.5819913434 900 100 900 c 0
 112.75 900 125.5 895 135 885 c 2
 535 485 l 2
 545 475.5 550 462.75 550 450 c 0
 550 437.25 545 424.5 535 415 c 2
 535 415 135 15 135 15 c 2
 125.5 5 112.75 0 100 0 c 0
 73.5913389903 0 50 23.5819913434 50 50 c 0
 50 62.75 55 75.5 65 85 c 2
 65 85 429 450 429 450 c 1
 429 450 65 815 65 815 c 2
 55 824.5 50 837.25 50 850 c 0
450 850 m 0
 450 876.40866101 473.581991343 900 500 900 c 0
 512.75 900 525.5 895 535 885 c 2
 935 485 l 2
 945 475.5 950 462.75 950 450 c 0
 950 437.25 945 424.5 935 415 c 2
 935 415 535 15 535 15 c 2
 525.5 5 512.75 0 500 0 c 0
 473.59133899 0 450 23.5819913434 450 50 c 0
 450 62.75 455 75.5 465 85 c 2
 465 85 829 450 829 450 c 1
 829 450 465 815 465 815 c 2
 455 824.5 450 837.25 450 850 c 0
EndSplineSet
Validated: 1
EndChar

StartChar: SP_EN
Encoding: 11 989450 11
Width: 1000
Flags: W
HStem: 0 21G<486 514> 400 100<58.4375 450 550 941.562>
VStem: 450 100<8.4375 400 500 891.562>
LayerCount: 2
Fore
SplineSet
550 850 m 2
 550 850 550 500 550 500 c 1
 550 500 900 500 900 500 c 2
 928 500 950 478 950 450 c 0
 950 422 928 400 900 400 c 2
 900 400 550 400 550 400 c 1
 550 400 550 50 550 50 c 2
 550 22 528 0 500 0 c 0
 472 0 450 22 450 50 c 2
 450 50 450 400 450 400 c 1
 450 400 100 400 100 400 c 2
 72 400 50 422 50 450 c 0
 50 478 72 500 100 500 c 2
 100 500 450 500 450 500 c 1
 450 500 450 850 450 850 c 2
 450 878 472 900 500 900 c 0
 528 900 550 878 550 850 c 2
EndSplineSet
Validated: 1
EndChar

StartChar: ESUN
Encoding: 12 989451 12
Width: 1000
Flags: W
HStem: -5 100<168.615 298.248> 310 100<199.407 398> 490 100<599 792.414> 805 100<687.807 831.385>
VStem: 50 100<113.126 262.687 722.749 896.562> 850 100<3.4375 193.004 640.624 786.874>
LayerCount: 2
Fore
SplineSet
459 164 m 1
 430.250254988 84.3853215055 344.342431611 -5 233 -5 c 0
 181 -5 133 8 98 44 c 0
 63 79 50 127 50 180 c 0
 50 232 63 290 102 336 c 0
 142 383 204 410 287 410 c 0
 339 410 386 409 431 408 c 1
 440.934068256 437.802204768 450.443937831 467.970829036 461 497 c 1
 284.05951197 511.745040669 141.666464095 549.889327793 83 677 c 0
 59 728 50 788 50 855 c 0
 50 883 72 905 100 905 c 0
 128 905 150 883 150 855 c 0
 150 742.468238748 172.996397836 684.52967892 246 646 c 0
 282 627 334 612 406 603 c 0
 433 599 463 597 495 595 c 1
 514 652 531 701 541 734 c 0
 557 787 584 831 624 861 c 0
 665 891 714 905 767 905 c 0
 819 905 867 892 902 856 c 0
 937 821 950 773 950 720 c 0
 950 667 937 608 891 561 c 0
 845 515 775 490 678 490 c 0
 638 490 600 490 565 492 c 1
 558 471 551 451 544 430 c 0
 541 421 538 412 535 403 c 1
 722.682548895 389.59410365 873.434349744 356.670690665 926 220 c 0
 945 169 950 110 950 45 c 0
 950 17 928 -5 900 -5 c 0
 872 -5 850 17 850 45 c 0
 850 107 845 151 832 184 c 0
 821 214 802 236 770 254 c 0
 734 273 682 288 602 297 c 0
 572 300 539 303 502 305 c 1
 483 248 467 199 460 168 c 1
 459 166 l 1
 459 166 459 164 459 164 c 1
398 309 m 1
 363 310 326 310 287 310 c 0
 227 310 195 292 178 271 c 0
 159 250 150 218 150 180 c 0
 150 143 159 124 169 114 c 0
 178 104 197 95 233 95 c 0
 262 95 291 108 316 130 c 0
 341 151 357 177 363 194 c 0
 370 222 383 263 398 309 c 1
599 591 m 1
 624 590 650 590 678 590 c 0
 759 590 799 610 820 631 c 0
 841 652 850 683 850 720 c 0
 850 757 841 776 831 786 c 0
 822 796 803 805 767 805 c 0
 731 805 704 796 684 781 c 0
 665 766 648 743 637 706 c 1
 637 706 637 705 637 705 c 1
 628 677 615 637 599 591 c 1
EndSplineSet
Validated: 1
EndChar

StartChar: SP_IJO
Encoding: 13 989452 13
Width: 1000
Flags: W
HStem: 0 100<383.579 616.421> 800 100<383.579 616.421>
VStem: 50 100<333.579 566.421> 850 100<333.579 566.421>
LayerCount: 2
Fore
SplineSet
500 0 m 0
 251 0 50 201 50 450 c 0
 50 699 251 900 500 900 c 0
 749 900 950 699 950 450 c 0
 950 201 749 0 500 0 c 0
500 100 m 0
 693 100 850 257 850 450 c 0
 850 643 693 800 500 800 c 0
 307 800 150 643 150 450 c 0
 150 257 307 100 500 100 c 0
EndSplineSet
Validated: 1
EndChar

StartChar: SP_IKE
Encoding: 14 989453 14
Width: 1000
Flags: W
HStem: 600 100<383.579 616.421>
VStem: 50 100<208.438 362.619> 850 100<208.438 362.619>
LayerCount: 2
Fore
SplineSet
500 600 m 0
 307 600 150 443 150 250 c 0
 150 222 128 200 100 200 c 0
 72 200 50 222 50 250 c 0
 50 499 251 700 500 700 c 0
 749 700 950 499 950 250 c 0
 950 222 928 200 900 200 c 0
 872 200 850 222 850 250 c 0
 850 443 693 600 500 600 c 0
EndSplineSet
Validated: 1
EndChar

StartChar: SP_ILO
Encoding: 15 989454 15
Width: 1000
Flags: W
HStem: 0 21G<486 514> 400 100<150 450 550 850> 800 100<150 450 550 850>
VStem: 50 100<500 800> 450 100<8.4375 400 500 800> 850 100<500 800>
CounterMasks: 1 1c
LayerCount: 2
Fore
SplineSet
50 850 m 2
 50 878 72 900 100 900 c 2
 100 900 900 900 900 900 c 2
 928 900 950 878 950 850 c 2
 950 850 950 450 950 450 c 2
 950 422 928 400 900 400 c 2
 900 400 550 400 550 400 c 1
 550 400 550 50 550 50 c 2
 550 22 528 0 500 0 c 0
 472 0 450 22 450 50 c 2
 450 50 450 400 450 400 c 1
 450 400 100 400 100 400 c 2
 72 400 50 422 50 450 c 2
 50 850 l 2
550 500 m 1
 550 500 850 500 850 500 c 1
 850 500 850 800 850 800 c 1
 850 800 550 800 550 800 c 1
 550 500 l 1
450 800 m 1
 450 800 150 800 150 800 c 1
 150 800 150 500 150 500 c 1
 150 500 450 500 450 500 c 1
 450 800 l 1
EndSplineSet
Validated: 1
EndChar

StartChar: SP_INSA
Encoding: 16 989455 16
Width: 1000
Flags: W
HStem: 0 100<150 850> 350 200<438.358 561.642>
VStem: 50 100<100 891.562> 400 200<388.358 511.642> 850 100<100 891.562>
CounterMasks: 1 38
LayerCount: 2
Fore
SplineSet
100 900 m 0
 128 900 150 878 150 850 c 2
 150 850 150 100 150 100 c 1
 150 100 850 100 850 100 c 1
 850 100 850 850 850 850 c 2
 850 878 872 900 900 900 c 0
 928 900 950 878 950 850 c 2
 950 850 950 50 950 50 c 2
 950 22 928 0 900 0 c 2
 900 0 100 0 100 0 c 2
 72 0 50 22 50 50 c 2
 50 50 50 850 50 850 c 2
 50 878 72 900 100 900 c 0
600 450 m 0
 600 395 555 350 500 350 c 0
 445 350 400 395 400 450 c 0
 400 505 445 550 500 550 c 0
 555 550 600 505 600 450 c 0
EndSplineSet
Validated: 1
EndChar

StartChar: SP_JAKI
Encoding: 17 989456 17
Width: 1000
Flags: W
HStem: 0 100<89.7012 203.86 459.706 691.192> 530 100.01<59.3078 149.306 462.149 617.816> 687 99.75<744 824.339> 800.286 99.5449<469.147 606.941>
VStem: 108.498 99.6383<230.565 446.37> 327 100<415.78 497.124> 645 99.617<616.031 678> 848 100<203.62 364.374 550.535 666.157>
LayerCount: 2
Fore
SplineSet
205 109 m 1
 145.232645013 158.37303238 108.497867112 217.821601662 108.497867112 317.544136396 c 0
 108.497867112 396.01297586 134.676825733 485.107461117 162 550 c 1
 148 545 133 539 119 533 c 0
 112.824191537 530.624689053 106.479120012 529.490640567 100.259623854 529.490640567 c 0
 75.0926707695 529.490640567 50.0602703815 549.552887673 50.0602703815 579.834363223 c 0
 50.0602703815 599.452179176 62.1014426964 618.440577079 81 626 c 0
 131 646 182 664 231 678 c 1
 239 692 248 704 258 717 c 0
 307 783 367 840 433 872 c 0
 468.822004607 889.384208118 506.864106124 899.830613392 545.225811568 899.830613392 c 0
 579.685155611 899.830613392 614.402387163 891.401438399 648 872 c 1
 648 872 650 872 650 872 c 1
 650 872 651 871 651 871 c 1
 684 849 707 820 722 786 c 1
 729 786.5 736.25 786.75 743.5 786.75 c 0
 856.980287085 786.75 950.011384579 734.864827059 950.011384579 618.938928809 c 0
 950.011384579 555.273358696 916.227899935 500.15015706 885 460 c 1
 923 408 948 344 948 268 c 0
 948 68.8174069996 714.766860957 0 530 0 c 0
 467 0 395 13 328 39 c 1
 284.847676774 23.896686871 215.153117482 6.37224939858 173 3 c 0
 160 1 150 1 143 0 c 1
 131 0 l 2
 104 0 81 22 81 50 c 0
 81 78 104 100 131 100 c 2
 138 100 l 1
 160.628222089 103.771370348 180.621588126 102.905397031 205 109 c 1
528.908257003 630.010148749 m 0
 564.917540848 630.010148749 603.48616289 624.124987405 641 615 c 1
 644 637 645 658 645 678 c 1
 583.033430667 667.064723059 524.436019707 650.430226602 464 637 c 0
 410 623 353 610 295 593 c 1
 253.422454783 520.23929587 208.136120452 415.599747255 208.136120452 315.068361234 c 0
 208.136120452 301.329143761 209.076854923 288.260049866 211 276 c 0
 219 227 259 184 324 150 c 0
 326 149 328 148 329 147 c 0
 391.53955634 174.943206024 456.523906942 223.69854259 501 283 c 1
 464 289 428 306 399 328 c 0
 362 355 327 400 327 455 c 0
 327 557.302650417 426.63701202 630.010148749 528.908257003 630.010148749 c 0
612 774 m 1
 596.180536501 789.819463499 570.211806547 800.285714286 543.742360436 800.285714286 c 0
 522.770975057 800.285714286 500.571428571 794.523809524 477 783 c 0
 450 769 422 749 395 723 c 1
 468.952937934 740.400691278 534.980026744 759.996368499 612 774 c 1
744 687 m 1
 744.417424305 679.695074662 744.617044797 672.346588561 744.617044797 664.954541697 c 0
 744.617044797 636.929164256 741.747727085 608.277650357 737 579 c 1
 760 568 783 555 803 540 c 0
 807 537 810 534 814 532 c 1
 821 542 828 552 833 562 c 0
 844.961563715 585.12568985 849.928153779 605.071846221 849.928153779 621.331373217 c 0
 849.928153779 645.362444279 838.602740876 661.065067822 825 669 c 0
 811 678 790 684 759 686 c 0
 754 686 749 687 744 687 c 1
742 460 m 1
 733 467 723 474 712 479 c 1
 707 462 701 446 694 429 c 1
 711 438 727 449 742 460 c 1
629 294 m 1
 582.472945359 214.239334901 530.028033782 153.352022521 459 106 c 1
 484 102 508 100 530 100 c 0
 597 100 681 112 747 141 c 0
 812 170 848 211 848 268 c 0
 848 314 835 354 813 388 c 1
 761 347 697 313 629 294 c 1
564 383 m 1
 586 425 605 471 619 517 c 1
 589 525 558 529 530 530 c 0
 465 530 427 485 427 455 c 0
 427 444 435 426 459 407 c 0
 482 390 510 380 530 380 c 0
 541 381 552 381 564 383 c 1
EndSplineSet
Validated: 1
EndChar

StartChar: SP_JAN
Encoding: 18 989457 18
Width: 1000
Flags: W
HStem: -0.242698 21G<87.5443 106.724 894.155 912.622> 100 100<388.905 611.095> 800 100<390.166 609.834>
VStem: 100 100<389.974 609.834> 800 100<389.974 609.834>
LayerCount: 2
Fore
SplineSet
100.844155991 -0.242698268737 m 0
 74.2444535704 -0.242698268737 50.7573017313 22.2922186661 50.7573017313 50.155844009 c 0
 50.7573017313 64.2308617033 56.5587740005 78.1932348575 68 88 c 2
 68 88 218 216 218 216 c 1
 145 289 100 389 100 500 c 0
 100 721 279 900 500 900 c 0
 721 900 900 721 900 500 c 0
 900 389 855 289 782 216 c 1
 782 216 932 88 932 88 c 2
 943.70620901 77.9661065626 949.81913927 63.8926229162 949.81913927 49.7635439619 c 0
 949.81913927 22.3788232948 925.480751849 0.180860730084 899.763543962 0.180860730084 c 0
 888.546188577 0.180860730084 877.29379099 4.03389343744 868 12 c 2
 868 12 701 154 701 154 c 1
 642 120 573 100 500 100 c 0
 427 100 358 120 299 154 c 1
 299 154 134 12 134 12 c 2
 124.441226 3.80676514246 112.603377704 -0.242698268737 100.844155991 -0.242698268737 c 0
200 500 m 0
 200 334 334 200 500 200 c 0
 666 200 800 334 800 500 c 0
 800 666 666 800 500 800 c 0
 334 800 200 666 200 500 c 0
EndSplineSet
Validated: 1
EndChar

StartChar: SP_JELO
Encoding: 19 989458 19
Width: 1000
Flags: W
HStem: 0 100<240 760> 400 100<438.198 561.802> 550 100<208.438 312.045 687.955 791.562> 700 200<458.691 541.309>
VStem: 200 200<558.691 641.309> 450 100<787.955 891.562> 600 200<558.691 641.309>
CounterMasks: 1 0e
LayerCount: 2
Fore
SplineSet
154 0 m 2
 127.947650479 0 103.25 20.7226528689 103.25 50 c 0
 103.25 58.75 105.5 67.5 110 75 c 2
 110 75 342 477 342 477 c 1
 326 498 313 523 306 550 c 1
 306 550 250 550 250 550 c 2
 222 550 200 572 200 600 c 0
 200 628 222 650 250 650 c 2
 250 650 306 650 306 650 c 1
 324 720 380 776 450 794 c 1
 450 794 450 850 450 850 c 2
 450 878 472 900 500 900 c 0
 528 900 550 878 550 850 c 2
 550 850 550 794 550 794 c 1
 620 776 676 720 694 650 c 1
 694 650 750 650 750 650 c 2
 778 650 800 628 800 600 c 0
 800 572 778 550 750 550 c 2
 750 550 694 550 694 550 c 1
 687 523 674 498 658 477 c 1
 658 477 890 75 890 75 c 2
 894.5 67.5 896.75 58.75 896.75 50 c 0
 896.75 20.7368531703 872.050232497 0 846 0 c 2
 846 0 154 0 154 0 c 2
500 500 m 0
 555 500 600 545 600 600 c 0
 600 655 555 700 500 700 c 0
 445 700 400 655 400 600 c 0
 400 545 445 500 500 500 c 0
500 400 m 0
 472 400 446 406 422 416 c 1
 422 416 240 100 240 100 c 1
 240 100 760 100 760 100 c 1
 760 100 578 416 578 416 c 1
 554 406 528 400 500 400 c 0
EndSplineSet
Validated: 1
EndChar

StartChar: SP_JO
Encoding: 20 989459 20
Width: 1000
Flags: W
HStem: 0 100<403.504 598.335> 300 100<508.438 745> 500 100<438.534 560.473> 800 100<439.527 560.473>
VStem: 150 100<253.504 450.645> 300 100<641.101 760.473> 600 100<639.527 760.473>
LayerCount: 2
Fore
SplineSet
700 700 m 0
 700 590 610 500 500 500 c 0
 445 500 396 522 360 557 c 1
 294 512 250 436 250 350 c 0
 250 212 362 100 500 100 c 0
 621 100 722 186 745 300 c 1
 745 300 550 300 550 300 c 2
 522 300 500 322 500 350 c 0
 500 378 522 400 550 400 c 2
 550 400 800 400 800 400 c 2
 828 400 850 378 850 350 c 0
 850 157 693 0 500 0 c 0
 307 0 150 157 150 350 c 0
 150 473 213 580 308 643 c 1
 303 661 300 680 300 700 c 0
 300 810 390 900 500 900 c 0
 610 900 700 810 700 700 c 0
600 700 m 0
 600 755 555 800 500 800 c 0
 445 800 400 755 400 700 c 0
 400 645 445 600 500 600 c 0
 555 600 600 645 600 700 c 0
EndSplineSet
Validated: 1
EndChar

StartChar: SP_KALA
Encoding: 21 989460 21
Width: 1000
Flags: W
HStem: 200 100<58.4375 216.542 595.297 784.533> 600 100<58.4375 216.542 595.297 776.373>
VStem: 850 100<366.057 524.376>
LayerCount: 2
Fore
SplineSet
50 650 m 0
 50 678 72 700 100 700 c 0
 178 700 247 683 306 644 c 0
 341 620 371 588 396 550 c 1
 473 647 582 700 712 700 c 0
 835 700 950 586 950 450 c 0
 950 290 831 200 712 200 c 0
 582 200 473 253 396 350 c 1
 371 312 341 280 306 256 c 0
 247 217 178 200 100 200 c 0
 72 200 50 222 50 250 c 0
 50 278 72 300 100 300 c 0
 163 300 212 313 250 339 c 0
 284 362 313 397 337 450 c 1
 313 503 284 538 250 561 c 0
 212 587 163 600 100 600 c 0
 72 600 50 622 50 650 c 0
449 450 m 1
 507 351 598 300 712 300 c 0
 780 300 850 350 850 450 c 0
 850 534 777 600 712 600 c 0
 598 600 507 549 449 450 c 1
EndSplineSet
Validated: 1
EndChar

StartChar: SP_KALAMA
Encoding: 22 989461 22
Width: 1000
Flags: W
HStem: 0 100<384.879 615.121> 400 100<154 846> 612 284<459.117 540.883>
VStem: 450 100<620.701 887.562>
LayerCount: 2
Fore
SplineSet
650 550 m 0
 623.59133899 550 600 573.581991343 600 600 c 0
 600 612.75 605 625.5 615 635 c 2
 615 635 745 765 745 765 c 2
 754.5 775 767.25 780 780 780 c 0
 806.40866101 780 830 756.418008657 830 730 c 0
 830 717.25 825 704.5 815 695 c 2
 815 695 685 565 685 565 c 2
 675.5 555 662.75 550 650 550 c 0
170 730 m 0
 170 756.40866101 193.581991343 780 220 780 c 0
 232.75 780 245.5 775 255 765 c 2
 255 765 385 635 385 635 c 2
 395 625.5 400 612.75 400 600 c 0
 400 573.59133899 376.418008657 550 350 550 c 0
 337.25 550 324.5 555 315 565 c 2
 315 565 185 695 185 695 c 2
 175 704.5 170 717.25 170 730 c 0
500 896 m 0
 528 896 550 874 550 846 c 2
 550 846 550 662 550 662 c 2
 550 635 528 612 500 612 c 0
 472 612 450 635 450 662 c 2
 450 662 450 846 450 846 c 2
 450 874 472 896 500 896 c 0
50 450 m 0
 50 478 72 500 100 500 c 2
 100 500 900 500 900 500 c 2
 928 500 950 478 950 450 c 0
 950 201 749 0 500 0 c 0
 251 0 50 201 50 450 c 0
154 400 m 1
 178 230 324 100 500 100 c 0
 676 100 822 230 846 400 c 1
 154 400 l 1
EndSplineSet
Validated: 1
EndChar

StartChar: SP_KAMA
Encoding: 23 989462 23
Width: 1000
Flags: W
HStem: 0 100<158.438 361 558.438 736>
LayerCount: 2
Fore
SplineSet
850.109843875 50.8685468372 m 0
 850.109843875 22.6076511718 826.97910484 0 800 0 c 2
 800 0 600 0 600 0 c 2
 572 0 550 22 550 50 c 0
 550 78 572 100 600 100 c 2
 600 100 736 100 736 100 c 1
 736 100 600 644 600 644 c 1
 600 644 449 38 449 38 c 2
 443 16 423 0 400 0 c 2
 400 0 200 0 200 0 c 2
 172 0 150 22 150 50 c 0
 150 78 172 100 200 100 c 2
 200 100 361 100 361 100 c 1
 361 100 551 862 551 862 c 2
 557 884 577 900 600 900 c 0
 623 900 643 884 649 862 c 2
 649 862 849 62 849 62 c 2
 849.734993995 58.325030024 850.109843875 54.5900360288 850.109843875 50.8685468372 c 0
EndSplineSet
Validated: 1
EndChar

StartChar: SP_KASI
Encoding: 24 989463 24
Width: 1000
Flags: W
HStem: 1 21G<486 514>
VStem: 450 100<9.4375 458.136>
LayerCount: 2
Fore
SplineSet
102 900 m 2
 106 900 l 2
 107 900 110 899 113 899 c 0
 120 899 129 898 140 897 c 0
 163 894 194 890 228 882 c 0
 293 868 381 841 435 786 c 0
 463 758 484 720 500 683 c 1
 516 720 537 757 564 785 c 0
 619 841 707 868 772 882 c 0
 806 889 837 894 860 896 c 0
 871 898 880 899 887 899 c 0
 890 899 893 900 894 900 c 2
 897 900 l 2
 898.082590497 900.0721727 899.165180994 900.107883109 900.24589179 900.107883109 c 0
 926.592649498 900.107883109 949.864648176 878.295292298 949.864648176 851.348851548 c 0
 949.864648176 848.524552833 949.583801513 845.72440706 949 843 c 2
 949 840 l 2
 949 839 948 836 948 834 c 0
 942.620808083 801.724848497 937.043036595 777.650628082 926 739 c 0
 909 684 882 611 835 564 c 0
 781 509 693 482 628 468 c 0
 598 462 571 458 550 455 c 1
 550 455 550 51 550 51 c 2
 550 23 528 1 500 1 c 0
 472 1 450 23 450 51 c 2
 450 51 450 455 450 455 c 1
 429 458 401 462 372 469 c 0
 307 483 219 510 164 565 c 0
 118 612 90 685 74 739 c 0
 62.9481455451 777.681490592 57.3918070226 801.649157865 52 834 c 0
 52 836 51 838 51 840 c 2
 51 843 l 2
 50.4161984871 845.72440706 50.1353518244 848.486683477 50.1353518244 851.257351666 c 0
 50.1353518244 877.299638041 73.3578536525 900.107883109 98.9553755543 900.107883109 c 0
 99.973955507 900.107883109 100.989582203 900.0721727 102 900 c 2
364 716 m 0
 325.016042833 754.983957167 239.938627947 782.008767436 163 793 c 1
 177.761162156 733.955351376 204.132185076 668.011067329 235 636 c 0
 274.010920724 595.769988003 359.679175688 569.045832045 437 558 c 1
 422.004054662 617.983781351 395.968166257 684.031833743 364 716 c 0
563 558 m 1
 639.953587553 568.99336965 725.201976033 594.989537784 764 635 c 0
 795.977544009 666.977544009 822.206931657 732.827726626 837 792 c 1
 759.93256137 780.99036591 674.938358416 754.938358416 635 715 c 0
 604.154822848 683.012408879 577.746238509 616.984954034 563 558 c 1
EndSplineSet
Validated: 1
EndChar

StartChar: SP_KEN
Encoding: 25 989464 25
Width: 1000
Flags: W
HStem: 0 21G<236 264 736 764> 399 102<300 431.391>
VStem: 200 100<8.4375 399 501 891.562> 700 100<8.4375 150.28 749.818 891.562>
LayerCount: 2
Fore
SplineSet
800 57 m 2
 800 50 l 2
 800 22 778 0 750 0 c 0
 722 0 700 22 700 50 c 0
 700 51 700 51 700 52 c 0
 700 68.1428345463 698.251425392 80.9942984335 693 102 c 0
 686 136 672 180 645 224 c 0
 596 302 500 386 300 399 c 1
 300 399 300 50 300 50 c 2
 300 22 278 0 250 0 c 0
 222 0 200 22 200 50 c 2
 200 50 200 850 200 850 c 2
 200 878 222 900 250 900 c 0
 278 900 300 878 300 850 c 2
 300 850 300 501 300 501 c 1
 500 514 596 598 645 677 c 0
 672 720 686 764 693 798 c 0
 698.255355122 819.021420488 700 831.824665206 700 848 c 0
 700 849 700 849 700 850 c 0
 700 878 722 900 750 900 c 0
 778 900 800 878 800 850 c 2
 800 843 l 2
 800 840 799 835 799 828 c 0
 798 816 795 798 791 777 c 0
 758.768828185 630.169106175 671.479736862 512.567161093 524 450 c 1
 672.454335346 387.019372884 758.632380889 270.452487061 791 123 c 0
 795 102 798 84 799 72 c 0
 799 65 800 60 800 57 c 2
EndSplineSet
Validated: 1
EndChar

StartChar: SP_KEPEKEN
Encoding: 26 989465 26
Width: 1000
Flags: W
HStem: 0.320443 20.6796G<189.261 214.448 786 814> 350 97<392.849 450 550 607.151> 500 100<200 450 550 800> 800 100<200 450 550 800>
VStem: 100 100<600 800> 450 100<444.72 500 600 800> 750 100<8.4375 222.564> 800 100<600 800>
LayerCount: 2
Fore
SplineSet
50.2699209598 350.222663874 m 0xfe
 50.2699209598 375.818052706 70.0065024801 399.73007904 100.222663874 399.73007904 c 0
 121.045890611 399.73007904 140.64622447 386.649770472 147 366 c 2
 147 366 180 267 180 267 c 1
 229 363 330 432 450 447 c 1
 450 447 450 500 450 500 c 1
 450 500 150 500 150 500 c 2
 122 500 100 522 100 550 c 2
 100 550 100 850 100 850 c 2
 100 878 122 900 150 900 c 2
 850 900 l 2xfe
 878 900 900 878 900 850 c 2
 900 850 900 550 900 550 c 2xfd
 900 522 878 500 850 500 c 2
 850 500 550 500 550 500 c 1
 550 500 550 447 550 447 c 1
 718 426 850 298 850 140 c 2
 850 140 850 50 850 50 c 2xfe
 850 22 828 0 800 0 c 0xfd
 772 0 750 22 750 50 c 2
 750 50 750 140 750 140 c 2
 750 247 648 350 500 350 c 0
 352 350 250 247 250 140 c 2
 250 140 250 50 250 50 c 2
 250 23.1643413354 229.106812105 0.320442677496 199.789942218 0.320442677496 c 0
 178.732082781 0.320442677496 159.199326582 13.6307840872 153 34 c 2
 153 34 53 334 53 334 c 2
 51.1479974709 339.350229528 50.2699209598 344.827492885 50.2699209598 350.222663874 c 0xfe
550 600 m 1
 550 600 800 600 800 600 c 1
 800 600 800 800 800 800 c 1xfd
 800 800 550 800 550 800 c 1
 550 600 l 1
450 800 m 1
 450 800 200 800 200 800 c 1
 200 800 200 600 200 600 c 1
 200 600 450 600 450 600 c 1
 450 800 l 1
EndSplineSet
Validated: 1
EndChar

StartChar: SP_KILI
Encoding: 27 989466 27
Width: 1000
Flags: W
HStem: -2 100<383.012 616.988> 660 100.144<187.209 340.236 664.212 806.097>
VStem: 50 100<331.012 608.843> 450 100<708 891.562> 850 100<331.012 602.304>
CounterMasks: 1 38
LayerCount: 2
Fore
SplineSet
237.486948438 760.143889708 m 0
 310.890638021 760.143889708 388.006555187 728.664481604 450 708 c 1
 450 708 450 850 450 850 c 2
 450 878 472 900 500 900 c 0
 528 900 550 878 550 850 c 2
 550 850 550 707 550 707 c 1
 611.007211419 727.33573714 687.619006773 756.080188963 759.888695208 756.080188963 c 0
 860.979146015 756.080188963 950 694.88763676 950 448 c 0
 950 198 750 -2 500 -2 c 0
 250 -2 50 198 50 448 c 0
 50 697.727272328 137.491176409 760.143889708 237.486948438 760.143889708 c 0
850 448 m 0
 850 561 829 613 813 634 c 0
 802 649 789 656 761 656 c 0
 759.526961572 656.046032451 758.036971252 656.06875605 756.530224124 656.06875605 c 0
 725.304690011 656.06875605 686.88250726 646.309513237 643 632 c 0
 621.677415989 625.90783314 596.910538918 616.974439691 576 611 c 0
 557 605 528 598 500 598 c 0
 471 598 442 606 423 612 c 0
 371.079487087 626.834432261 288.144979471 660 238 660 c 0
 211 660 198 653 187 638 c 0
 171 617 150 564 150 448 c 0
 150 253 305 98 500 98 c 0
 695 98 850 253 850 448 c 0
EndSplineSet
Validated: 1
EndChar

StartChar: SP_KIWEN
Encoding: 28 989467 28
Width: 1000
Flags: W
HStem: 780 100<290 711>
LayerCount: 2
Fore
SplineSet
530 30 m 2
 521 23.5 510.75 20.25 500.5 20.25 c 0
 490.25 20.25 480 23.5 471 30 c 2
 471 30 72 320 72 320 c 2
 58.6274606681 328.915026221 51.3261339597 343.901265066 51.3261339597 359.628222167 c 0
 51.3261339597 365.070410341 52.2004319624 370.601295887 54 376 c 2
 54 376 206 845 206 845 c 2
 213 866 232 880 254 880 c 2
 254 880 747 880 747 880 c 2
 769 880 788 866 795 845 c 2
 795 845 948 376 948 376 c 2
 949.410107742 371.064622904 950.102180762 366.018778929 950.102180762 361.031219126 c 0
 950.102180762 344.796741822 942.769676775 329.179784517 929 320 c 2
 530 30 l 2
841 379 m 1
 841 379 711 780 711 780 c 1
 711 780 290 780 290 780 c 1
 290 780 160 379 160 379 c 1
 160 379 501 132 501 132 c 1
 841 379 l 1
EndSplineSet
Validated: 1
EndChar

StartChar: SP_KO
Encoding: 29 989468 29
Width: 1000
Flags: W
HStem: 9.63946 100.09<289.312 428.602 570.73 710.399> 624.991 100.195<206.933 290.895 708.857 794.646> 790 100<429.978 569.003>
VStem: 49.8524 100.058<431.747 571.239> 135.827 100.158<163.68 303.34> 763.616 99.9286<163.831 302.944> 850.09 100.058<431.57 571.172>
LayerCount: 2
Fore
SplineSet
49.8523523062 500.368165061 m 0xf0
 49.8523523062 637.115148183 161.486204631 725.18543926 274.906354926 725.18543926 c 0
 277.932562879 725.18543926 280.964362428 725.123903574 284 725 c 0
 309 820 396 890 500 890 c 0
 603 890 690 820 716 725 c 0
 719.74243687 725.190940657 723.479040406 725.285631311 727.206524838 725.285631311 c 0
 839.829223986 725.285631311 950.147647694 636.845275723 950.147647694 500.240567912 c 0xf2
 950.147647694 425.34796886 912.417270587 354.495365555 849 314 c 1
 858.761746717 288.061644439 863.544988345 260.956451747 863.544988345 234.029570208 c 0
 863.544988345 164.41216708 831.57180788 95.9866700081 771 52 c 0
 731.537703153 23.4730384238 685.519895593 9.6394629282 639.932538323 9.6394629282 c 0
 589.637218817 9.6394629282 539.86584867 26.4778602954 500 59 c 1
 459.609600689 26.4778602954 409.863986651 9.6394629282 359.567402487 9.6394629282 c 0
 313.978898939 9.6394629282 267.937746207 23.4730384238 228 52 c 0
 167.779356976 95.7316574338 135.826701699 164.133558719 135.826701699 233.255364908 c 0xec
 135.826701699 260.549528864 140.80884701 287.955942359 151 314 c 1
 87.5827294132 355.259429056 49.8523523062 425.708509794 49.8523523062 500.368165061 c 0xf0
672.996883485 616.375775786 m 0
 647.374932833 616.375775786 623 637.114031405 623 667 c 0
 623 735 568 790 500 790 c 0
 433 790 379 738 376 672 c 1
 376.355781064 669.509532555 376.526348826 667.077020931 376.526348826 664.707988527 c 0
 376.526348826 635.823567204 351.170258388 616.375775786 327.003116515 616.375775786 c 0
 321.73837891 616.375775786 316.34956133 617.21681289 311 619 c 0
 298.429189211 623.06133887 285.708768685 624.990738999 273.21488156 624.990738999 c 0
 211.214170835 624.990738999 149.910087769 575.927144898 149.910087769 500.621460069 c 0
 149.910087769 448.741165431 182.7698935 400.8743421 235 384 c 0
 255.848570571 376.78318711 269.624224214 357.349517707 269.624224214 336.01089443 c 0
 269.624224214 322.307069755 264.811591877 310.811591877 257 303 c 0
 242.820972025 281.923066523 235.984706442 257.909028089 235.984706442 234.053142987 c 0
 235.984706442 195.657387829 253.693716505 157.671321108 287 133 c 0
 308.638129527 117.263178526 333.681412869 109.729682149 358.53713234 109.729682149 c 0
 396.85991308 109.729682149 434.736821474 127.638129527 459 161 c 0
 469 174 484 181 500 181 c 0
 515 181 530 174 540 161 c 0
 564.263178526 127.638129527 602.508025565 109.729682149 641.120315544 109.729682149 c 0
 666.163807413 109.729682149 691.361870473 117.263178526 713 133 c 0
 746.090895124 157.667758184 763.616396654 195.36700868 763.616396654 233.465944804 c 0xec
 763.616396654 258.690816602 755.933894455 284.090895124 740 306 c 0
 732.896812486 315.470916686 730.810499614 324.379871927 730.810499614 336.355057076 c 0
 730.810499614 357.614916731 744.397183192 376.508066615 765 384 c 0
 817.2301065 400.8743421 850.089912231 448.741165431 850.089912231 500.621460069 c 0
 850.089912231 575.981708687 788.22111974 624.990738999 726.407641211 624.990738999 c 0
 713.979242005 624.990738999 701.3774137 623.06133887 689 619 c 0
 683.65043867 617.21681289 678.26162109 616.375775786 672.996883485 616.375775786 c 0
EndSplineSet
Validated: 1
EndChar

StartChar: SP_KON
Encoding: 30 989469 30
Width: 1000
Flags: W
HStem: 0.252882 99.6871<137.561 309.047 537.561 709.047> 15 96.8437<109.052 225.849 509.052 625.849> 788.166 96.834<374.151 490.874 774.151 890.874> 800.06 99.6775<290.985 462.392 690.985 862.392>
VStem: 100.25 106.956<567.437 722.46> 392.794 106.956<177.733 332.46> 500.25 106.956<567.437 722.46> 792.794 106.956<177.733 332.46>
LayerCount: 2
Fore
SplineSet
373.28470374 800.060052352 m 0x1f
 290.584847647 800.060052352 207.206267085 739.916453849 207.206267085 643.513737555 c 0
 207.206267085 579.623552247 249.636397505 519.787867498 318 497 c 0
 319 497 320 496 321 496 c 0
 431.090075471 458.254831267 499.750137878 360.528897352 499.750137878 255.823544298 c 0
 499.750137878 227.376573086 494.682115903 198.414428303 484 170 c 0
 444.636464444 65.2929954197 339.574640591 0.252881886023 227.368118798 0.252881886023 c 0x9f
 197.048670544 0.252881886023 166.20755902 5.00172342311 136 15 c 0
 113.898188207 22.1041537907 99.8963395501 41.6697893299 99.8963395501 62.3849593709 c 0
 99.8963395501 93.1993239859 126.859535107 111.843667646 152.972813946 111.843667646 c 0
 158.929840256 111.843667646 165.010675244 110.9251401 171 109 c 0
 189.444064452 102.851978516 208.247683418 99.9399476479 226.71529626 99.9399476479 c 0
 309.415152353 99.9399476479 392.793732915 160.083546151 392.793732915 256.486262445 c 0
 392.793732915 320.376447753 350.363602495 380.212132502 282 403 c 0
 281 403 280 404 279 404 c 0
 168.909924529 441.745168733 100.249862122 539.471102648 100.249862122 643.690204821 c 0
 100.249862122 672.00506851 105.317884097 700.799214016 116 729 c 0
 155.374294245 834.523108575 260.482794493 899.737505922 372.72388635 899.737505922 c 0x5f
 403.013719822 899.737505922 433.822995655 894.98816341 464 885 c 0
 486.101811793 877.895846209 500.10366045 858.953284757 500.10366045 838.500615305 c 0
 500.10366045 807.268742493 472.863175195 788.166042199 446.932989304 788.166042199 c 0x2f
 441.006066285 788.166042199 434.957759044 789.085006021 429 791 c 0
 410.555935548 797.148021484 391.752316582 800.060052352 373.28470374 800.060052352 c 0x1f
773.28470374 800.060052352 m 0
 690.584847647 800.060052352 607.206267085 739.916453849 607.206267085 643.513737555 c 0
 607.206267085 579.623552247 649.636397505 519.787867498 718 497 c 0
 719 497 720 496 721 496 c 0
 831.090075471 458.254831267 899.750137878 360.528897352 899.750137878 255.823544298 c 0
 899.750137878 227.376573086 894.682115903 198.414428303 884 170 c 0
 844.636464444 65.2929954197 739.574640591 0.252881886023 627.368118798 0.252881886023 c 0x9f
 597.048670544 0.252881886023 566.20755902 5.00172342311 536 15 c 0
 513.898188207 22.1041537907 499.89633955 41.6697893299 499.89633955 62.3849593709 c 0
 499.89633955 93.1993239858 526.859535107 111.843667646 552.972813946 111.843667646 c 0
 558.929840256 111.843667646 565.010675244 110.9251401 571 109 c 0
 589.444064452 102.851978516 608.247683418 99.9399476479 626.71529626 99.9399476479 c 0
 709.415152353 99.9399476479 792.793732915 160.083546151 792.793732915 256.486262445 c 0
 792.793732915 320.376447753 750.363602495 380.212132502 682 403 c 0
 681 403 680 404 679 404 c 0
 568.909924529 441.745168733 500.249862122 539.471102648 500.249862122 643.690204821 c 0
 500.249862122 672.00506851 505.317884097 700.799214016 516 729 c 0
 555.374294245 834.523108575 660.482794493 899.737505922 772.72388635 899.737505922 c 0x5f
 803.013719822 899.737505922 833.822995655 894.98816341 864 885 c 0
 886.101811793 877.895846209 900.10366045 858.953284757 900.10366045 838.500615305 c 0
 900.10366045 807.268742493 872.863175195 788.166042199 846.932989304 788.166042199 c 0x2f
 841.006066285 788.166042199 834.957759044 789.085006021 829 791 c 0
 810.555935548 797.148021484 791.752316582 800.060052352 773.28470374 800.060052352 c 0
EndSplineSet
Validated: 1
EndChar

StartChar: SP_KULE
Encoding: 31 989470 31
Width: 1000
Flags: W
HStem: 50 100<197 803> 350 100<108.438 197 370 630 803 891.562>
LayerCount: 2
Fore
SplineSet
110 50 m 2
 84.2661434337 50 60.25 71.1008464233 60.25 100 c 0
 60.25 108.75 62.5 117.5 67 125 c 2
 67 125 197 350 197 350 c 1
 197 350 150 350 150 350 c 2
 122 350 100 372 100 400 c 0
 100 428 122 450 150 450 c 2
 150 450 255 450 255 450 c 1
 255 450 457 800 457 800 c 2
 466 815 482 825 500 825 c 0
 518 825 534 815 543 800 c 2
 543 800 745 450 745 450 c 1
 745 450 850 450 850 450 c 2
 878 450 900 428 900 400 c 0
 900 372 878 350 850 350 c 2
 850 350 803 350 803 350 c 1
 803 350 933 125 933 125 c 2
 937.5 117.5 939.75 108.75 939.75 100 c 0
 939.75 71.114426727 915.727800999 50 890 50 c 2
 890 50 110 50 110 50 c 2
630 450 m 1
 630 450 500 675 500 675 c 1
 500 675 370 450 370 450 c 1
 630 450 l 1
312 350 m 1
 312 350 197 150 197 150 c 1
 197 150 803 150 803 150 c 1
 803 150 688 350 688 350 c 1
 312 350 l 1
EndSplineSet
Validated: 1
EndChar

StartChar: SP_KULUPU
Encoding: 32 989471 32
Width: 1000
Flags: W
HStem: 38 92<205.533 344.842 655.533 794.842> 380 108<205.533 345.301 654.825 794.842> 427 92<431.252 571.204> 769 108<431.533 570.842>
VStem: 53 97<185.435 324.688> 279 97<575.2 713.688> 400 103<185.743 263 265 324.873> 503 97<185.743 263 265 324.354> 626 103<574.983 713.688> 850 103<185.435 324.688>
LayerCount: 2
Fore
SplineSet
400 255 m 0xdec0
 400 324 344 380 275 380 c 0
 206 380 150 324 150 255 c 0
 150 186 206 130 275 130 c 0
 344 130 400 186 400 255 c 0xdec0
725 130 m 0
 794 130 850 186 850 255 c 0
 850 324 794 380 725 380 c 0
 656 380 600 324 600 255 c 0xddc0
 600 186 656 130 725 130 c 0
501 519 m 0xbcc0
 570 519 626 575 626 644 c 0
 626 713 570 769 501 769 c 0
 432 769 376 713 376 644 c 0
 376 575 432 519 501 519 c 0xbcc0
503 265 m 5xbec0
 503 343 542 409 602 449 c 1
 572 435 539 427 504 427 c 0
 465 427 429 437 397 454 c 1
 460 415 503 343 503 265 c 5xbec0
503 263 m 1
 503 139 402 38 278 38 c 0
 154 38 53 139 53 263 c 0
 53 387 154 488 278 488 c 0
 317 488 353 478 385 461 c 1
 322 500 279 571 279 652 c 0
 279 776 380 877 504 877 c 0
 628 877 729 776 729 652 c 0
 729 574 690 506 630 466 c 1
 660 480 693 488 728 488 c 0xdec0
 852 488 953 387 953 263 c 0
 953 139 852 38 728 38 c 0
 604 38 503 139 503 263 c 1
EndSplineSet
Validated: 1
EndChar

StartChar: SP_KUTE
Encoding: 33 989472 33
Width: 1000
Flags: W
HStem: 6 89<228 269.08> 800 100<467.126 595.418>
VStem: 201.074 95.9263<562 598.413> 505 95.0612<583.514 640.897> 734 100<501.925 660.833>
LayerCount: 2
Fore
SplineSet
250.755828512 0.0737043376882 m 0
 226.30463567 0.0737043376882 201.073704338 20.7028268722 201.073704338 50.2441714879 c 0
 201.073704338 67.8884269914 210.710659668 85.0095430275 228 94 c 1
 228 94 228 95 229 95 c 0
 230 95 231 96 233 97 c 0
 258.062729716 109.531364858 276.233119043 121.145699402 308 141 c 0
 419.502828841 206.99147013 578.977210121 322.12393428 662 425 c 0
 709 484 734 537 734 583 c 0
 734 629 708 683 663 728 c 0
 618 774 563 800 518 800 c 0
 503 800 482 792 454 769 c 0
 395.560100807 721.798542959 337.901566057 634.577740599 301 570 c 0
 299 567 297 564 297 562 c 1
 296 562 296 561 295 560 c 0
 285.903202145 543.205911653 268.482265648 533.266996305 250.617865398 533.266996305 c 0
 221.196019576 533.266996305 201.073704338 558.600008073 201.073704338 583.086590234 c 0
 201.073704338 591.103046483 202.990456972 599.289340332 207 607 c 1
 207 607 207 607 207 608 c 1
 209.093292519 608 212.251735162 615.503470325 214 619 c 0
 218 627 224 638 232 651 c 0
 271.561171338 715.286903425 329.061615489 798.047923158 392 847 c 0
 426 875 469 900 518 900 c 0
 598 900 677 856 733 799 c 0
 790 742 834 664 834 583 c 0
 834 503 793 428 740 362 c 0
 644.393971882 245.148187856 483.025895819 129.780446478 360 55 c 0
 335 40 313 27 298 19 c 0
 291 15 285 12 281 9 c 0
 279 8 277 7 276 7 c 1
 276 6 275 6 275 6 c 1
 275 6 274 6 274 6 c 1
 266.597766718 1.99045697249 258.624772421 0.0737043376882 250.755828512 0.0737043376882 c 0
549.883381924 650.06122449 m 0
 580.033718568 650.06122449 600.06122449 625.294306789 600.06122449 600.116618076 c 0
 600.06122449 592.693877551 598.428571429 585.142857143 595 578 c 0
 539 462 444 374 324 306 c 0
 316.33849754 301.850019501 308.065551122 299.840092854 299.896860375 299.840092854 c 0
 275.358126738 299.840092854 249.840092854 320.18068363 249.840092854 350.103139625 c 0
 249.840092854 367.52323893 258.980731729 384.469209768 276 394 c 0
 382 454 460 528 505 622 c 0
 513.571428571 639.857142857 531.326530612 650.06122449 549.883381924 650.06122449 c 0
EndSplineSet
Validated: 1
EndChar

StartChar: SP_LA
Encoding: 34 989473 34
Width: 1000
Flags: W
HStem: 0 100<259.438 413.286> 800 100<259.438 413.286>
VStem: 651 100<333.579 566.421>
LayerCount: 2
Fore
SplineSet
651 450 m 0
 651 643 494 800 301 800 c 0
 273 800 251 822 251 850 c 0
 251 878 273 900 301 900 c 0
 549 900 751 699 751 450 c 0
 751 201 549 0 301 0 c 0
 273 0 251 22 251 50 c 0
 251 78 273 100 301 100 c 0
 494 100 651 257 651 450 c 0
EndSplineSet
Validated: 1
EndChar

StartChar: SP_LAPE
Encoding: 35 989474 35
Width: 1000
Flags: W
HStem: 124 100<531.18 719.472> 400 100<58.4375 306.573> 674 100<531.423 719.472>
VStem: 304 96<357.143 400 500 541.482> 850 100<354.528 543.472>
LayerCount: 2
Fore
SplineSet
950 449 m 0
 950 270 804 124 625 124 c 0
 462 124 327 244 304 400 c 1
 304 400 100 400 100 400 c 2
 72 400 50 422 50 450 c 0
 50 478 72 500 100 500 c 2
 100 500 304 500 304 500 c 1
 328 655 463 774 625 774 c 0
 804 774 950 628 950 449 c 0
850 449 m 0
 850 573 749 674 625 674 c 0
 501 674 400 573 400 449 c 0
 400 325 501 224 625 224 c 0
 749 224 850 325 850 449 c 0
EndSplineSet
Validated: 1
EndChar

StartChar: SP_LASO
Encoding: 36 989475 36
Width: 1000
Flags: W
HStem: 0 100<283 717>
LayerCount: 2
Fore
SplineSet
900 843 m 2
 900 840 l 2
 900 832.58612148 897.458879571 824.835518283 895 815 c 0
 892 798 887 776 879 751 c 0
 865 703 841 638 799 596 c 0
 750 546 671 522 614 510 c 0
 609 508 603 507 597 506 c 1
 597 506 846 75 846 75 c 2
 850.5 67.5 852.75 58.75 852.75 50 c 0
 852.75 21.114426727 828.727800999 0 803 0 c 2
 803 0 197 0 197 0 c 2
 171.266143434 0 147.25 21.1008464233 147.25 50 c 0
 147.25 58.75 149.5 67.5 154 75 c 2
 154 75 403 507 403 507 c 1
 336.375589924 520.324882015 256.074672192 541.925327808 202 596 c 0
 160 639 136 704 122 751 c 0
 110.933880471 785.581623529 107.653204495 806.733977525 102 835 c 0
 101 837 101 839 101 840 c 2
 101 843 l 2
 100.416198487 845.72440706 100.135351824 848.486683477 100.135351824 851.257351666 c 0
 100.135351824 877.709746058 123.351822412 900.107883109 149.75410821 900.107883109 c 0
 150.834819006 900.107883109 151.917409503 900.0721727 153 900 c 0
 154 900 155 900 155 900 c 2
 157 900 159 900 162 899 c 0
 168 899 176 898 186 897 c 0
 206 895 233 891 263 884 c 0
 321 872 399 848 449 798 c 0
 470 776 488 748 501 719 c 1
 514 748 531 776 553 797 c 0
 602 847 680 872 737 884 c 0
 768 891 795 895 815 897 c 0
 825 898 833 899 839 899 c 0
 842 899 844 900 846 900 c 2
 848 900 l 2
 849.082590497 900.0721727 850.165180994 900.107883109 851.24589179 900.107883109 c 0
 877.592649498 900.107883109 900.864648176 878.295292298 900.864648176 851.348851548 c 0
 900.864648176 848.524552833 900.583801513 845.72440706 900 843 c 2
214 792 m 1
 226.009360099 743.962559604 248.747022766 691.252977234 273 667 c 0
 305.909728904 632.871392248 373.219775614 616.173383197 437 602 c 1
 425.014806061 649.940775755 402.675873803 703.393954272 377 728 c 0
 347.842452157 758.278991991 277.457159427 784.949204508 214 792 c 1
565 602 m 1
 628.025675616 609.002852846 698.050252571 636.050252571 728 666 c 0
 752.658863493 690.658863493 774.809113909 743.236455635 787 792 c 1
 723.100956292 777.800212509 656.524397624 760.729004944 624 727 c 0
 601 704 582 660 568 614 c 0
 567 610 566 606 565 602 c 1
500 475 m 1
 500 475 283 100 283 100 c 1
 283 100 717 100 717 100 c 1
 500 475 l 1
EndSplineSet
Validated: 1
EndChar

StartChar: SP_LAWA
Encoding: 37 989476 37
Width: 1000
Flags: W
HStem: 75 100<320.142 529.858> 550 100<236 614 787 941.562> 725 100<320.636 529.325>
VStem: 50 100<345.142 546.114> 700 100<345.142 548.522>
LayerCount: 2
Fore
SplineSet
787 550 m 1
 795 518 800 485 800 450 c 0
 800 243 632 75 425 75 c 0
 218 75 50 243 50 450 c 0
 50 657 218 825 425 825 c 0
 559 825 676 755 742 650 c 1
 742 650 900 650 900 650 c 2
 928 650 950 628 950 600 c 0
 950 572 928 550 900 550 c 2
 787 550 l 1
236 650 m 1
 236 650 614 650 614 650 c 1
 564 696 498 725 425 725 c 0
 352 725 286 696 236 650 c 1
169 550 m 1
 157 519 150 485 150 450 c 0
 150 298 273 175 425 175 c 0
 577 175 700 298 700 450 c 0
 700 485 693 519 681 550 c 1
 169 550 l 1
EndSplineSet
Validated: 1
EndChar

StartChar: SP_LEN
Encoding: 38 989477 38
Width: 1000
Flags: W
HStem: 0 21G<186 214 486 514 786 814> 200 100<250 450 550 750> 800 100<250 750>
VStem: 150 100<8.4375 200 300 800> 450 100<8.4375 200> 750 100<8.4375 200 300 800>
CounterMasks: 1 1c
LayerCount: 2
Fore
SplineSet
200 900 m 2
 200 900 800 900 800 900 c 2
 828 900 850 878 850 850 c 2
 850 850 850 50 850 50 c 2
 850 22 828 0 800 0 c 0
 772 0 750 22 750 50 c 2
 750 50 750 200 750 200 c 1
 750 200 550 200 550 200 c 1
 550 200 550 50 550 50 c 2
 550 22 528 0 500 0 c 0
 472 0 450 22 450 50 c 2
 450 50 450 200 450 200 c 1
 450 200 250 200 250 200 c 1
 250 200 250 50 250 50 c 2
 250 22 228 0 200 0 c 0
 172 0 150 22 150 50 c 2
 150 50 150 850 150 850 c 2
 150 878 172 900 200 900 c 2
750 300 m 1
 750 300 750 800 750 800 c 1
 750 800 250 800 250 800 c 1
 250 800 250 300 250 300 c 1
 750 300 l 1
EndSplineSet
Validated: 1
EndChar

StartChar: SP_LETE
Encoding: 39 989478 39
Width: 1000
Flags: W
HStem: 400 100<58.4375 413 587 941.562>
LayerCount: 2
Fore
SplineSet
700.651355355 846.636905195 m 0
 729.854196488 846.636905195 749.888888889 821.287342155 749.888888889 796.444444444 c 0
 749.888888889 787.777777778 747.666666667 779 743 771 c 2
 743 771 587 500 587 500 c 1
 587 500 900 500 900 500 c 2
 928 500 950 478 950 450 c 0
 950 422 928 400 900 400 c 2
 900 400 587 400 587 400 c 1
 587 400 743 129 743 129 c 2
 747.666666667 121 749.888888889 112.222222222 749.888888889 103.555555556 c 0
 749.888888889 78.709712438 729.88279273 53.3630948054 700.651355355 53.3630948054 c 0
 683.317688573 53.3630948054 666.486011249 62.73826643 657 79 c 2
 657 79 500 350 500 350 c 1
 500 350 343 79 343 79 c 2
 333.513988751 62.73826643 316.682311427 53.3630948054 299.348644645 53.3630948054 c 0
 270.145803511 53.3630948054 250.111111111 78.7126578449 250.111111111 103.555555556 c 0
 250.111111111 112.222222222 252.333333333 121 257 129 c 2
 257 129 413 400 413 400 c 1
 413 400 100 400 100 400 c 2
 72 400 50 422 50 450 c 0
 50 478 72 500 100 500 c 2
 100 500 413 500 413 500 c 1
 413 500 257 771 257 771 c 2
 252.333333333 779 250.111111111 787.777777778 250.111111111 796.444444444 c 0
 250.111111111 821.290287562 270.11720727 846.636905195 299.348644645 846.636905195 c 0
 316.682311427 846.636905195 333.513988751 837.26173357 343 821 c 2
 343 821 500 550 500 550 c 1
 500 550 657 821 657 821 c 2
 666.486011249 837.26173357 683.317688573 846.636905195 700.651355355 846.636905195 c 0
EndSplineSet
Validated: 1
EndChar

StartChar: SP_LI
Encoding: 40 989479 40
Width: 1000
Flags: W
HStem: 0 21G<286.796 306.375>
LayerCount: 2
Fore
SplineSet
250 850 m 0
 250 876.40866101 273.581991343 900 300 900 c 0
 312.75 900 325.5 895 335 885 c 2
 735 485 l 2
 745 475.5 750 462.75 750 450 c 0
 750 437.25 745 424.5 735 415 c 2
 735 415 335 15 335 15 c 2
 325.5 5 312.75 0 300 0 c 0
 273.59133899 0 250 23.5819913434 250 50 c 0
 250 62.75 255 75.5 265 85 c 2
 265 85 629 450 629 450 c 1
 629 450 265 815 265 815 c 2
 255 824.5 250 837.25 250 850 c 0
EndSplineSet
Validated: 1
EndChar

StartChar: SP_LILI
Encoding: 41 989480 41
Width: 1000
Flags: W
LayerCount: 2
Fore
SplineSet
200 600 m 0
 200 626.40866101 223.581991343 650 250 650 c 0
 262.75 650 275.5 645 285 635 c 2
 285 635 500 421 500 421 c 1
 500 421 715 635 715 635 c 2
 724.5 645 737.25 650 750 650 c 0
 776.40866101 650 800 626.418008657 800 600 c 0
 800 587.25 795 574.5 785 565 c 2
 785 565 535 315 535 315 c 2
 525.5 305 512.75 300 500 300 c 0
 487.25 300 474.5 305 465 315 c 2
 465 315 215 565 215 565 c 2
 205 574.5 200 587.25 200 600 c 0
EndSplineSet
Validated: 1
EndChar

StartChar: SP_LINJA
Encoding: 42 989481 42
Width: 1000
Flags: W
HStem: 266.619 100.079<232.075 386.719> 533.301 100.079<613.281 767.925>
VStem: 61.6194 99.5707<440.482 598.743> 76 96.8437<517.911 625.022> 838.81 99.5707<301.257 459.518>
LayerCount: 2
Fore
SplineSet
123.768622535 633.73007904 m 0xd8
 154.05046837 633.73007904 172.843667646 607.990754796 172.843667646 583.763333767 c 0xd8
 172.843667646 578.214541922 171.9251401 572.561515845 170 567 c 0
 164.022983648 550.349740163 161.190107588 533.334942321 161.190107588 516.597588951 c 0
 161.190107588 442.141915254 219.286516215 366.69885526 310.218121995 366.69885526 c 0
 372.330568518 366.69885526 430.836098015 405.257701613 453 467 c 0
 489.247756992 569.439313237 585.726274395 633.380614665 688.613208788 633.380614665 c 0
 840.476993635 633.380614665 938.380614665 508.428149738 938.380614665 383.386791212 c 0
 938.380614665 355.705674645 933.752243008 327.560686763 924 300 c 0
 916.852002529 279.350229528 897.08823522 266.26992096 876.231377465 266.26992096 c 0
 845.94953163 266.26992096 827.156332354 292.009245204 827.156332354 316.236666233 c 0
 827.156332354 321.785458078 828.0748599 327.438484155 830 333 c 0
 835.977016352 349.650259837 838.809892412 366.665057679 838.809892412 383.402411049 c 0
 838.809892412 457.858084746 780.713483785 533.30114474 689.781878005 533.30114474 c 0
 627.669431482 533.30114474 569.163901985 494.742298387 547 433 c 0
 510.752243008 330.560686763 414.273725605 266.619385335 311.386791212 266.619385335 c 0
 159.523006365 266.619385335 61.6193853354 391.571850262 61.6193853354 516.613208788 c 0xe8
 61.6193853354 544.294325355 66.2477569916 572.439313237 76 600 c 0
 83.1479974709 620.649770472 102.91176478 633.73007904 123.768622535 633.73007904 c 0xd8
EndSplineSet
Validated: 1
EndChar

StartChar: SP_LIPU
Encoding: 43 989482 43
Width: 1000
Flags: W
HStem: 0 100<250 750> 800 100<250 750>
VStem: 150 100<100 800> 750 100<100 800>
LayerCount: 2
Fore
SplineSet
150 850 m 2
 150 878 172 900 200 900 c 2
 200 900 800 900 800 900 c 2
 828 900 850 878 850 850 c 2
 850 850 850 50 850 50 c 2
 850 22 828 0 800 0 c 2
 800 0 200 0 200 0 c 2
 172 0 150 22 150 50 c 2
 150 850 l 2
250 800 m 1
 250 800 250 100 250 100 c 1
 250 100 750 100 750 100 c 1
 750 100 750 800 750 800 c 1
 250 800 l 1
EndSplineSet
Validated: 1
EndChar

StartChar: SP_LOJE
Encoding: 44 989483 44
Width: 1000
Flags: W
HStem: 24 100<290 810> 450 100<476.221 623.779> 800 100<254 846>
LayerCount: 2
Fore
SplineSet
204 24 m 2
 177.947650479 24 153.25 44.7226528689 153.25 74 c 0
 153.25 82.75 155.5 91.5 160 99 c 2
 160 99 384 486 384 486 c 1
 246 549 150 688 150 850 c 0
 150 878 172 900 200 900 c 2
 200 900 900 900 900 900 c 2
 928 900 950 878 950 850 c 0
 950 688 854 549 716 486 c 1
 716 486 940 99 940 99 c 2
 944.5 91.5 946.75 82.75 946.75 74 c 0
 946.75 44.7368531703 922.050232497 24 896 24 c 2
 896 24 204 24 204 24 c 2
618 456 m 1
 596 452 573 450 550 450 c 0
 527 450 504 452 482 456 c 1
 482 456 290 124 290 124 c 1
 290 124 810 124 810 124 c 1
 618 456 l 1
550 550 m 0
 699 550 822 658 846 800 c 1
 846 800 254 800 254 800 c 1
 278 658 401 550 550 550 c 0
EndSplineSet
Validated: 1
EndChar

StartChar: SP_LON
Encoding: 45 989484 45
Width: 1000
Flags: W
HStem: 249 100<58.4375 941.562> 449 200<438.358 561.642>
VStem: 400 200<487.358 610.642>
LayerCount: 2
Fore
SplineSet
50 299 m 0
 50 327 72 349 100 349 c 2
 100 349 900 349 900 349 c 2
 928 349 950 327 950 299 c 0
 950 271 928 249 900 249 c 2
 900 249 100 249 100 249 c 2
 72 249 50 271 50 299 c 0
600 549 m 0
 600 494 555 449 500 449 c 0
 445 449 400 494 400 549 c 0
 400 604 445 649 500 649 c 0
 555 649 600 604 600 549 c 0
EndSplineSet
Validated: 1
EndChar

StartChar: SP_LUKA
Encoding: 46 989485 46
Width: 1000
Flags: W
HStem: -0.729296 21.7293G<291.321 315.2 886 914> 750 100<503.504 696.496>
VStem: 250 100<237 595.711> 850 100<8.4375 595.711>
LayerCount: 2
Fore
SplineSet
49.3630948054 397.559965193 m 0
 49.3630948054 423.145272674 70.726855762 447.888888889 100.185185185 447.888888889 c 0
 117.222222222 447.888888889 133.666666667 439 143 423 c 2
 143 423 250 237 250 237 c 1
 250 237 250 500 250 500 c 2
 250 693 407 850 600 850 c 0
 793 850 950 693 950 500 c 2
 950 500 950 50 950 50 c 2
 950 22 928 0 900 0 c 0
 872 0 850 22 850 50 c 2
 850 50 850 500 850 500 c 2
 850 638 738 750 600 750 c 0
 462 750 350 638 350 500 c 2
 350 500 350 50 350 50 c 2
 350 23.84781116 330.260535145 -0.729296351227 300.138560793 -0.729296351227 c 0
 282.502809077 -0.729296351227 265.859394453 8.89201008603 257 25 c 2
 257 25 56 373 56 373 c 2
 51.4860112492 380.73826643 49.3630948054 389.204250519 49.3630948054 397.559965193 c 0
EndSplineSet
Validated: 1
EndChar

StartChar: SP_LUKIN
Encoding: 47 989486 47
Width: 1000
Flags: W
HStem: 175 100<370.405 629.595> 350 200<438.358 561.642> 625 100<370.405 629.595>
VStem: 400 200<388.358 511.642>
CounterMasks: 1 e0
LayerCount: 2
Fore
SplineSet
600 450 m 0
 600 395 555 350 500 350 c 0
 445 350 400 395 400 450 c 0
 400 505 445 550 500 550 c 0
 555 550 600 505 600 450 c 0
880 550 m 1
 881 549 l 1
 906 519 929 486 947 450 c 1
 928 414 906 380 880 350 c 0
 788 243 652 175 500 175 c 0
 348 175 212 243 120 350 c 0
 94 380 72 414 53 450 c 1
 72 486 94 520 120 550 c 0
 212 657 348 725 500 725 c 0
 652 725 788 657 880 550 c 1
831 450 m 1
 759 556 637 625 500 625 c 0
 363 625 241 556 169 450 c 1
 241 344 363 275 500 275 c 0
 637 275 759 344 831 450 c 1
EndSplineSet
Validated: 1
EndChar

StartChar: SP_LUPA
Encoding: 48 989487 48
Width: 1000
Flags: W
HStem: 0 100<383.579 616.421>
VStem: 50 100<337.381 891.562> 850 100<337.381 891.562>
LayerCount: 2
Fore
SplineSet
500 100 m 0
 693 100 850 257 850 450 c 2
 850 450 850 850 850 850 c 2
 850 878 872 900 900 900 c 0
 928 900 950 878 950 850 c 2
 950 850 950 450 950 450 c 2
 950 201 749 0 500 0 c 0
 251 0 50 201 50 450 c 2
 50 450 50 850 50 850 c 2
 50 878 72 900 100 900 c 0
 128 900 150 878 150 850 c 2
 150 850 150 450 150 450 c 2
 150 257 307 100 500 100 c 0
EndSplineSet
Validated: 1
EndChar

StartChar: SP_MA
Encoding: 49 989488 49
Width: 1000
Flags: W
HStem: 0 104<376.64 450 550 623.36> 400 100<154 450 550 846> 796 104<376.64 450 550 623.36>
VStem: 50 104<326.64 400 500 573.36> 450 100<104 400 500 796> 846 104<326.64 400 500 573.36>
CounterMasks: 1 fc
LayerCount: 2
Fore
SplineSet
500 0 m 0
 251 0 50 201 50 450 c 0
 50 699 251 900 500 900 c 0
 749 900 950 699 950 450 c 0
 950 201 749 0 500 0 c 0
550 104 m 1
 703 125 825 247 846 400 c 1
 846 400 550 400 550 400 c 1
 550 104 l 1
450 104 m 1
 450 104 450 400 450 400 c 1
 450 400 154 400 154 400 c 1
 175 247 297 125 450 104 c 1
550 500 m 1
 550 500 846 500 846 500 c 1
 825 653 703 775 550 796 c 1
 550 500 l 1
450 796 m 1
 297 775 175 653 154 500 c 1
 154 500 450 500 450 500 c 1
 450 796 l 1
EndSplineSet
Validated: 1
EndChar

StartChar: SP_MAMA
Encoding: 50 989489 50
Width: 1000
Flags: W
HStem: 0 100<439.527 560.473> 200 100<402.587 597.413> 800 100<403.504 596.496>
VStem: 150 100<451.679 646.496> 300 100<139.527 213.855> 600 100<139.527 213.855> 750 100<451.679 646.496>
LayerCount: 2
Fore
SplineSet
500 900 m 0
 693 900 850 743 850 550 c 0
 850 427 787 320 692 257 c 1
 697 239 700 220 700 200 c 0
 700 90 610 0 500 0 c 0
 390 0 300 90 300 200 c 0
 300 220 303 239 308 257 c 1
 213 320 150 427 150 550 c 0
 150 743 307 900 500 900 c 0
250 550 m 0
 250 412 362 300 500 300 c 0
 638 300 750 412 750 550 c 0
 750 688 638 800 500 800 c 0
 362 800 250 688 250 550 c 0
599 214 m 1
 568 205 534 200 500 200 c 0
 466 200 432 205 401 214 c 1
 400 210 400 205 400 200 c 0
 400 145 445 100 500 100 c 0
 555 100 600 145 600 200 c 0
 600 205 600 210 599 214 c 1
EndSplineSet
Validated: 1
EndChar

StartChar: SP_MANI
Encoding: 51 989490 51
Width: 1000
Flags: W
HStem: 0 100<390.166 609.834> 700 100<388.966 611.034>
VStem: 50.3531 97.6469<809.719 891.255> 100 100<290.166 511.242> 800 100<290.166 511.242> 852 97.6469<809.719 891.255>
LayerCount: 2
Fore
SplineSet
50.3531254797 849.826427183 m 0xe0
 50.3531254797 875.348001123 69.8726475402 899.64687452 99.8264271834 899.64687452 c 0
 122.097053248 899.64687452 142.11545025 884.856899073 148 863 c 0
 158 825 172 801 191 783 c 0
 210 764 237 749 281 736 c 1
 282 736 l 1
 345 776 420 800 500 800 c 0
 580 800 655 776 718 736 c 1
 718 736 719 736 719 736 c 1
 763 749 790 764 809 783 c 0
 828 801 842 825 852 863 c 0
 857.88454975 884.856899073 877.902946752 899.64687452 900.173572817 899.64687452 c 0
 930.123847992 899.64687452 949.64687452 875.342387348 949.64687452 849.826427183 c 0xe4
 949.64687452 845.604901925 949.11545025 841.302450963 948 837 c 0
 935 787 914 745 879 711 c 0
 858 690 832 674 803 661 c 1
 864 591 900 500 900 400 c 0
 900 179 721 0 500 0 c 0
 279 0 100 179 100 400 c 0xd8
 100 500 136 591 197 661 c 1
 168 674 142 690 121 711 c 0
 86 745 65 787 52 837 c 0
 50.8845497504 841.302450963 50.3531254797 845.604901925 50.3531254797 849.826427183 c 0xe0
800 400 m 0xd8
 800 566 666 700 500 700 c 0
 334 700 200 566 200 400 c 0
 200 234 334 100 500 100 c 0
 666 100 800 234 800 400 c 0xd8
EndSplineSet
Validated: 1
EndChar

StartChar: SP_MELI
Encoding: 52 989491 52
Width: 1000
Flags: W
HStem: 0 21G<86 114 886 914> 150 100<409.912 590.088> 650 100<409.912 590.088> 800 100<383.579 616.421>
VStem: 50 100<8.4375 562.619> 200 100<359.912 540.088> 700 100<359.912 540.088> 850 100<8.4375 562.619>
LayerCount: 2
Fore
SplineSet
500 800 m 0
 307 800 150 643 150 450 c 2
 150 450 150 50 150 50 c 2
 150 22 128 0 100 0 c 0
 72 0 50 22 50 50 c 2
 50 50 50 450 50 450 c 2
 50 699 251 900 500 900 c 0
 749 900 950 699 950 450 c 2
 950 450 950 50 950 50 c 2
 950 22 928 0 900 0 c 0
 872 0 850 22 850 50 c 2
 850 50 850 450 850 450 c 2
 850 643 693 800 500 800 c 0
500 650 m 0
 390 650 300 560 300 450 c 0
 300 340 390 250 500 250 c 0
 610 250 700 340 700 450 c 0
 700 560 610 650 500 650 c 0
200 450 m 0
 200 616 334 750 500 750 c 0
 666 750 800 616 800 450 c 0
 800 284 666 150 500 150 c 0
 334 150 200 284 200 450 c 0
EndSplineSet
Validated: 1
EndChar

StartChar: SP_MI
Encoding: 53 989492 53
Width: 1000
Flags: W
HStem: 0 21G<236 264> 300 100<409.722 590.088> 800 100<409.912 590.088>
VStem: 200 100<8.4375 376 509.151 689.328> 700 100<509.912 690.088>
LayerCount: 2
Fore
SplineSet
300 376 m 1
 300 376 300 50 300 50 c 2
 300 22 278 0 250 0 c 0
 222 0 200 22 200 50 c 2
 200 50 200 600 200 600 c 2
 200 766 334 900 500 900 c 0
 666 900 800 766 800 600 c 0
 800 434 666 300 500 300 c 0
 423 300 353 329 300 376 c 1
300 600 m 0
 300 490 390 400 500 400 c 0
 610 400 700 490 700 600 c 0
 700 710 610 800 500 800 c 0
 390 800 300 710 300 600 c 0
EndSplineSet
Validated: 1
EndChar

StartChar: SP_MIJE
Encoding: 54 989493 54
Width: 1000
Flags: W
HStem: 0 250<58.4375 141.562 858.438 941.562> 100 100<389.634 610.366> 150 100<150 188 812 850> 800 100<390.166 609.834>
VStem: 50 100<8.4375 150> 100 100<389.393 609.834> 800 100<389.393 609.834> 850 100<8.4375 150>
LayerCount: 2
Fore
SplineSet
100 500 m 0x34
 100 721 279 900 500 900 c 0
 721 900 900 721 900 500 c 0
 900 405 867 318 812 250 c 1x36
 812 250 900 250 900 250 c 2x96
 928 250 950 228 950 200 c 2
 950 200 950 50 950 50 c 2x51
 950 22 928 0 900 0 c 0x92
 872 0 850 22 850 50 c 2
 850 50 850 150 850 150 c 1
 850 150 694 150 694 150 c 1x31
 636 118 570 100 500 100 c 0x51
 430 100 364 118 306 150 c 1
 306 150 150 150 150 150 c 1
 150 150 150 50 150 50 c 2x39
 150 22 128 0 100 0 c 0x94
 72 0 50 22 50 50 c 2
 50 50 50 200 50 200 c 2x58
 50 228 72 250 100 250 c 2x94
 100 250 188 250 188 250 c 1
 133 318 100 405 100 500 c 0x34
500 800 m 0
 334 800 200 666 200 500 c 0
 200 334 334 200 500 200 c 0x56
 666 200 800 334 800 500 c 0
 800 666 666 800 500 800 c 0
EndSplineSet
Validated: 1
EndChar

StartChar: SP_MOKU
Encoding: 55 989494 55
Width: 1000
Flags: W
HStem: 0.320443 20.6796G<189.261 214.448 786 814> 350 150<392.849 607.151> 800 100<154 846>
VStem: 750 100<8.4375 220.187>
LayerCount: 2
Fore
SplineSet
50.2699209598 350.222663874 m 0
 50.2699209598 375.818052706 70.0065024801 399.73007904 100.222663874 399.73007904 c 0
 121.045890611 399.73007904 140.64622447 386.649770472 147 366 c 2
 147 366 180 267 180 267 c 1
 216 337 279 392 357 423 c 1
 179 483 50 651 50 850 c 0
 50 878 72 900 100 900 c 2
 100 900 900 900 900 900 c 2
 928 900 950 878 950 850 c 0
 950 651 821 483 643 423 c 1
 764 375 850 267 850 140 c 2
 850 140 850 50 850 50 c 2
 850 22 828 0 800 0 c 0
 772 0 750 22 750 50 c 2
 750 50 750 140 750 140 c 2
 750 247 648 350 500 350 c 0
 352 350 250 247 250 140 c 2
 250 140 250 50 250 50 c 2
 250 23.1643413354 229.106812105 0.320442677496 199.789942218 0.320442677496 c 0
 178.732082781 0.320442677496 159.199326582 13.6307840872 153 34 c 2
 153 34 53 334 53 334 c 2
 51.1479974709 339.350229528 50.2699209598 344.827492885 50.2699209598 350.222663874 c 0
500 500 m 0
 676 500 822 630 846 800 c 1
 846 800 154 800 154 800 c 1
 178 630 324 500 500 500 c 0
EndSplineSet
Validated: 1
EndChar

StartChar: SP_MOLI
Encoding: 56 989495 56
Width: 1000
Flags: W
HStem: 0 100<383.579 616.421> 325 250<248.591 316.875 383.125 451.409 548.591 616.875 683.125 751.409> 800 100<383.579 616.421>
VStem: 50 100<333.579 566.421> 850 100<333.579 566.421>
CounterMasks: 1 e0
LayerCount: 2
Fore
SplineSet
225 525 m 0
 225 551.40866101 248.581991343 575 275 575 c 0
 287.75 575 300.5 570 310 560 c 2
 310 560 350 521 350 521 c 1
 350 521 390 560 390 560 c 2
 399.5 570 412.25 575 425 575 c 0
 451.40866101 575 475 551.418008657 475 525 c 0
 475 512.25 470 499.5 460 490 c 2
 460 490 421 450 421 450 c 1
 421 450 460 410 460 410 c 2
 470 400.5 475 387.75 475 375 c 0
 475 348.59133899 451.418008657 325 425 325 c 0
 412.25 325 399.5 330 390 340 c 2
 390 340 350 379 350 379 c 1
 350 379 310 340 310 340 c 2
 300.5 330 287.75 325 275 325 c 0
 248.59133899 325 225 348.581991343 225 375 c 0
 225 387.75 230 400.5 240 410 c 2
 240 410 279 450 279 450 c 1
 279 450 240 490 240 490 c 2
 230 499.5 225 512.25 225 525 c 0
525 525 m 0
 525 551.40866101 548.581991343 575 575 575 c 0
 587.75 575 600.5 570 610 560 c 2
 610 560 650 521 650 521 c 1
 650 521 690 560 690 560 c 2
 699.5 570 712.25 575 725 575 c 0
 751.40866101 575 775 551.418008657 775 525 c 0
 775 512.25 770 499.5 760 490 c 2
 760 490 721 450 721 450 c 1
 721 450 760 410 760 410 c 2
 770 400.5 775 387.75 775 375 c 0
 775 348.59133899 751.418008657 325 725 325 c 0
 712.25 325 699.5 330 690 340 c 2
 690 340 650 379 650 379 c 1
 650 379 610 340 610 340 c 2
 600.5 330 587.75 325 575 325 c 0
 548.59133899 325 525 348.581991343 525 375 c 0
 525 387.75 530 400.5 540 410 c 2
 540 410 579 450 579 450 c 1
 579 450 540 490 540 490 c 2
 530 499.5 525 512.25 525 525 c 0
950 450 m 0
 950 201 749 0 500 0 c 0
 251 0 50 201 50 450 c 0
 50 699 251 900 500 900 c 0
 749 900 950 699 950 450 c 0
850 450 m 0
 850 643 693 800 500 800 c 0
 307 800 150 643 150 450 c 0
 150 257 307 100 500 100 c 0
 693 100 850 257 850 450 c 0
EndSplineSet
Validated: 1
EndChar

StartChar: SP_MONSI
Encoding: 57 989496 57
Width: 1000
Flags: W
HStem: 0 100<350 941.562> 375 150<73.4173 176.583> 800 100<350 941.562>
VStem: 50 150<398.417 501.583> 250 100<100 800>
CounterMasks: 1 e0
LayerCount: 2
Fore
SplineSet
950 850 m 0
 950 822 928 800 900 800 c 2
 900 800 350 800 350 800 c 1
 350 800 350 100 350 100 c 1
 350 100 900 100 900 100 c 2
 928 100 950 78 950 50 c 0
 950 22 928 0 900 0 c 2
 900 0 300 0 300 0 c 2
 272 0 250 22 250 50 c 2
 250 50 250 850 250 850 c 2
 250 878 272 900 300 900 c 2
 300 900 900 900 900 900 c 2
 928 900 950 878 950 850 c 0
125 375 m 0
 84 375 50 409 50 450 c 0
 50 491 84 525 125 525 c 0
 166 525 200 491 200 450 c 0
 200 409 166 375 125 375 c 0
EndSplineSet
Validated: 1
EndChar

StartChar: SP_MU
Encoding: 58 989497 58
Width: 1000
Flags: W
HStem: 0 100<390.166 609.834> 175 150<448.417 551.583> 500 100<214.821 310.202 689.798 785.179> 700 100<450.141 549.859> 800 100<189.527 311.767 688.233 810.473>
VStem: 50 100<639.057 760.473> 100 100<290.166 501.826> 350 100<642.077 698.873> 425 150<198.417 301.583> 550 100<642.077 698.873> 800 100<290.166 501.826> 850 100<639.057 760.473>
LayerCount: 2
Fore
SplineSet
500 175 m 0xe080
 459 175 425 209 425 250 c 0
 425 291 459 325 500 325 c 0
 541 325 575 291 575 250 c 0
 575 209 541 175 500 175 c 0xe080
900 400 m 0xf020
 900 179 721 0 500 0 c 0
 279 0 100 179 100 400 c 0xf220
 100 450 109 498 126 543 c 1
 80 579 50 636 50 700 c 0xf4
 50 810 140 900 250 900 c 0xec
 327 900 393 857 427 793 c 1
 451 798 475 800 500 800 c 0xf4
 525 800 549 798 573 793 c 1
 607 857 673 900 750 900 c 0xec
 860 900 950 810 950 700 c 0xf410
 950 636 920 579 874 543 c 1
 891 498 900 450 900 400 c 0xf020
350 700 m 0xf5
 350 755 305 800 250 800 c 0xed
 195 800 150 755 150 700 c 0
 150 645 195 600 250 600 c 0
 305 600 350 645 350 700 c 0xf5
450 696 m 1
 448 587 359 500 250 500 c 0
 239 500 228 501 218 503 c 1
 206 471 200 436 200 400 c 0
 200 234 334 100 500 100 c 0
 666 100 800 234 800 400 c 0
 800 436 794 471 782 503 c 1
 772 501 761 500 750 500 c 0
 641 500 552 587 550 696 c 1
 534 699 517 700 500 700 c 0xf360
 483 700 466 699 450 696 c 1
750 600 m 0
 805 600 850 645 850 700 c 0xf050
 850 755 805 800 750 800 c 0xe850
 695 800 650 755 650 700 c 0
 650 645 695 600 750 600 c 0
EndSplineSet
Validated: 1
EndChar

StartChar: SP_MUN
Encoding: 59 989498 59
Width: 1000
Flags: W
HStem: 0 100<332.678 568.254> 800 100<332.678 568.254>
VStem: 252 100<347.995 552.005> 802 100<333.579 566.421>
LayerCount: 2
Fore
SplineSet
227 718 m 1
 303 654 352 558 352 450 c 0
 352 342 303 246 227 182 c 1
 288 131 366 100 452 100 c 0
 645 100 802 257 802 450 c 0
 802 643 645 800 452 800 c 0
 366 800 288 769 227 718 c 1
111 744 m 0
 194 840 316 900 452 900 c 0
 700 900 902 699 902 450 c 0
 902 201 700 0 452 0 c 0
 316 0 194 60 111 156 c 0
 103.176700169 164.605629814 99.0256415525 175.659420439 99.0256415525 187.246102268 c 0
 99.0256415525 208.273907241 108.462081519 223.731040759 125 232 c 0
 201 275 252 357 252 450 c 0
 252 543 201 625 124 668 c 0
 108.557682138 676.315094233 99.0256415525 691.907093899 99.0256415525 712.753897732 c 0
 99.0256415525 724.340579561 103.176700169 735.394370186 111 744 c 0
EndSplineSet
Validated: 1
EndChar

StartChar: SP_MUSI
Encoding: 60 989499 60
Width: 1000
Flags: W
HStem: 0 100<390.166 609.834> 500 100<214.821 310.473 689.527 785.179> 800 100<189.527 310.473 689.527 810.473>
VStem: 50 100<639.057 760.473> 100 100<290.166 501.826> 350 100<639.527 760.473> 550 100<639.527 760.473> 800 100<290.166 501.826> 850 100<639.057 760.473>
LayerCount: 2
Fore
SplineSet
250 500 m 0xf6
 239 500 228 501 218 503 c 1
 206 471 200 436 200 400 c 0
 200 234 334 100 500 100 c 0
 666 100 800 234 800 400 c 0xef
 800 436 794 471 782 503 c 1
 772 501 761 500 750 500 c 0
 640 500 550 590 550 700 c 0
 550 810 640 900 750 900 c 0
 860 900 950 810 950 700 c 0xe680
 950 636 920 579 874 543 c 1
 891 498 900 450 900 400 c 0
 900 179 721 0 500 0 c 0
 279 0 100 179 100 400 c 0xef
 100 450 109 498 126 543 c 1
 80 579 50 636 50 700 c 0
 50 810 140 900 250 900 c 0
 360 900 450 810 450 700 c 0
 450 590 360 500 250 500 c 0xf6
250 600 m 0
 305 600 350 645 350 700 c 0
 350 755 305 800 250 800 c 0
 195 800 150 755 150 700 c 0xf6
 150 645 195 600 250 600 c 0
850 700 m 0xe680
 850 755 805 800 750 800 c 0
 695 800 650 755 650 700 c 0
 650 645 695 600 750 600 c 0
 805 600 850 645 850 700 c 0xe680
EndSplineSet
Validated: 1
EndChar

StartChar: SP_MUTE
Encoding: 61 989500 61
Width: 1000
Flags: W
HStem: 0 21G<486 514>
VStem: 200 100<33.4375 866.562> 450 100<8.4375 891.562> 700 100<33.4375 866.562>
CounterMasks: 1 70
LayerCount: 2
Fore
SplineSet
750 25 m 0
 722 25 700 47 700 75 c 2
 700 75 700 825 700 825 c 2
 700 853 722 875 750 875 c 0
 778 875 800 853 800 825 c 2
 800 825 800 75 800 75 c 2
 800 47 778 25 750 25 c 0
500 0 m 0
 472 0 450 22 450 50 c 2
 450 50 450 850 450 850 c 2
 450 878 472 900 500 900 c 0
 528 900 550 878 550 850 c 2
 550 850 550 50 550 50 c 2
 550 22 528 0 500 0 c 0
250 25 m 0
 222 25 200 47 200 75 c 2
 200 75 200 825 200 825 c 2
 200 853 222 875 250 875 c 0
 278 875 300 853 300 825 c 2
 300 825 300 75 300 75 c 2
 300 47 278 25 250 25 c 0
EndSplineSet
Validated: 1
EndChar

StartChar: SP_NANPA
Encoding: 62 989501 62
Width: 1000
Flags: W
HStem: 0 21G<336 364 636 664> 250 100<58.4375 300 400 600 700 931.562> 550 100<68.4375 300 400 600 700 941.562>
VStem: 300 100<8.4375 250 350 550 650 891.562> 600 100<8.4375 250 350 550 650 881.562>
LayerCount: 2
Fore
SplineSet
940 300 m 0
 940 272 918 250 890 250 c 2
 890 250 700 250 700 250 c 1
 700 250 700 50 700 50 c 2
 700 22 678 0 650 0 c 0
 622 0 600 22 600 50 c 2
 600 50 600 250 600 250 c 1
 600 250 400 250 400 250 c 1
 400 250 400 50 400 50 c 2
 400 22 378 0 350 0 c 0
 322 0 300 22 300 50 c 2
 300 50 300 250 300 250 c 1
 300 250 100 250 100 250 c 2
 72 250 50 272 50 300 c 0
 50 328 72 350 100 350 c 2
 100 350 300 350 300 350 c 1
 300 350 300 550 300 550 c 1
 300 550 110 550 110 550 c 2
 82 550 60 572 60 600 c 0
 60 628 82 650 110 650 c 2
 110 650 300 650 300 650 c 1
 300 650 300 850 300 850 c 2
 300 878 322 900 350 900 c 0
 378 900 400 878 400 850 c 2
 400 850 400 650 400 650 c 1
 400 650 600 650 600 650 c 1
 600 650 600 840 600 840 c 2
 600 868 622 890 650 890 c 0
 678 890 700 868 700 840 c 2
 700 840 700 650 700 650 c 1
 700 650 900 650 900 650 c 2
 928 650 950 628 950 600 c 0
 950 572 928 550 900 550 c 2
 900 550 700 550 700 550 c 1
 700 550 700 350 700 350 c 1
 700 350 890 350 890 350 c 2
 918 350 940 328 940 300 c 0
600 550 m 1
 600 550 400 550 400 550 c 1
 400 550 400 350 400 350 c 1
 400 350 600 350 600 350 c 1
 600 550 l 1
EndSplineSet
Validated: 1
EndChar

StartChar: SP_NASA
Encoding: 63 989502 63
Width: 1000
Flags: W
HStem: 26 100<379.037 576.302> 224 100.982<423.974 539.18> 404 99.532<486.423 549.392> 581 83.9425<459.362 634.352> 779 100<417.498 677.886>
VStem: 95 100<329.278 557.598> 293 100<360 519.64> 553 100<340.777 400.464> 749 100<296.501 469.526>
LayerCount: 2
Fore
SplineSet
476.254579168 324.982136103 m 0
 521.100416739 324.982136103 553 346.811419547 553 380 c 0
 553 395.652475842 537.762432001 401.319652571 519 404 c 0
 494.917590551 407.567764363 477.199652376 428.63782473 477.199652376 452.308755795 c 0
 477.199652376 482.395997438 500.31727708 503.532046855 527.561029465 503.532046855 c 0
 626.231262429 503.532046855 653 454.268120235 653 387 c 0
 653 305 572 224 473 224 c 0
 361.537001655 224 293 338 293 446 c 0
 293 589.573031322 418.662774874 664.942471512 550.506301357 664.942471512 c 0
 695.99024112 664.942471512 849 573.170983241 849 380 c 0
 849 176 682.305320151 26 484 26 c 0
 271 26 95 204.720088774 95 421 c 0
 95 668 282.217575893 879 528 879 c 0
 708 879 933.242698269 774 933.242698269 677.844155991 c 0
 933.242698269 651.717089601 911.275826096 627.757301731 883.682437452 627.757301731 c 0
 847.344114628 627.757301731 847.241203465 648.607249258 815 680 c 0
 777 717 710 779 533 779 c 0
 347.932444767 779 195 628 195 447 c 0
 195 279.494776201 315 126 482 126 c 0
 626.006944277 126 749 273 749 381 c 0
 749 493.008928216 655.628849318 581 544 581 c 0
 451 581 393 524 393 444 c 0
 393 365.941009946 428.147478516 324.982136103 476.254579168 324.982136103 c 0
EndSplineSet
Validated: 1
EndChar

StartChar: SP_NASIN
Encoding: 64 989503 64
Width: 1000
Flags: W
HStem: 0 21G<486 514>
VStem: 450 100<8.4375 479 621 891.562>
LayerCount: 2
Fore
SplineSet
250 300 m 0
 223.59133899 300 200 323.581991343 200 350 c 0
 200 362.75 205 375.5 215 385 c 2
 215 385 450 621 450 621 c 1
 450 621 450 850 450 850 c 2
 450 878 472 900 500 900 c 0
 528 900 550 878 550 850 c 2
 550 850 550 621 550 621 c 1
 550 621 785 385 785 385 c 2
 795 375.5 800 362.75 800 350 c 0
 800 323.59133899 776.418008657 300 750 300 c 0
 737.25 300 724.5 305 715 315 c 2
 715 315 550 479 550 479 c 1
 550 479 550 50 550 50 c 2
 550 22 528 0 500 0 c 0
 472 0 450 22 450 50 c 2
 450 50 450 479 450 479 c 1
 450 479 285 315 285 315 c 2
 275.5 305 262.75 300 250 300 c 0
EndSplineSet
Validated: 1
EndChar

StartChar: SP_NENA
Encoding: 65 989504 65
Width: 1000
Flags: W
HStem: 0 21G<86 114 886 914> 800 100<383.579 616.421>
VStem: 50 100<8.4375 562.619> 850 100<8.4375 562.619>
LayerCount: 2
Fore
SplineSet
500 800 m 0
 307 800 150 643 150 450 c 2
 150 450 150 50 150 50 c 2
 150 22 128 0 100 0 c 0
 72 0 50 22 50 50 c 2
 50 50 50 450 50 450 c 2
 50 699 251 900 500 900 c 0
 749 900 950 699 950 450 c 2
 950 450 950 50 950 50 c 2
 950 22 928 0 900 0 c 0
 872 0 850 22 850 50 c 2
 850 50 850 450 850 450 c 2
 850 643 693 800 500 800 c 0
EndSplineSet
Validated: 1
EndChar

StartChar: SP_NI
Encoding: 66 989505 66
Width: 1000
Flags: W
HStem: 0 21G<492.677 507.321>
VStem: 450 100<171 891.562>
LayerCount: 2
Fore
SplineSet
200 300 m 0
 200 326.40866101 223.581991343 350 250 350 c 0
 262.75 350 275.5 345 285 335 c 2
 285 335 450 171 450 171 c 1
 450 171 450 850 450 850 c 2
 450 878 472 900 500 900 c 0
 528 900 550 878 550 850 c 2
 550 850 550 171 550 171 c 1
 550 171 715 335 715 335 c 2
 724.5 345 737.25 350 750 350 c 0
 776.40866101 350 800 326.418008657 800 300 c 0
 800 287.25 795 274.5 785 265 c 2
 785 265 535 15 535 15 c 1
 527.833829879 6.04228734862 514.641418109 0 500 0 c 0
 485.354388772 0 472.164552064 6.04430991975 465 15 c 1
 465 15 215 265 215 265 c 2
 205 274.5 200 287.25 200 300 c 0
EndSplineSet
Validated: 1
EndChar

StartChar: SP_NIMI
Encoding: 67 989506 67
Width: 1000
Flags: W
HStem: 200 100<198.081 801.919> 600 100<198.081 801.919>
VStem: 50 100<348.081 551.919> 850 100<348.081 551.919>
LayerCount: 2
Fore
SplineSet
261 200 m 2
 144 200 50 294 50 411 c 2
 50 411 50 489 50 489 c 2
 50 606 144 700 261 700 c 2
 261 700 739 700 739 700 c 2
 856 700 950 606 950 489 c 2
 950 489 950 411 950 411 c 2
 950 294 856 200 739 200 c 2
 261 200 l 2
150 411 m 2
 150 350 200 300 261 300 c 2
 261 300 739 300 739 300 c 2
 800 300 850 350 850 411 c 2
 850 411 850 489 850 489 c 2
 850 550 800 600 739 600 c 2
 739 600 261 600 261 600 c 2
 200 600 150 550 150 489 c 2
 150 411 l 2
EndSplineSet
Validated: 1
EndChar

StartChar: SP_NOKA
Encoding: 68 989507 68
Width: 1000
Flags: W
HStem: 0 100<200 759.304> 300 100<500 759.304>
VStem: 100 100<100 891.562> 400 100<400 891.562> 800 100<139.527 260.473>
LayerCount: 2
Fore
SplineSet
150 900 m 0
 178 900 200 878 200 850 c 2
 200 850 200 100 200 100 c 1
 200 100 700 100 700 100 c 2
 755 100 800 145 800 200 c 0
 800 255 755 300 700 300 c 2
 700 300 450 300 450 300 c 2
 422 300 400 322 400 350 c 2
 400 350 400 850 400 850 c 2
 400 878 422 900 450 900 c 0
 478 900 500 878 500 850 c 2
 500 850 500 400 500 400 c 1
 500 400 700 400 700 400 c 2
 810 400 900 310 900 200 c 0
 900 90 810 0 700 0 c 2
 700 0 150 0 150 0 c 2
 122 0 100 22 100 50 c 2
 100 50 100 850 100 850 c 2
 100 878 122 900 150 900 c 0
EndSplineSet
Validated: 1
EndChar

StartChar: SP_O
Encoding: 69 989508 69
Width: 1000
Flags: W
HStem: 0 100<439.527 560.473> 300 100<439.527 560.473>
VStem: 300 100<139.527 260.473> 450 100<458.438 891.562> 600 100<139.527 260.473>
CounterMasks: 1 38
LayerCount: 2
Fore
SplineSet
500 0 m 0
 390 0 300 90 300 200 c 0
 300 310 390 400 500 400 c 0
 610 400 700 310 700 200 c 0
 700 90 610 0 500 0 c 0
500 100 m 0
 555 100 600 145 600 200 c 0
 600 255 555 300 500 300 c 0
 445 300 400 255 400 200 c 0
 400 145 445 100 500 100 c 0
500 900 m 0
 528 900 550 878 550 850 c 2
 550 850 550 500 550 500 c 2
 550 472 528 450 500 450 c 0
 472 450 450 472 450 500 c 2
 450 500 450 850 450 850 c 2
 450 878 472 900 500 900 c 0
EndSplineSet
Validated: 1
EndChar

StartChar: SP_OLIN
Encoding: 70 989509 70
Width: 1000
Flags: W
HStem: -0.25 109.148<471.968 529.311> 600 100<216.126 381.117 618.884 783.874> 817 83<257.607 407.629 592.367 742.393>
VStem: 50 100<414.25 540.038> 125 83<687.277 770.113> 451 98<479.671 541.597> 459 82<714.092 773.613> 792 83<687.277 770.113> 850 100<414.25 540.038>
LayerCount: 2
Fore
SplineSet
500 828 m 1xe8
 537.816182607 865.816182607 594.305652603 900 667 900 c 0
 775 900 875 823 875 716 c 0xe9
 875 693 869 670 860 649 c 1
 914 609 950 550 950 479 c 0
 950 418 916 359 877 309 c 0
 805.509804607 216.062745989 682.001536032 115.948459812 592 52 c 0
 570 37 549 22 527 8 c 0
 519 2.5 509.5 -0.25 500 -0.25 c 0
 490.5 -0.25 481 2.5 473 8 c 0
 397.253407068 56.2023773201 346.570780165 94.6708783217 267 162 c 0
 216 206 163 257 123 309 c 0
 84 359 50 418 50 479 c 0xf080
 50 550 86 609 140 649 c 1
 131 670 125 693 125 716 c 0
 125 823 225 900 333 900 c 0
 405.679716345 900 462.196998962 865.803001038 500 828 c 1xe8
500 710 m 0
 474.712405689 710 467.267207295 725.46558541 459 742 c 0
 459 744 457 749 450 758 c 0
 429.293256803 789.060114795 380.979286183 817 333 817 c 0
 258 817 208 766 208 716 c 0
 208 707 210 698 215 687 c 1
 242 695 271 700 300 700 c 0
 368 700 426 673 468 641 c 0
 480 632 491 623 500 613 c 0
 501.294735026 611.561405526 502.630861134 610.929937136 504.005401074 610.929937136 c 0
 512.185603383 610.929937136 521.726313369 633.294735026 532 641 c 0
 574 673 632 700 700 700 c 0
 729 700 758 695 785 687 c 1
 790 698 792 707 792 716 c 0
 792 766 742 817 667 817 c 0
 618.982417679 817 570.726021577 789.089032365 550 758 c 0
 543 749 541 744 541 742 c 0xeb
 532.725235461 725.450470921 525.30512496 710 500 710 c 0
300 600 m 0
 210 600 150 539 150 479 c 0
 150 453 166 416 202 370 c 0
 266.282749972 289.187400035 384.801707882 191.760962029 467 134 c 0
 479 124 491 116 500 110 c 0
 501.138097353 109.241268432 502.324167505 108.898301125 503.552144043 108.898301125 c 0
 512.034926274 108.898301125 522.517463137 125.264552614 533 134 c 0
 615.073412795 191.673208991 733.813071201 289.307860938 798 370 c 0
 834 416 850 453 850 479 c 0
 850 539 790 600 700 600 c 0
 639.584599611 600 588.523409111 565.654261389 560 530 c 0
 552 519 549 512 549 510 c 0
 548 508 548 506 547 504 c 0
 540.697788115 487.614249098 522.677881557 471 500 471 c 0
 477.32048603 471 459.297515114 487.626460703 453 504 c 0
 452 506 452 508 451 510 c 0xf480
 451 512 448 519 440 530 c 0
 411.513178467 565.608526916 360.385216904 600 300 600 c 0
EndSplineSet
Validated: 1
EndChar

StartChar: SP_ONA
Encoding: 71 989510 71
Width: 1000
Flags: W
HStem: 150 100<58.4375 426 559.151 739.328> 650 100<559.912 740.088>
VStem: 350 100<359.722 540.088> 850 100<359.912 540.088>
LayerCount: 2
Fore
SplineSet
650 150 m 2
 650 150 100 150 100 150 c 2
 72 150 50 172 50 200 c 0
 50 228 72 250 100 250 c 2
 100 250 426 250 426 250 c 1
 379 303 350 373 350 450 c 0
 350 616 484 750 650 750 c 0
 816 750 950 616 950 450 c 0
 950 284 816 150 650 150 c 2
650 250 m 0
 760 250 850 340 850 450 c 0
 850 560 760 650 650 650 c 0
 540 650 450 560 450 450 c 0
 450 340 540 250 650 250 c 0
EndSplineSet
Validated: 1
EndChar

StartChar: SP_OPEN
Encoding: 72 989511 72
Width: 1000
Flags: W
HStem: 0 100<150 850> 200 100<150 850>
VStem: 50 100<100 200 300 891.562> 850 100<100 200 300 891.562>
LayerCount: 2
Fore
SplineSet
150 850 m 2
 150 850 150 300 150 300 c 1
 150 300 850 300 850 300 c 1
 850 300 850 850 850 850 c 2
 850 878 872 900 900 900 c 0
 928 900 950 878 950 850 c 2
 950 850 950 50 950 50 c 2
 950 22 928 0 900 0 c 2
 900 0 100 0 100 0 c 2
 72 0 50 22 50 50 c 2
 50 50 50 850 50 850 c 2
 50 878 72 900 100 900 c 0
 128 900 150 878 150 850 c 2
150 200 m 1
 150 200 150 100 150 100 c 1
 150 100 850 100 850 100 c 1
 850 100 850 200 850 200 c 1
 150 200 l 1
EndSplineSet
Validated: 1
EndChar

StartChar: SP_PAKALA
Encoding: 73 989512 73
Width: 1000
Flags: W
HStem: 0 100<250 343 462 750> 400 100<462 538> 800 100<250 538 657 750>
VStem: 150 100<100 800> 750 100<100 800>
CounterMasks: 1 e0
LayerCount: 2
Fore
SplineSet
200 900 m 2
 200 900 800 900 800 900 c 2
 828 900 850 878 850 850 c 2
 850 850 850 50 850 50 c 2
 850 22 828 0 800 0 c 2
 800 0 200 0 200 0 c 2
 172 0 150 22 150 50 c 2
 150 50 150 850 150 850 c 2
 150 878 172 900 200 900 c 2
370 400 m 2
 344.746848243 400 319.830653421 420.520388625 319.830653421 449.775597782 c 0
 319.830653421 459.36352085 322.606079858 468.909119787 328 477 c 2
 328 477 538 800 538 800 c 1
 538 800 250 800 250 800 c 1
 250 100 l 1
 250 100 343 100 343 100 c 1
 343 100 538 400 538 400 c 1
 538 400 370 400 370 400 c 2
630 500 m 2
 655.253151757 500 680.169346579 479.479611375 680.169346579 450.224402218 c 0
 680.169346579 440.63647915 677.393920142 431.090880213 672 423 c 2
 462 100 l 1
 462 100 750 100 750 100 c 1
 750 100 750 800 750 800 c 1
 750 800 657 800 657 800 c 1
 657 800 462 500 462 500 c 1
 462 500 630 500 630 500 c 2
EndSplineSet
Validated: 1
EndChar

StartChar: SP_PALI
Encoding: 74 989513 74
Width: 1000
Flags: W
HStem: 0.320443 20.6796G<189.261 214.448 786 814> 350 100<416.429 583.571> 800 100<417.304 582.696>
VStem: 225 100<542.292 707.696> 675 100<542.292 707.696> 750 100<8.4375 222.564>
LayerCount: 2
Fore
SplineSet
50.2699209598 350.222663874 m 0xf4
 50.2699209598 375.818052706 70.0065024801 399.73007904 100.222663874 399.73007904 c 0
 121.045890611 399.73007904 140.64622447 386.649770472 147 366 c 2
 147 366 180 267 180 267 c 1
 211 328 263 378 328 410 c 1
 265 461 225 538 225 625 c 0
 225 777 348 900 500 900 c 0
 652 900 775 777 775 625 c 0xf8
 775 538 735 461 672 410 c 1
 778 357 850 257 850 140 c 2
 850 140 850 50 850 50 c 2
 850 22 828 0 800 0 c 0
 772 0 750 22 750 50 c 2
 750 50 750 140 750 140 c 2
 750 247 648 350 500 350 c 0
 352 350 250 247 250 140 c 2
 250 140 250 50 250 50 c 2
 250 23.1643413354 229.106812105 0.320442677496 199.789942218 0.320442677496 c 0
 178.732082781 0.320442677496 159.199326582 13.6307840872 153 34 c 2
 153 34 53 334 53 334 c 2
 51.1479974709 339.350229528 50.2699209598 344.827492885 50.2699209598 350.222663874 c 0xf4
500 450 m 0
 597 450 675 528 675 625 c 0
 675 722 597 800 500 800 c 0
 403 800 325 722 325 625 c 0
 325 528 403 450 500 450 c 0
EndSplineSet
Validated: 1
EndChar

StartChar: SP_PALISA
Encoding: 75 989514 75
Width: 1000
Flags: W
HStem: 0 100<440.765 561.235> 800 100<440.765 561.235>
VStem: 302 100<139.788 760.212> 600 100<139.788 760.212>
LayerCount: 2
Fore
SplineSet
302 701 m 2
 302 811 391 900 501 900 c 0
 611 900 700 811 700 701 c 2
 700 701 700 199 700 199 c 2
 700 89 611 0 501 0 c 0
 391 0 302 89 302 199 c 2
 302 701 l 2
501 800 m 0
 446 800 402 756 402 701 c 2
 402 701 402 199 402 199 c 2
 402 144 446 100 501 100 c 0
 556 100 600 144 600 199 c 2
 600 199 600 701 600 701 c 2
 600 756 556 800 501 800 c 0
EndSplineSet
Validated: 1
EndChar

StartChar: SP_PAN
Encoding: 76 989515 76
Width: 1000
Flags: W
HStem: 0 21G<493.625 506.375>
LayerCount: 2
Fore
SplineSet
200 850 m 0
 200 876.40866101 223.581991343 900 250 900 c 0
 262.75 900 275.5 895 285 885 c 2
 285 885 500 671 500 671 c 1
 500 671 715 885 715 885 c 2
 724.5 895 737.25 900 750 900 c 0
 776.40866101 900 800 876.418008657 800 850 c 0
 800 837.25 795 824.5 785 815 c 2
 785 815 535 565 535 565 c 2
 525.5 555 512.75 550 500 550 c 0
 487.25 550 474.5 555 465 565 c 2
 465 565 215 815 215 815 c 2
 205 824.5 200 837.25 200 850 c 0
200 575 m 0
 200 601.40866101 223.581991343 625 250 625 c 0
 262.75 625 275.5 620 285 610 c 2
 285 610 500 396 500 396 c 1
 500 396 715 610 715 610 c 2
 724.5 620 737.25 625 750 625 c 0
 776.40866101 625 800 601.418008657 800 575 c 0
 800 562.25 795 549.5 785 540 c 2
 785 540 535 290 535 290 c 2
 525.5 280 512.75 275 500 275 c 0
 487.25 275 474.5 280 465 290 c 2
 465 290 215 540 215 540 c 2
 205 549.5 200 562.25 200 575 c 0
200 300 m 0
 200 326.40866101 223.581991343 350 250 350 c 0
 262.75 350 275.5 345 285 335 c 2
 285 335 500 121 500 121 c 1
 500 121 715 335 715 335 c 2
 724.5 345 737.25 350 750 350 c 0
 776.40866101 350 800 326.418008657 800 300 c 0
 800 287.25 795 274.5 785 265 c 2
 785 265 535 15 535 15 c 2
 525.5 5 512.75 0 500 0 c 0
 487.25 0 474.5 5 465 15 c 2
 465 15 215 265 215 265 c 2
 205 274.5 200 287.25 200 300 c 0
EndSplineSet
Validated: 1
EndChar

StartChar: SP_PANA
Encoding: 77 989516 77
Width: 1000
Flags: W
HStem: 0.166647 20.8334G<290.731 314.574 886 914> 598 100<503.504 696.496> 698.922 152.157<370.656 432.231 770.053 831.965> 750 150<559.701 642.562>
VStem: 250 100<237 443.711> 342.477 117.032<732.09 818.387> 551 100<759.117 890.883> 742.023 117.361<731.563 816.58> 850 100<8.4375 443.711>
LayerCount: 2
Fore
SplineSet
50.1111111111 398.444444444 m 0xca80
 50.1111111111 423.548675911 69.7863874403 448.192840444 99.5155209345 448.192840444 c 0
 117.090434625 448.192840444 134.184129483 439.275453262 143 423 c 2
 143 423 250 237 250 237 c 1
 250 237 250 348 250 348 c 2
 250 541 407 698 600 698 c 0
 793 698 950 541 950 348 c 2
 950 348 950 50 950 50 c 2
 950 22 928 0 900 0 c 0
 872 0 850 22 850 50 c 2
 850 50 850 348 850 348 c 2
 850 486 738 598 600 598 c 0
 462 598 350 486 350 348 c 2
 350 348 350 50 350 50 c 2
 350 23.5981359299 329.73402427 0.16664717121 299.414058204 0.16664717121 c 0
 282.048084334 0.16664717121 265.737978917 9.11276560621 257 25 c 2
 257 25 57 373 57 373 c 2
 52.3333333333 381 50.1111111111 389.777777778 50.1111111111 398.444444444 c 0xca80
601 900 m 0xd2
 629 900 651 878 651 850 c 2
 651 850 651 800 651 800 c 2
 651 772 629 750 601 750 c 0
 574 750 551 772 551 800 c 2
 551 800 551 850 551 850 c 2
 551 878 574 900 601 900 c 0xd2
808.759765203 851.078266221 m 0xe3
 839.604805795 851.078266221 859.383737132 822.615714495 859.383737132 797.767290573 c 0
 859.383737132 791.766927252 858.3004641 785.751160249 856 780 c 2
 856 780 837 730 837 730 c 2
 829.515065163 710.539169424 811.385522918 698.921733779 792.256143975 698.921733779 c 0
 760.952866617 698.921733779 742.023170911 727.580870527 742.023170911 753.18689358 c 0
 742.023170911 759.160526 742.985544301 765.180461315 745 771 c 2
 745 771 765 820 765 820 c 1
 771.736441353 839.460830576 789.67773261 851.078266221 808.759765203 851.078266221 c 0xe3
342.477118591 798.464055095 m 0xe6
 342.477118591 823.49835984 361.781525774 851.078266221 392.678857889 851.078266221 c 0
 411.945765413 851.078266221 429.515065163 839.460830576 437 820 c 2
 437 820 456 771 456 771 c 2
 458.375310947 764.824191537 459.509359433 758.422698991 459.509359433 752.090360792 c 0
 459.509359433 727.101319036 440.036559225 698.921733779 408.901804254 698.921733779 c 0
 390.054234587 698.921733779 372.484934837 710.539169424 365 730 c 2
 365 730 346 780 346 780 c 2
 343.610481379 785.973796552 342.477118591 792.233083066 342.477118591 798.464055095 c 0xe6
EndSplineSet
Validated: 1
EndChar

StartChar: SP_PI
Encoding: 78 989517 78
Width: 1000
Flags: W
HStem: 50 100<200 891.562>
VStem: 100 100<150 841.562>
LayerCount: 2
Fore
SplineSet
150 850 m 0
 178 850 200 828 200 800 c 2
 200 800 200 150 200 150 c 1
 200 150 850 150 850 150 c 2
 878 150 900 128 900 100 c 0
 900 72 878 50 850 50 c 2
 850 50 150 50 150 50 c 2
 122 50 100 72 100 100 c 2
 100 100 100 800 100 800 c 2
 100 828 122 850 150 850 c 0
EndSplineSet
Validated: 1
EndChar

StartChar: SP_PILIN
Encoding: 79 989518 79
Width: 1000
Flags: W
HStem: 50.25 111.728<475.147 525.591> 60 101.978<475.083 499.508 500.492 525.505> 750 100<223.917 374.245 626.312 776.083>
VStem: 50 100<521.52 676.083> 850 100<521.52 676.083>
LayerCount: 2
Fore
SplineSet
469 61 m 2x78
 464.317548912 65.6824510877 459.968503592 68.6876642719 452 74 c 0
 389.851046601 124.84914369 335.297977913 168.323630363 265 240 c 0
 213 291 161 350 121 410 c 0
 82 469 50 535 50 600 c 0
 50 738 162 850 300 850 c 0
 371 850 430 818 471 781 c 0
 479.637957167 773.225838549 488.275914335 749.036530213 496.26935634 749.036530213 c 0
 497.529771295 749.036530213 498.774161451 749.637957167 500 751 c 0
 542.261604783 802.653072513 611.828671841 850 700 850 c 0
 838 850 950 738 950 600 c 0
 950 535 918 469 879 410 c 0
 808.501204069 304.251806103 685.758291679 186.039659001 595 112 c 0
 568.304363307 90.6434906458 555.503467635 77.6689784231 535 64 c 0
 533 63 532 62 531 61 c 2
 531 61 531 60 530 60 c 0x78
 521 53.5 510.5 50.25 500 50.25 c 0xb8
 489.5 50.25 479 53.5 470 60 c 0
 469 60 469 61 469 61 c 2x78
300 750 m 0
 217 750 150 683 150 600 c 0
 150 565 168 519 204 465 c 0
 239 413 287 359 335 310 c 0
 384 262 433 219 470 188 c 0
 481 179 491 170 500 163 c 0
 501.054794071 162.296803953 502.123323828 161.978207102 503.20558927 161.978207102 c 0xb8
 511.35772251 161.978207102 520.289192754 180.054794071 530 188 c 0
 567 219 616 262 665 310 c 0
 713 359 761 413 796 465 c 0
 832 519 850 565 850 600 c 0
 850 683 783 750 700 750 c 0
 660 750 624 732 596 706 c 0
 566 680 551 651 549 640 c 0
 544 617 524 600 500 600 c 0
 476 600 456 617 451 640 c 0
 449 651 434 680 404 706 c 0
 376 732 340 750 300 750 c 0
EndSplineSet
Validated: 1
EndChar

StartChar: SP_PIMEJA
Encoding: 80 989519 80
Width: 1000
Flags: W
HStem: 50 100<197 271 386 613 729 803>
LayerCount: 2
Fore
SplineSet
110 50 m 2
 84.2661434337 50 60.25 71.1008464233 60.25 100 c 0
 60.25 108.75 62.5 117.5 67 125 c 2
 67 125 457 800 457 800 c 2
 466 815 482 825 500 825 c 0
 518 825 534 815 543 800 c 2
 543 800 933 125 933 125 c 2
 937.5 117.5 939.75 108.75 939.75 100 c 0
 939.75 71.114426727 915.727800999 50 890 50 c 2
 890 50 110 50 110 50 c 2
271 150 m 1
 271 150 442 447 442 447 c 1
 442 447 405 511 405 511 c 1
 405 511 197 150 197 150 c 1
 271 150 l 1
386 150 m 1
 386 150 613 150 613 150 c 1
 613 150 500 347 500 347 c 1
 386 150 l 1
729 150 m 1
 729 150 803 150 803 150 c 1
 803 150 595 511 595 511 c 1
 595 511 558 447 558 447 c 1
 729 150 l 1
537 611 m 1
 537 611 500 675 500 675 c 1
 500 675 463 611 463 611 c 1
 463 611 500 547 500 547 c 1
 537 611 l 1
EndSplineSet
Validated: 1
EndChar

StartChar: SP_PINI
Encoding: 81 989520 81
Width: 1000
Flags: W
HStem: 0 100<58.4375 450 550 941.562> 800 100<58.4375 450 550 941.562>
VStem: 450 100<100 800>
LayerCount: 2
Fore
SplineSet
550 800 m 1
 550 800 550 100 550 100 c 1
 550 100 900 100 900 100 c 2
 928 100 950 78 950 50 c 0
 950 22 928 0 900 0 c 2
 900 0 100 0 100 0 c 2
 72 0 50 22 50 50 c 0
 50 78 72 100 100 100 c 2
 100 100 450 100 450 100 c 1
 450 100 450 800 450 800 c 1
 450 800 100 800 100 800 c 2
 72 800 50 822 50 850 c 0
 50 878 72 900 100 900 c 2
 100 900 900 900 900 900 c 2
 928 900 950 878 950 850 c 0
 950 822 928 800 900 800 c 2
 550 800 l 1
EndSplineSet
Validated: 1
EndChar

StartChar: SP_PIPI
Encoding: 82 989521 82
Width: 1000
Flags: W
HStem: 0 21G<486 514> 100 100<83.4375 450 550 916.562> 300 100<58.4375 450 550 941.562> 500 100<88.4375 450 550 921.562> 750 150<273.417 376.583 623.417 726.583>
VStem: 250 150<773.417 876.583> 450 100<8.4375 100 200 300 400 500 600 741.562> 600 150<773.417 876.583>
CounterMasks: 1 07
LayerCount: 2
Fore
SplineSet
325 750 m 0
 284 750 250 784 250 825 c 0
 250 866 284 900 325 900 c 0
 366 900 400 866 400 825 c 0
 400 784 366 750 325 750 c 0
80 550 m 0
 80 578 102 600 130 600 c 2
 130 600 450 600 450 600 c 1
 450 600 450 700 450 700 c 2
 450 728 472 750 500 750 c 0
 528 750 550 728 550 700 c 2
 550 700 550 600 550 600 c 1
 550 600 880 600 880 600 c 2
 908 600 930 578 930 550 c 0
 930 522 908 500 880 500 c 2
 880 500 550 500 550 500 c 1
 550 500 550 400 550 400 c 1
 550 400 900 400 900 400 c 2
 928 400 950 378 950 350 c 0
 950 322 928 300 900 300 c 2
 900 300 550 300 550 300 c 1
 550 300 550 200 550 200 c 1
 550 200 875 200 875 200 c 2
 903 200 925 178 925 150 c 0
 925 122 903 100 875 100 c 2
 875 100 550 100 550 100 c 1
 550 100 550 50 550 50 c 2
 550 22 528 0 500 0 c 0
 472 0 450 22 450 50 c 2
 450 50 450 100 450 100 c 1
 450 100 125 100 125 100 c 2
 97 100 75 122 75 150 c 0
 75 178 97 200 125 200 c 2
 125 200 450 200 450 200 c 1
 450 200 450 300 450 300 c 1
 450 300 100 300 100 300 c 2
 72 300 50 322 50 350 c 0
 50 378 72 400 100 400 c 2
 100 400 450 400 450 400 c 1
 450 400 450 500 450 500 c 1
 450 500 130 500 130 500 c 2
 102 500 80 522 80 550 c 0
750 825 m 0
 750 784 716 750 675 750 c 0
 634 750 600 784 600 825 c 0
 600 866 634 900 675 900 c 0
 716 900 750 866 750 825 c 0
EndSplineSet
Validated: 1
EndChar

StartChar: SP_POKA
Encoding: 83 989522 83
Width: 1000
Flags: W
HStem: 125 100<150 650> 375 150<823.417 926.583>
VStem: 50 100<225 766.562> 650 100<225 766.562> 800 150<398.417 501.583>
LayerCount: 2
Fore
SplineSet
100 775 m 0
 128 775 150 753 150 725 c 2
 150 725 150 225 150 225 c 1
 150 225 650 225 650 225 c 1
 650 225 650 725 650 725 c 2
 650 753 672 775 700 775 c 0
 728 775 750 753 750 725 c 2
 750 725 750 175 750 175 c 2
 750 147 728 125 700 125 c 2
 700 125 100 125 100 125 c 2
 72 125 50 147 50 175 c 2
 50 175 50 725 50 725 c 2
 50 753 72 775 100 775 c 0
950 450 m 0
 950 409 916 375 875 375 c 0
 834 375 800 409 800 450 c 0
 800 491 834 525 875 525 c 0
 916 525 950 491 950 450 c 0
EndSplineSet
Validated: 1
EndChar

StartChar: SP_POKI
Encoding: 84 989523 84
Width: 1000
Flags: W
HStem: 0 100<150 850>
VStem: 50 100<100 891.562> 850 100<100 891.562>
LayerCount: 2
Fore
SplineSet
100 900 m 0
 128 900 150 878 150 850 c 2
 150 850 150 100 150 100 c 1
 150 100 850 100 850 100 c 1
 850 100 850 850 850 850 c 2
 850 878 872 900 900 900 c 0
 928 900 950 878 950 850 c 2
 950 850 950 50 950 50 c 2
 950 22 928 0 900 0 c 2
 900 0 100 0 100 0 c 2
 72 0 50 22 50 50 c 2
 50 50 50 850 50 850 c 2
 50 878 72 900 100 900 c 0
EndSplineSet
Validated: 1
EndChar

StartChar: SP_PONA
Encoding: 85 989524 85
Width: 1000
Flags: W
HStem: 200 100<383.579 616.421>
VStem: 50 100<537.381 691.562> 850 100<537.381 691.562>
LayerCount: 2
Fore
SplineSet
500 300 m 0
 693 300 850 457 850 650 c 0
 850 678 872 700 900 700 c 0
 928 700 950 678 950 650 c 0
 950 401 749 200 500 200 c 0
 251 200 50 401 50 650 c 0
 50 678 72 700 100 700 c 0
 128 700 150 678 150 650 c 0
 150 457 307 300 500 300 c 0
EndSplineSet
Validated: 1
EndChar

StartChar: SP_PU
Encoding: 86 989525 86
Width: 1000
Flags: W
HStem: 0 100<250 750> 150 60<419.923 580.077> 250 60<449.259 550.741> 550 60<419.923 580.077> 634 121<476.214 526.785> 800 100<250 750>
VStem: 150 100<100 800> 270 60<299.923 460.077> 370 60<329.312 408.894> 476 51<634.416 754.616> 570 60<329.312 408.894> 670 60<299.923 460.077> 750 100<100 800>
LayerCount: 2
Fore
SplineSet
150 850 m 2
 150 878 172 900 200 900 c 2
 200 900 800 900 800 900 c 2
 828 900 850 878 850 850 c 2
 850 850 850 50 850 50 c 2
 850 22 828 0 800 0 c 2
 800 0 200 0 200 0 c 2
 172 0 150 22 150 50 c 2
 150 850 l 2
250 800 m 1
 250 800 250 100 250 100 c 1
 250 100 750 100 750 100 c 1
 750 100 750 800 750 800 c 1
 250 800 l 1
670 380 m 0
 670 474 594 550 500 550 c 0
 406 550 330 474 330 380 c 0
 330 286 406 210 500 210 c 0
 594 210 670 286 670 380 c 0
500 150 m 0
 373 150 270 253 270 380 c 0
 270 507 373 610 500 610 c 0
 627 610 730 507 730 380 c 0
 730 253 627 150 500 150 c 0
570 380 m 0
 570 397 583 410 600 410 c 0
 617 410 630 397 630 380 c 0
 630 308 572 250 500 250 c 0
 428 250 370 308 370 380 c 0
 370 397 383 410 400 410 c 0
 417 410 430 397 430 380 c 0
 430 341 461 310 500 310 c 0
 539 310 570 341 570 380 c 0
275.5 660 m 0
 275.5 673.278557714 286.284492869 684.75 300.125 684.75 c 0
 306.5 684.75 313 682.5 318 678 c 2
 318 678 368 628 368 628 c 2
 373 623 375.5 616.5 375.5 610 c 0
 375.5 596.516428848 364.181406754 585.25 350.5 585.25 c 0
 344.25 585.25 338 587.5 333 592 c 2
 333 592 283 642 283 642 c 2
 278 647 275.5 653.5 275.5 660 c 0
651.875 585.25 m 0
 637.955889113 585.25 626.5 596.304414461 626.5 610 c 0
 626.5 616.5 629 623 634 628 c 2
 634 628 684 678 684 678 c 2
 689 682.5 695.5 684.75 702 684.75 c 0
 716.147260848 684.75 726.75 674.158971737 726.75 660 c 0
 726.75 653.5 724.5 647 720 642 c 2
 720 642 669 592 669 592 c 2
 664.5 587.5 658.25 585.25 651.875 585.25 c 0
501 755 m 0
 515 755 527 744 527 730 c 2
 527 730 527 659 527 659 c 2
 527 646 515 634 501 634 c 0
 488 634 476 646 476 659 c 2
 476 659 476 730 476 730 c 2
 476 744 488 755 501 755 c 0
EndSplineSet
Validated: 1
EndChar

StartChar: SP_SAMA
Encoding: 87 989526 87
Width: 1000
Flags: W
HStem: 150 100<58.4375 941.562> 650 100<58.4375 941.562>
LayerCount: 2
Fore
SplineSet
950 700 m 0
 950 672 928 650 900 650 c 2
 900 650 100 650 100 650 c 2
 72 650 50 672 50 700 c 0
 50 728 72 750 100 750 c 2
 100 750 900 750 900 750 c 2
 928 750 950 728 950 700 c 0
950 200 m 0
 950 172 928 150 900 150 c 2
 900 150 100 150 100 150 c 2
 72 150 50 172 50 200 c 0
 50 228 72 250 100 250 c 2
 100 250 900 250 900 250 c 2
 928 250 950 228 950 200 c 0
EndSplineSet
Validated: 1
EndChar

StartChar: SP_SELI
Encoding: 88 989527 88
Width: 1000
Flags: W
HStem: 0 150<448.417 551.583>
VStem: 425 150<23.4173 126.583> 450 100<308.438 891.562>
LayerCount: 2
Fore
SplineSet
575 75 m 0xc0
 575 34 541 0 500 0 c 0
 459 0 425 34 425 75 c 0
 425 116 459 150 500 150 c 0
 541 150 575 116 575 75 c 0xc0
500 900 m 0
 528 900 550 878 550 850 c 2
 550 850 550 350 550 350 c 2
 550 322 528 300 500 300 c 0
 472 300 450 322 450 350 c 2
 450 350 450 850 450 850 c 2xa0
 450 878 472 900 500 900 c 0
849.846905411 826.86908115 m 0
 879.963639668 826.86908115 900.259390684 801.744278953 900.259390684 776.289431426 c 0
 900.259390684 769.471184061 898.88784548 762.563285181 896 756 c 2
 896 756 684 303 684 303 c 2
 676.033207798 284.893654087 658.100086822 274.13091885 639.318302567 274.13091885 c 0
 609.556776496 274.13091885 589.13091885 298.491850736 589.13091885 323.681697433 c 0
 589.13091885 330.832512093 590.691046038 338.106345913 594 345 c 2
 594 345 805 798 805 798 c 2
 813.691046038 816.106345913 831.299333612 826.86908115 849.846905411 826.86908115 c 0
100.13091885 777.318302567 m 0
 100.13091885 802.510859506 120.530998294 826.86908115 150.318302567 826.86908115 c 0
 169.100086822 826.86908115 187.033207798 816.106345913 195 798 c 2
 195 798 407 345 407 345 c 2
 409.88784548 338.436714819 411.259390684 331.528815939 411.259390684 324.710568574 c 0
 411.259390684 299.252305642 390.990453978 274.13091885 360.846905411 274.13091885 c 0
 342.299333612 274.13091885 324.691046038 284.893654087 316 303 c 2
 316 303 105 756 105 756 c 2
 101.691046038 762.893654087 100.13091885 770.167487907 100.13091885 777.318302567 c 0
EndSplineSet
Validated: 1
EndChar

StartChar: SP_SELO
Encoding: 89 989528 89
Width: 1000
Flags: W
HStem: 0 21G<86 114 886 914> 800 100<150 250 350 650 750 850>
VStem: 50 100<8.4375 800> 250 100<58.4375 800> 650 100<58.4375 800> 850 100<8.4375 800>
LayerCount: 2
Fore
SplineSet
100 0 m 0
 72 0 50 22 50 50 c 2
 50 50 50 850 50 850 c 2
 50 878 72 900 100 900 c 2
 100 900 900 900 900 900 c 2
 928 900 950 878 950 850 c 2
 950 850 950 50 950 50 c 2
 950 22 928 0 900 0 c 0
 872 0 850 22 850 50 c 2
 850 50 850 800 850 800 c 1
 850 800 750 800 750 800 c 1
 750 800 750 100 750 100 c 2
 750 72 728 50 700 50 c 0
 672 50 650 72 650 100 c 2
 650 100 650 800 650 800 c 1
 650 800 350 800 350 800 c 1
 350 800 350 100 350 100 c 2
 350 72 328 50 300 50 c 0
 272 50 250 72 250 100 c 2
 250 100 250 800 250 800 c 1
 250 800 150 800 150 800 c 1
 150 800 150 50 150 50 c 2
 150 22 128 0 100 0 c 0
EndSplineSet
Validated: 1
EndChar

StartChar: SP_SEME
Encoding: 90 989529 90
Width: 1000
Flags: W
HStem: 0 150<448.417 551.583> 800 100<358.542 641.458>
VStem: 150 100<608.438 718.743> 425 150<23.4173 126.583> 450 100<208.438 394.409> 750 100<611.291 719.432>
LayerCount: 2
Fore
SplineSet
575 75 m 0xf4
 575 34 541 0 500 0 c 0
 459 0 425 34 425 75 c 0
 425 116 459 150 500 150 c 0
 541 150 575 116 575 75 c 0xf4
500 900 m 0
 679.758753102 900 850 827.533073078 850 650 c 0
 850 594 819 555 784 528 c 0
 726.289198638 479.907665532 632.063352506 450.27248044 580 405 c 0
 559 387 550 370 550 350 c 2
 550 350 550 250 550 250 c 2
 550 222 528 200 500 200 c 0
 472 200 450 222 450 250 c 2
 450 250 450 350 450 350 c 2xec
 450 463.684665233 556.457560554 515.228780277 632 553 c 0
 669 572 700 588 722 606 c 0
 744 623 750 637 750 650 c 0
 750 699 727 734 686 759 c 0
 643 785 578 800 500 800 c 0
 422 800 357 785 314 759 c 0
 273 734 250 699 250 650 c 0
 250 622 228 600 200 600 c 0
 172 600 150 622 150 650 c 0
 150 827.496129387 320.244779568 900 500 900 c 0
EndSplineSet
Validated: 1
EndChar

StartChar: SP_SEWI
Encoding: 91 989530 91
Width: 1000
Flags: W
HStem: 0 21G<86 114 886 914> 600 100<150 850> 750 150<448.417 551.583>
VStem: 50 100<8.4375 600> 425 150<773.417 876.583> 850 100<8.4375 600>
CounterMasks: 1 1c
LayerCount: 2
Fore
SplineSet
100 0 m 0
 72 0 50 22 50 50 c 2
 50 50 50 650 50 650 c 2
 50 678 72 700 100 700 c 2
 100 700 900 700 900 700 c 2
 928 700 950 678 950 650 c 2
 950 650 950 50 950 50 c 2
 950 22 928 0 900 0 c 0
 872 0 850 22 850 50 c 2
 850 50 850 600 850 600 c 1
 850 600 150 600 150 600 c 1
 150 600 150 50 150 50 c 2
 150 22 128 0 100 0 c 0
575 825 m 0
 575 784 541 750 500 750 c 0
 459 750 425 784 425 825 c 0
 425 866 459 900 500 900 c 0
 541 900 575 866 575 825 c 0
EndSplineSet
Validated: 1
EndChar

StartChar: SP_SIJELO
Encoding: 92 989531 92
Width: 1000
Flags: W
HStem: 0 21G<86 114 886 914> 800 100<150 450 550 850>
VStem: 50 100<8.4375 800> 450 100<58.4375 800> 850 100<8.4375 800>
CounterMasks: 1 38
LayerCount: 2
Fore
SplineSet
150 50 m 2
 150 22 128 0 100 0 c 0
 72 0 50 22 50 50 c 2
 50 50 50 850 50 850 c 2
 50 878 72 900 100 900 c 2
 100 900 900 900 900 900 c 2
 928 900 950 878 950 850 c 2
 950 850 950 50 950 50 c 2
 950 22 928 0 900 0 c 0
 872 0 850 22 850 50 c 2
 850 50 850 800 850 800 c 1
 850 800 550 800 550 800 c 1
 550 800 550 100 550 100 c 2
 550 72 528 50 500 50 c 0
 472 50 450 72 450 100 c 2
 450 100 450 800 450 800 c 1
 450 800 150 800 150 800 c 1
 150 50 l 2
EndSplineSet
Validated: 1
EndChar

StartChar: SP_SIKE
Encoding: 93 989532 93
Width: 1000
Flags: W
HStem: 0 100<383.579 616.421> 200 100<423.917 576.083> 600 100<423.917 576.083> 800 100<383.579 616.421>
VStem: 50 100<333.579 566.421> 250 100<373.917 526.083> 650 100<373.917 526.083> 850 100<333.579 566.421>
LayerCount: 2
Fore
SplineSet
500 100 m 0
 693 100 850 257 850 450 c 0
 850 643 693 800 500 800 c 0
 307 800 150 643 150 450 c 0
 150 257 307 100 500 100 c 0
500 0 m 0
 251 0 50 201 50 450 c 0
 50 699 251 900 500 900 c 0
 749 900 950 699 950 450 c 0
 950 201 749 0 500 0 c 0
650 450 m 0
 650 533 583 600 500 600 c 0
 417 600 350 533 350 450 c 0
 350 367 417 300 500 300 c 0
 583 300 650 367 650 450 c 0
500 200 m 0
 362 200 250 312 250 450 c 0
 250 588 362 700 500 700 c 0
 638 700 750 588 750 450 c 0
 750 312 638 200 500 200 c 0
EndSplineSet
Validated: 1
EndChar

StartChar: SP_SIN
Encoding: 94 989533 94
Width: 1000
Flags: W
HStem: 200 100<58.4375 391.562 608.438 941.562>
VStem: 450 100<358.438 691.562>
LayerCount: 2
Fore
SplineSet
600 250 m 0
 600 278 622 300 650 300 c 2
 650 300 900 300 900 300 c 2
 928 300 950 278 950 250 c 0
 950 222 928 200 900 200 c 2
 900 200 650 200 650 200 c 2
 622 200 600 222 600 250 c 0
500 700 m 0
 528 700 550 678 550 650 c 2
 550 650 550 400 550 400 c 2
 550 372 528 350 500 350 c 0
 472 350 450 372 450 400 c 2
 450 400 450 650 450 650 c 2
 450 678 472 700 500 700 c 0
50 250 m 0
 50 278 72 300 100 300 c 2
 100 300 350 300 350 300 c 2
 378 300 400 278 400 250 c 0
 400 222 378 200 350 200 c 2
 350 200 100 200 100 200 c 2
 72 200 50 222 50 250 c 0
EndSplineSet
Validated: 1
EndChar

StartChar: SP_SINA
Encoding: 95 989534 95
Width: 1000
Flags: W
HStem: 0 100<409.912 590.088> 500 100<409.722 590.088>
VStem: 200 100<210.672 390.849 524 891.562> 700 100<209.912 390.088>
LayerCount: 2
Fore
SplineSet
200 300 m 2
 200 300 200 850 200 850 c 2
 200 878 222 900 250 900 c 0
 278 900 300 878 300 850 c 2
 300 850 300 524 300 524 c 1
 353 571 423 600 500 600 c 0
 666 600 800 466 800 300 c 0
 800 134 666 0 500 0 c 0
 334 0 200 134 200 300 c 2
300 300 m 0
 300 190 390 100 500 100 c 0
 610 100 700 190 700 300 c 0
 700 410 610 500 500 500 c 0
 390 500 300 410 300 300 c 0
EndSplineSet
Validated: 1
EndChar

StartChar: SP_SINPIN
Encoding: 96 989535 96
Width: 1000
Flags: W
HStem: 0 100<58.4375 650> 375 150<823.417 926.583> 800 100<58.4375 650>
VStem: 650 100<100 800> 800 150<398.417 501.583>
CounterMasks: 1 e0
LayerCount: 2
Fore
SplineSet
50 850 m 0
 50 878 72 900 100 900 c 2
 100 900 700 900 700 900 c 2
 728 900 750 878 750 850 c 2
 750 850 750 50 750 50 c 2
 750 22 728 0 700 0 c 2
 700 0 100 0 100 0 c 2
 72 0 50 22 50 50 c 0
 50 78 72 100 100 100 c 2
 100 100 650 100 650 100 c 1
 650 100 650 800 650 800 c 1
 650 800 100 800 100 800 c 2
 72 800 50 822 50 850 c 0
875 375 m 0
 834 375 800 409 800 450 c 0
 800 491 834 525 875 525 c 0
 916 525 950 491 950 450 c 0
 950 409 916 375 875 375 c 0
EndSplineSet
Validated: 1
EndChar

StartChar: SP_SITELEN
Encoding: 97 989536 97
Width: 1000
Flags: W
HStem: 0 100<250 750> 400 100<308.438 391.562 458.438 541.562 608.438 691.562> 800 100<250 750>
VStem: 150 100<100 800> 300 100<408.438 491.562> 450 100<408.438 491.562> 600 100<408.438 491.562> 750 100<100 800>
CounterMasks: 1 e0
LayerCount: 2
Fore
SplineSet
150 850 m 2
 150 878 172 900 200 900 c 2
 200 900 800 900 800 900 c 2
 828 900 850 878 850 850 c 2
 850 850 850 50 850 50 c 2
 850 22 828 0 800 0 c 2
 800 0 200 0 200 0 c 2
 172 0 150 22 150 50 c 2
 150 850 l 2
250 800 m 1
 250 800 250 100 250 100 c 1
 250 100 750 100 750 100 c 1
 750 100 750 800 750 800 c 1
 250 800 l 1
400 450 m 0
 400 422 378 400 350 400 c 0
 322 400 300 422 300 450 c 0
 300 478 322 500 350 500 c 0
 378 500 400 478 400 450 c 0
550 450 m 0
 550 422 528 400 500 400 c 0
 472 400 450 422 450 450 c 0
 450 478 472 500 500 500 c 0
 528 500 550 478 550 450 c 0
700 450 m 0
 700 422 678 400 650 400 c 0
 622 400 600 422 600 450 c 0
 600 478 622 500 650 500 c 0
 678 500 700 478 700 450 c 0
EndSplineSet
Validated: 1
EndChar

StartChar: SP_SONA
Encoding: 98 989537 98
Width: 1000
Flags: W
HStem: 0 100<250 750> 600 100<250 750> 739.922 146.157<268.668 330.352 668.73 730.397> 750 150<458.438 541.562>
VStem: 150 100<100 600> 239.922 119.157<774.233 851.418> 450 100<758.438 891.562> 639.922 119.157<774.202 851.383> 750 100<100 600>
LayerCount: 2
Fore
SplineSet
150 650 m 2xca80
 150 678 172 700 200 700 c 2
 200 700 800 700 800 700 c 2
 828 700 850 678 850 650 c 2
 850 650 850 50 850 50 c 2
 850 22 828 0 800 0 c 2
 800 0 200 0 200 0 c 2
 172 0 150 22 150 50 c 2
 150 650 l 2xca80
250 600 m 1
 250 600 250 100 250 100 c 1
 250 100 750 100 750 100 c 1
 750 100 750 600 750 600 c 1
 250 600 l 1
500 900 m 0xd2
 528 900 550 878 550 850 c 2
 550 850 550 800 550 800 c 2
 550 772 528 750 500 750 c 0
 472 750 450 772 450 800 c 2
 450 800 450 850 450 850 c 2
 450 878 472 900 500 900 c 0xd2
708.727946848 886.078266221 m 0xe3
 738.74092855 886.078266221 759.078266221 861.361336444 759.078266221 836.414092203 c 0
 759.078266221 829.891603454 757.766571679 823.287662907 755 817 c 2
 755 817 736 771 736 771 c 2
 728.515065163 751.539169424 709.825280423 739.921733779 690.414092203 739.921733779 c 0
 660.422516687 739.921733779 639.921733779 764.117547324 639.921733779 789.163193882 c 0
 639.921733779 795.731894569 641.233428321 802.460830576 644 809 c 2
 644 809 663 855 663 855 c 2
 671.233428321 874.460830576 689.551221554 886.078266221 708.727946848 886.078266221 c 0xe3
239.921733779 836.414092203 m 0xe6
 239.921733779 861.452028132 260.277981147 886.078266221 290.414092203 886.078266221 c 0
 309.825280423 886.078266221 328.515065163 874.460830576 336 855 c 2
 336 855 355 809 355 809 c 2
 357.766571679 802.460830576 359.078266221 795.731894569 359.078266221 789.163193882 c 0
 359.078266221 764.197785595 338.636218384 739.921733779 308.727946848 739.921733779 c 0
 289.551221554 739.921733779 271.233428321 751.539169424 263 771 c 2
 263 771 244 817 244 817 c 2
 241.233428321 823.287662907 239.921733779 829.891603454 239.921733779 836.414092203 c 0xe6
EndSplineSet
Validated: 1
EndChar

StartChar: SP_SOWELI
Encoding: 99 989538 99
Width: 1000
Flags: W
HStem: 0 300<158.438 241.562 358.438 441.562 558.438 638.056> 475 150<373.417 476.583 623.417 726.583> 800 100<58.4375 695.711>
VStem: 150 100<8.4375 291.562> 350 150<498.417 601.583> 350 100<8.4375 291.562> 550 100<8.4375 206.605> 600 150<498.417 601.583> 850 100<453.745 646.496>
LayerCount: 2
Fore
SplineSet
50 850 m 0xf180
 50 878 72 900 100 900 c 2
 100 900 600 900 600 900 c 2xf180
 793 900 950 743 950 550 c 0
 950 374 820 228 650 204 c 1
 650 204 650 50 650 50 c 2xf280
 650 22 628 0 600 0 c 0xf180
 572 0 550 22 550 50 c 2
 550 50 550 250 550 250 c 2xf280
 550 278 572 300 600 300 c 0
 738 300 850 412 850 550 c 0
 850 688 738 800 600 800 c 2
 600 800 100 800 100 800 c 2
 72 800 50 822 50 850 c 0xf180
450 250 m 2xf480
 450 250 450 50 450 50 c 2
 450 22 428 0 400 0 c 0
 372 0 350 22 350 50 c 2
 350 50 350 250 350 250 c 2
 350 278 372 300 400 300 c 0
 428 300 450 278 450 250 c 2xf480
200 300 m 0
 228 300 250 278 250 250 c 2
 250 250 250 50 250 50 c 2
 250 22 228 0 200 0 c 0
 172 0 150 22 150 50 c 2
 150 50 150 250 150 250 c 2
 150 278 172 300 200 300 c 0
750 550 m 0xf180
 750 509 716 475 675 475 c 0
 634 475 600 509 600 550 c 0
 600 591 634 625 675 625 c 0
 716 625 750 591 750 550 c 0xf180
425 475 m 0
 384 475 350 509 350 550 c 0
 350 591 384 625 425 625 c 0
 466 625 500 591 500 550 c 0xf880
 500 509 466 475 425 475 c 0
EndSplineSet
Validated: 1
EndChar

StartChar: SP_SULI
Encoding: 100 989539 100
Width: 1000
Flags: W
HStem: 0 21G<488 512>
LayerCount: 2
Fore
SplineSet
849.782799977 899.603319075 m 0
 877.828043805 899.603319075 899.603319075 876.77813747 899.603319075 850.217200023 c 0
 899.603319075 839.333005135 896.168866358 828.277356463 889 819 c 0
 777 675 695 493 638 339 c 0
 582 185 554 63 549 40 c 0
 544 17 524 0 500 0 c 0
 476 0 456 17 451 40 c 0
 446 63 418 185 362 339 c 0
 305 493 223 675 111 819 c 0
 103.831133642 828.277356463 100.396680925 839.333005135 100.396680925 850.217200023 c 0
 100.396680925 876.771253772 122.146887669 899.603319075 150.217200023 899.603319075 c 0
 165.143405812 899.603319075 179.747168337 893.144341558 189 881 c 0
 311 725 398 532 456 373 c 0
 473 326 488 282 500 242 c 1
 512 282 527 326 544 373 c 0
 602 532 689 725 811 881 c 0
 820.252831663 893.144341558 834.856594188 899.603319075 849.782799977 899.603319075 c 0
EndSplineSet
Validated: 1
EndChar

StartChar: SP_SUNO
Encoding: 101 989540 101
Width: 1000
Flags: W
HStem: 0 21G<486 514> 154 96<409.692 450 550 590.308> 400 100<58.4375 207.462 792.538 941.562> 650 96<409.692 450 550 590.308>
VStem: 204 96<359.692 400 500 540.308> 450 100<8.4375 157.462 742.538 891.562> 700 96<359.692 400 500 540.308>
CounterMasks: 1 0e
LayerCount: 2
Fore
SplineSet
450 850 m 2
 450 878 472 900 500 900 c 0
 528 900 550 878 550 850 c 2
 550 850 550 746 550 746 c 1
 676 725 775 626 796 500 c 1
 796 500 900 500 900 500 c 2
 928 500 950 478 950 450 c 0
 950 422 928 400 900 400 c 2
 900 400 796 400 796 400 c 1
 775 274 676 175 550 154 c 1
 550 154 550 50 550 50 c 2
 550 22 528 0 500 0 c 0
 472 0 450 22 450 50 c 2
 450 50 450 154 450 154 c 1
 324 175 225 274 204 400 c 1
 204 400 100 400 100 400 c 2
 72 400 50 422 50 450 c 0
 50 478 72 500 100 500 c 2
 100 500 204 500 204 500 c 1
 225 626 324 725 450 746 c 1
 450 850 l 2
500 650 m 0
 390 650 300 560 300 450 c 0
 300 340 390 250 500 250 c 0
 610 250 700 340 700 450 c 0
 700 560 610 650 500 650 c 0
EndSplineSet
Validated: 1
EndChar

StartChar: SP_SUPA
Encoding: 102 989541 102
Width: 1000
Flags: W
HStem: 650 100<58.4375 300 400 600 700 941.562>
VStem: 300 100<158.438 650> 600 100<158.438 650>
LayerCount: 2
Fore
SplineSet
100 750 m 2
 100 750 900 750 900 750 c 2
 928 750 950 728 950 700 c 0
 950 672 928 650 900 650 c 2
 900 650 700 650 700 650 c 1
 700 650 700 200 700 200 c 2
 700 172 678 150 650 150 c 0
 622 150 600 172 600 200 c 2
 600 200 600 650 600 650 c 1
 600 650 400 650 400 650 c 1
 400 650 400 200 400 200 c 2
 400 172 378 150 350 150 c 0
 322 150 300 172 300 200 c 2
 300 200 300 650 300 650 c 1
 300 650 100 650 100 650 c 2
 72 650 50 672 50 700 c 0
 50 728 72 750 100 750 c 2
EndSplineSet
Validated: 1
EndChar

StartChar: SP_SUWI
Encoding: 103 989542 103
Width: 1000
Flags: W
HStem: 200 150<453.417 556.583>
VStem: 430 150<223.417 326.583>
LayerCount: 2
Fore
SplineSet
100 450 m 0
 73.5913389903 450 50 473.581991343 50 500 c 0
 50 512.75 55 525.5 65 535 c 2
 65 535 215 685 215 685 c 2
 224.5 695 237.25 700 250 700 c 0
 262.75 700 275.5 695 285 685 c 2
 285 685 435 535 435 535 c 2
 445 525.5 450 512.75 450 500 c 0
 450 473.59133899 426.418008657 450 400 450 c 0
 387.25 450 374.5 455 365 465 c 2
 365 465 250 579 250 579 c 1
 250 579 135 465 135 465 c 2
 125.5 455 112.75 450 100 450 c 0
600 450 m 0
 573.59133899 450 550 473.581991343 550 500 c 0
 550 512.75 555 525.5 565 535 c 2
 565 535 715 685 715 685 c 2
 724.5 695 737.25 700 750 700 c 0
 762.75 700 775.5 695 785 685 c 2
 785 685 935 535 935 535 c 2
 945 525.5 950 512.75 950 500 c 0
 950 473.59133899 926.418008657 450 900 450 c 0
 887.25 450 874.5 455 865 465 c 2
 865 465 750 579 750 579 c 1
 750 579 635 465 635 465 c 2
 625.5 455 612.75 450 600 450 c 0
580 275 m 0
 580 234 546 200 505 200 c 0
 464 200 430 234 430 275 c 0
 430 316 464 350 505 350 c 0
 546 350 580 316 580 275 c 0
EndSplineSet
Validated: 1
EndChar

StartChar: SP_TAN
Encoding: 104 989543 104
Width: 1000
Flags: W
HStem: 75 100<533.438 677.623> 725 100<469.593 679.858>
VStem: 850 100<345.142 554.858>
LayerCount: 2
Fore
SplineSet
50 525 m 0
 50 551.40866101 73.5819913434 575 100 575 c 0
 112.75 575 125.5 570 135 560 c 2
 135 560 202 493 202 493 c 1
 224 680 383 825 575 825 c 0
 782 825 950 657 950 450 c 0
 950 243 782 75 575 75 c 0
 547 75 525 97 525 125 c 0
 525 153 547 175 575 175 c 0
 727 175 850 298 850 450 c 0
 850 602 727 725 575 725 c 0
 440 725 328 628 305 500 c 1
 305 500 365 560 365 560 c 2
 374.5 570 387.25 575 400 575 c 0
 426.40866101 575 450 551.418008657 450 525 c 0
 450 512.25 445 499.5 435 490 c 2
 435 490 285 340 285 340 c 2
 275.5 330 262.75 325 250 325 c 0
 237.25 325 224.5 330 215 340 c 2
 215 340 65 490 65 490 c 2
 55 499.5 50 512.25 50 525 c 0
EndSplineSet
Validated: 1
EndChar

StartChar: SP_TASO
Encoding: 105 989544 105
Width: 1000
Flags: W
HStem: 0 21G<586 614> 400 100<258.438 550>
VStem: 550 100<8.4375 400 500 891.562>
LayerCount: 2
Fore
SplineSet
650 850 m 2
 650 850 650 50 650 50 c 2
 650 22 628 0 600 0 c 0
 572 0 550 22 550 50 c 2
 550 50 550 400 550 400 c 1
 550 400 300 400 300 400 c 2
 272 400 250 422 250 450 c 0
 250 478 272 500 300 500 c 2
 300 500 550 500 550 500 c 1
 550 500 550 850 550 850 c 2
 550 878 572 900 600 900 c 0
 628 900 650 878 650 850 c 2
EndSplineSet
Validated: 1
EndChar

StartChar: SP_TAWA
Encoding: 106 989545 106
Width: 1000
Flags: W
HStem: 0 100<264 441.562 639 841.562>
LayerCount: 2
Fore
SplineSet
200 0 m 2
 173.029916803 0 149.890156125 22.5961168783 149.890156125 50.8685468372 c 0
 149.890156125 54.5900360288 150.265006005 58.325030024 151 62 c 2
 151 62 351 862 351 862 c 2
 357 884 377 900 400 900 c 0
 423 900 443 884 449 862 c 2
 449 862 639 100 639 100 c 1
 639 100 800 100 800 100 c 2
 828 100 850 78 850 50 c 0
 850 22 828 0 800 0 c 2
 800 0 600 0 600 0 c 2
 577 0 557 16 551 38 c 2
 551 38 400 644 400 644 c 1
 400 644 264 100 264 100 c 1
 264 100 400 100 400 100 c 2
 428 100 450 78 450 50 c 0
 450 22 428 0 400 0 c 2
 400 0 200 0 200 0 c 2
EndSplineSet
Validated: 1
EndChar

StartChar: SP_TELO
Encoding: 107 989546 107
Width: 1000
Flags: W
HStem: 50.2499 106.956<617.437 772.45> 342.794 106.956<227.743 382.46> 450.25 106.956<617.437 772.45> 742.794 106.956<227.743 382.46>
VStem: 50.2529 99.6871<87.5613 259.042 487.561 659.042> 65 96.8437<59.0499 175.849 459.05 575.849> 838.166 96.834<324.151 440.877 724.151 840.877> 850.06 99.6775<240.991 412.392 640.991 812.392>
LayerCount: 2
Fore
SplineSet
161.843667646 102.972813946 m 0xf4
 161.843667646 76.8494671572 143.214857586 49.8963395501 112.384959371 49.8963395501 c 0
 91.6697893299 49.8963395501 72.1041537907 63.8981882068 65 86 c 0xf4
 55.0017234231 116.20755902 50.252881886 147.048670544 50.252881886 177.368118798 c 0
 50.252881886 289.574640591 115.29299542 394.636464444 220 434 c 0
 248.414428303 444.682115903 277.376573086 449.750137878 305.823544298 449.750137878 c 0
 410.528897352 449.750137878 508.254831267 381.090075471 546 271 c 0
 546 270 547 269 547 268 c 0
 569.787867498 199.636397505 629.623552247 157.206267085 693.513737555 157.206267085 c 0
 789.871052458 157.206267085 850.060052352 240.609306265 850.060052352 323.28470374 c 0xf9
 850.060052352 341.752316582 847.148021484 360.555935548 841 379 c 0
 839.085006021 384.957759044 838.166042199 391.006066285 838.166042199 396.932989304 c 0
 838.166042199 422.874703098 857.250167007 450.10366045 888.500615305 450.10366045 c 0
 908.953284757 450.10366045 927.895846209 436.101811793 935 414 c 0xf2
 944.98816341 383.822995655 949.737505922 353.013719822 949.737505922 322.72388635 c 0
 949.737505922 210.482794493 884.523108575 105.374294245 779 66 c 0
 750.799214016 55.3178840968 722.00506851 50.2498621219 693.690204821 50.2498621219 c 0
 589.471102648 50.2498621219 491.745168733 118.909924529 454 229 c 0
 454 230 453 231 453 232 c 0
 430.212132502 300.363602495 370.376447753 342.793732915 306.486262445 342.793732915 c 0
 210.128947542 342.793732915 149.939947648 259.390693735 149.939947648 176.71529626 c 0xf9
 149.939947648 158.247683418 152.851978516 139.444064452 159 121 c 0
 160.9251401 115.010675244 161.843667646 108.929840256 161.843667646 102.972813946 c 0xf4
161.843667646 502.972813946 m 0
 161.843667646 476.849467157 143.214857586 449.89633955 112.384959371 449.89633955 c 0
 91.6697893299 449.89633955 72.1041537907 463.898188207 65 486 c 0xf4
 55.0017234231 516.20755902 50.252881886 547.048670544 50.252881886 577.368118798 c 0
 50.252881886 689.574640591 115.29299542 794.636464444 220 834 c 0
 248.414428303 844.682115903 277.376573086 849.750137878 305.823544298 849.750137878 c 0
 410.528897352 849.750137878 508.254831267 781.090075471 546 671 c 0
 546 670 547 669 547 668 c 0
 569.787867498 599.636397505 629.623552247 557.206267085 693.513737555 557.206267085 c 0
 789.871052458 557.206267085 850.060052352 640.609306265 850.060052352 723.28470374 c 0xf9
 850.060052352 741.752316582 847.148021484 760.555935548 841 779 c 0
 839.085006021 784.957759044 838.166042199 791.006066285 838.166042199 796.932989304 c 0
 838.166042199 822.874703098 857.250167007 850.10366045 888.500615305 850.10366045 c 0
 908.953284757 850.10366045 927.895846209 836.101811793 935 814 c 0xf2
 944.98816341 783.822995655 949.737505922 753.013719822 949.737505922 722.72388635 c 0
 949.737505922 610.482794493 884.523108575 505.374294245 779 466 c 0
 750.799214016 455.317884097 722.00506851 450.249862122 693.690204821 450.249862122 c 0
 589.471102648 450.249862122 491.745168733 518.909924529 454 629 c 0
 454 630 453 631 453 632 c 0
 430.212132502 700.363602495 370.376447753 742.793732915 306.486262445 742.793732915 c 0
 210.128947542 742.793732915 149.939947648 659.390693735 149.939947648 576.71529626 c 0xf9
 149.939947648 558.247683418 152.851978516 539.444064452 159 521 c 0
 160.9251401 515.010675244 161.843667646 508.929840256 161.843667646 502.972813946 c 0
EndSplineSet
Validated: 1
EndChar

StartChar: SP_TENPO
Encoding: 108 989547 108
Width: 1000
Flags: W
HStem: 0 100<383.579 616.421> 400 100<550 691.562> 800 100<383.579 616.421>
VStem: 50 100<333.579 566.421> 450 250<408.438 491.562> 450 100<500 741.562> 850 100<333.579 566.421>
CounterMasks: 1 e0
LayerCount: 2
Fore
SplineSet
500 100 m 0xf2
 693 100 850 257 850 450 c 0
 850 643 693 800 500 800 c 0
 307 800 150 643 150 450 c 0
 150 257 307 100 500 100 c 0xf2
500 0 m 0
 251 0 50 201 50 450 c 0
 50 699 251 900 500 900 c 0
 749 900 950 699 950 450 c 0
 950 201 749 0 500 0 c 0
500 750 m 0
 528 750 550 728 550 700 c 2
 550 700 550 500 550 500 c 1xf6
 550 500 650 500 650 500 c 2
 678 500 700 478 700 450 c 0
 700 422 678 400 650 400 c 2
 650 400 500 400 500 400 c 2
 472 400 450 422 450 450 c 2xfa
 450 450 450 700 450 700 c 2xf6
 450 728 472 750 500 750 c 0
EndSplineSet
Validated: 1
EndChar

StartChar: SP_TOKI
Encoding: 109 989548 109
Width: 1000
Flags: W
HStem: 50 100<409.912 590.088> 550 100<409.912 590.088> 700 200<458.438 541.562>
VStem: 200 100<259.912 440.088> 450 100<708.438 891.562> 700 100<259.912 440.088>
CounterMasks: 1 1c
LayerCount: 2
Fore
SplineSet
500 550 m 0
 390 550 300 460 300 350 c 0
 300 240 390 150 500 150 c 0
 610 150 700 240 700 350 c 0
 700 460 610 550 500 550 c 0
200 350 m 0
 200 516 334 650 500 650 c 0
 666 650 800 516 800 350 c 0
 800 184 666 50 500 50 c 0
 334 50 200 184 200 350 c 0
500 900 m 0
 528 900 550 878 550 850 c 2
 550 850 550 750 550 750 c 2
 550 722 528 700 500 700 c 0
 472 700 450 722 450 750 c 2
 450 750 450 850 450 850 c 2
 450 878 472 900 500 900 c 0
200.111111111 783.407407407 m 0
 200.111111111 808.816733256 221.025562421 832.888888889 250.185185185 832.888888889 c 0
 267.222222222 832.888888889 283.666666667 824 293 808 c 2
 293 808 343 721 343 721 c 2
 347.666666667 713 349.888888889 704.333333333 349.888888889 695.814814815 c 0
 349.888888889 671.003423189 329.061086372 646.111111111 299.814814815 646.111111111 c 0
 282.777777778 646.111111111 266.333333333 655 257 671 c 2
 257 671 207 758 207 758 c 2
 202.333333333 766 200.111111111 774.777777778 200.111111111 783.407407407 c 0
749.814814815 832.888888889 m 0
 778.944181138 832.888888889 799.888888889 808.816220803 799.888888889 783.407407407 c 0
 799.888888889 774.777777778 797.666666667 766 793 758 c 2
 793 758 743 671 743 671 c 2
 733.666666667 655 717.222222222 646.111111111 700.185185185 646.111111111 c 0
 670.969297103 646.111111111 650.111111111 671.005873852 650.111111111 695.814814815 c 0
 650.111111111 704.333333333 652.333333333 713 657 721 c 2
 657 721 707 808 707 808 c 2
 716.333333333 824 732.777777778 832.888888889 749.814814815 832.888888889 c 0
EndSplineSet
Validated: 1
EndChar

StartChar: SP_TOMO
Encoding: 110 989549 110
Width: 1000
Flags: W
HStem: 0 100<150 850>
VStem: 50 100<100 525> 850 100<100 525>
LayerCount: 2
Fore
SplineSet
470 890 m 2
 479 896.5 489.5 899.75 500 899.75 c 0
 510.5 899.75 521 896.5 530 890 c 2
 530 890 930 590 930 590 c 2
 943 581 950 566 950 550 c 2
 950 550 950 50 950 50 c 2
 950 22 928 0 900 0 c 2
 900 0 100 0 100 0 c 2
 72 0 50 22 50 50 c 2
 50 50 50 550 50 550 c 2
 50 566 57 581 70 590 c 2
 470 890 l 2
150 525 m 1
 150 525 150 100 150 100 c 1
 150 100 850 100 850 100 c 1
 850 100 850 525 850 525 c 1
 850 525 500 788 500 788 c 1
 150 525 l 1
EndSplineSet
Validated: 1
EndChar

StartChar: SP_TU
Encoding: 111 989550 111
Width: 1000
Flags: W
HStem: 0 21G<236 264 736 764>
VStem: 200 100<8.4375 891.562> 700 100<8.4375 891.562>
LayerCount: 2
Fore
SplineSet
750 0 m 0
 722 0 700 22 700 50 c 2
 700 50 700 850 700 850 c 2
 700 878 722 900 750 900 c 0
 778 900 800 878 800 850 c 2
 800 850 800 50 800 50 c 2
 800 22 778 0 750 0 c 0
250 0 m 0
 222 0 200 22 200 50 c 2
 200 50 200 850 200 850 c 2
 200 878 222 900 250 900 c 0
 278 900 300 878 300 850 c 2
 300 850 300 50 300 50 c 2
 300 22 278 0 250 0 c 0
EndSplineSet
Validated: 1
EndChar

StartChar: SP_UNPA
Encoding: 112 989551 112
Width: 1000
Flags: W
HStem: 32 100<407.892 592.52> 325 100<378.993 622.002> 768.238 99.8396<226.676 379.645 620.647 773.324>
VStem: 49.8472 100.219<536.984 680.607> 243 100<199.832 336.484> 658 100<199.781 336.597> 849.934 100.219<535.964 680.607>
LayerCount: 2
Fore
SplineSet
382 174 m 0
 405 149 442 132 500 132 c 0
 558 132 595 149 619 174 c 0
 642 200 658 241 658 301 c 0
 658 311 657 323 654 337 c 1
 606 329 553 325 500 325 c 0
 448 325 395 329 347 337 c 1
 344 323 343 311 343 301 c 0
 343 241 359 200 382 174 c 0
500 788 m 1
 549.62903258 831.011828236 631.921953881 868.077248455 703.109532327 868.077248455 c 0
 717.46459334 868.077248455 731.777358716 866.759616966 746 864 c 0
 814 852 870 808 910 739 c 0
 936.385840391 694.144071335 950.152827894 648.417876954 950.152827894 603.830652431 c 0
 950.152827894 580.825222922 946.487787785 558.123009364 939 536 c 0
 917 472 867 421 802 383 c 0
 787 374 770 367 751 361 c 1
 756 340 758 320 758 301 c 0
 758 225 738 156 692 106 c 0
 645 56 579 32 500 32 c 0
 422 32 355 56 309 107 c 0
 263 156 243 225 243 301 c 0
 243 320 245 340 249 360 c 1
 161.663194022 393.964313436 88.4722098445 456.080844089 61 536 c 0
 53.5122122151 558.123009364 49.847172106 580.825222922 49.847172106 603.830652431 c 0
 49.847172106 648.417876954 63.6141596089 694.144071335 90 739 c 0
 130 808 186 852 254 864 c 0
 268.222641284 866.759616966 282.580468707 868.077248455 296.996956737 868.077248455 c 0
 367.167743998 868.077248455 452.897179808 831.738333036 500 788 c 1
624 433 m 1
 592.275128524 507.024700111 547.176411908 584.501249233 500 643 c 1
 454.347442003 584.032112587 408.575780378 506.676820881 377 433 c 1
 416 428 458 425 500 425 c 0
 543 425 585 428 624 433 c 1
570 716 m 1
 629.148802361 643.495016461 685.966124632 549.264148011 722 456 c 1
 734 461 744 465 752 470 c 0
 804 500 833 534 844 567 c 0
 847.804493815 578.413481444 849.934289905 590.544690485 849.934289905 603.600490015 c 0
 849.934289905 628.293153703 842.315833926 656.293153703 824 689 c 0
 795 738 762 760 728 766 c 0
 720.42394099 767.473122585 712.449293993 768.237644305 704.085379152 768.237644305 c 0
 672.705552043 768.237644305 635.846357569 757.476171408 594 733 c 0
 587 729 579 723 570 716 c 1
279 456 m 1
 314.946725149 549.038582738 371.86386673 643.510546315 431 716 c 1
 422 723 414 729 406 733 c 0
 364.943196347 757.476171408 327.626765016 768.237644305 296.019523083 768.237644305 c 0
 287.594993561 768.237644305 279.57605901 767.473122585 272 766 c 0
 238 760 205 738 176 689 c 0
 157.684166074 656.293153703 150.065710095 628.293153703 150.065710095 603.600490015 c 0
 150.065710095 590.544690485 152.195506185 578.413481444 156 567 c 0
 168.29742876 530.10771372 218.469095836 476.176968055 279 456 c 1
EndSplineSet
Validated: 1
EndChar

StartChar: SP_UTA
Encoding: 113 989552 113
Width: 1000
Flags: W
HStem: 100 150<448.417 551.583> 300 100<384.879 615.121> 700 100<154 846>
VStem: 425 150<123.417 226.583>
LayerCount: 2
Fore
SplineSet
50 750 m 0
 50 778 72 800 100 800 c 2
 100 800 900 800 900 800 c 2
 928 800 950 778 950 750 c 0
 950 501 749 300 500 300 c 0
 251 300 50 501 50 750 c 0
154 700 m 1
 178 530 324 400 500 400 c 0
 676 400 822 530 846 700 c 1
 154 700 l 1
575 175 m 0
 575 134 541 100 500 100 c 0
 459 100 425 134 425 175 c 0
 425 216 459 250 500 250 c 0
 541 250 575 216 575 175 c 0
EndSplineSet
Validated: 1
EndChar

StartChar: SP_UTALA
Encoding: 114 989553 114
Width: 1000
Flags: W
HStem: 0.318093 21G<188.667 207.933 792.067 811.319>
LayerCount: 2
Fore
SplineSet
800.36897835 900.161500626 m 0
 828.474556737 900.161500626 850.161500626 874.970575208 850.161500626 849.63102165 c 0
 850.161500626 839.296385482 846.885053192 828.910068836 840 820 c 2
 840 820 563 450 563 450 c 1
 563 450 783 156 783 156 c 1
 783 156 853 366 853 366 c 2
 859.35377553 386.649770472 878.954109389 399.73007904 899.777336126 399.73007904 c 0
 929.979269469 399.73007904 949.73007904 375.816539842 949.73007904 350.222663874 c 0
 949.73007904 344.827492885 948.852002529 339.350229528 947 334 c 2
 947 334 847 34 847 34 c 2
 841.462623671 15.1729204826 822.900220353 0.318093402865 799.736914423 0.318093402865 c 0
 784.397445989 0.318093402865 769.324478432 7.28480213876 760 20 c 2
 760 20 500 367 500 367 c 1
 500 367 240 20 240 20 c 2
 230.675521568 7.28480213876 215.602554011 0.318093402865 200.263085577 0.318093402865 c 0
 177.069943606 0.318093402865 158.538145027 15.1703069079 153 34 c 2
 153 34 53 334 53 334 c 2
 51.1479974709 339.350229528 50.2699209598 344.827492885 50.2699209598 350.222663874 c 0
 50.2699209598 375.818052706 70.0065024801 399.73007904 100.222663874 399.73007904 c 0
 121.045890611 399.73007904 140.64622447 386.649770472 147 366 c 2
 147 366 217 156 217 156 c 1
 217 156 438 450 438 450 c 1
 438 450 160 820 160 820 c 2
 153.114946808 828.910068836 149.838499374 839.296385482 149.838499374 849.63102165 c 0
 149.838499374 874.968281134 171.505121752 900.161500626 199.63102165 900.161500626 c 0
 214.813808511 900.161500626 229.885053192 893.089931164 240 880 c 2
 240 880 500 533 500 533 c 1
 500 533 760 880 760 880 c 2
 770.114946808 893.089931164 785.186191489 900.161500626 800.36897835 900.161500626 c 0
EndSplineSet
Validated: 1
EndChar

StartChar: SP_WALO
Encoding: 115 989554 115
Width: 1000
Flags: W
HStem: 50 100<197 803>
LayerCount: 2
Fore
SplineSet
50.1111111111 554.592592593 m 0
 50.1111111111 583.883686244 74.050871109 604.888888889 99.5925925926 604.888888889 c 0
 108.222222222 604.888888889 117 602.666666667 125 598 c 2
 125 598 287 505 287 505 c 1
 287 505 457 800 457 800 c 2
 466 815 482 825 500 825 c 0
 518 825 534 815 543 800 c 2
 543 800 713 505 713 505 c 1
 713 505 875 598 875 598 c 2
 883 602.666666667 891.666666667 604.888888889 900.185185185 604.888888889 c 0
 925.1300431 604.888888889 949.888888889 584.000493275 949.888888889 554.592592593 c 0
 949.888888889 537.333333333 941 520.666666667 925 512 c 2
 925 512 763 419 763 419 c 1
 763 419 933 125 933 125 c 2
 937.5 117.5 939.75 108.75 939.75 100 c 0
 939.75 71.114426727 915.727800999 50 890 50 c 2
 890 50 110 50 110 50 c 2
 84.2661434337 50 60.25 71.1008464233 60.25 100 c 0
 60.25 108.75 62.5 117.5 67 125 c 2
 67 125 237 419 237 419 c 1
 237 419 75 512 75 512 c 2
 59 520.666666667 50.1111111111 537.333333333 50.1111111111 554.592592593 c 0
649 418 m 1
 649 418 500 675 500 675 c 1
 500 675 350 416 350 416 c 1
 350 414 349 413 348 412 c 0
 348 411 347 409 346 408 c 2
 346 408 197 150 197 150 c 1
 197 150 803 150 803 150 c 1
 803 150 655 406 655 406 c 2
 653.465716394 409.068567212 649 413.444164744 649 418 c 1
EndSplineSet
Validated: 1
EndChar

StartChar: SP_WAN
Encoding: 116 989555 116
Width: 1000
Flags: W
HStem: 0 21G<586 614>
VStem: 550 100<8.4375 729>
LayerCount: 2
Fore
SplineSet
599.390488829 900.037830796 m 0
 629.46109529 900.037830796 650 875.35326855 650 850 c 2
 650 850 650 50 650 50 c 2
 650 22 628 0 600 0 c 0
 572 0 550 22 550 50 c 2
 550 50 550 729 550 729 c 1
 550 729 385 565 385 565 c 2
 375.5 555 362.75 550 350 550 c 0
 323.59133899 550 300 573.581991343 300 600 c 0
 300 612.75 305 625.5 315 635 c 2
 315 635 565 885 565 885 c 2
 574.266653056 894.928556845 586.600122499 900.037830796 599.390488829 900.037830796 c 0
EndSplineSet
Validated: 1
EndChar

StartChar: SP_WASO
Encoding: 117 989556 117
Width: 1000
Flags: W
HStem: 0 300<208.438 291.562> 200 100<300 750> 350 150<203.417 306.583 453.417 556.583>
VStem: 180 150<373.417 476.583> 200 100<8.4375 200> 430 150<373.417 476.583>
LayerCount: 2
Fore
SplineSet
349.838499374 849.63102165 m 0x6c
 349.838499374 874.968281134 371.505121752 900.161500626 399.63102165 900.161500626 c 0
 414.813808511 900.161500626 429.885053192 893.089931164 440 880 c 2
 440 880 890 280 890 280 c 2
 896.508293513 271.125054301 899.866000579 260.499782798 899.866000579 249.781150447 c 0
 899.866000579 220.150267441 875.102398293 200 850 200 c 2
 850 200 300 200 300 200 c 1x6c
 300 200 300 50 300 50 c 2
 300 22 278 0 250 0 c 0
 222 0 200 22 200 50 c 2
 200 50 200 250 200 250 c 2
 200 278 222 300 250 300 c 2xac
 250 300 750 300 750 300 c 1
 750 300 360 820 360 820 c 2
 353.114946808 828.910068836 349.838499374 839.296385482 349.838499374 849.63102165 c 0x6c
580 425 m 0
 580 384 546 350 505 350 c 0
 464 350 430 384 430 425 c 0
 430 466 464 500 505 500 c 0
 546 500 580 466 580 425 c 0
330 425 m 0x34
 330 384 296 350 255 350 c 0
 214 350 180 384 180 425 c 0
 180 466 214 500 255 500 c 0
 296 500 330 466 330 425 c 0x34
EndSplineSet
Validated: 1
EndChar

StartChar: SP_WAWA
Encoding: 118 989557 118
Width: 1000
Flags: W
HStem: 50 100<409.912 590.088> 550 100<409.912 590.088>
VStem: 200 100<259.912 440.088> 700 100<259.912 440.088>
LayerCount: 2
Fore
SplineSet
500 550 m 0
 390 550 300 460 300 350 c 0
 300 240 390 150 500 150 c 0
 610 150 700 240 700 350 c 0
 700 460 610 550 500 550 c 0
200 350 m 0
 200 516 334 650 500 650 c 0
 666 650 800 516 800 350 c 0
 800 184 666 50 500 50 c 0
 334 50 200 184 200 350 c 0
950 745 m 2
 950 745 900 195 900 195 c 2
 897 169 875 150 849 150 c 1
 823.056755587 152.882582713 799.883272206 175.153492646 799.883272206 201.731717628 c 0
 799.883272206 202.814338109 799.921721808 203.904105317 800 205 c 2
 800 205 850 755 850 755 c 2
 853 781 875 800 901 800 c 1
 926.943244413 797.117417287 950.116727794 774.846507354 950.116727794 748.268282372 c 0
 950.116727794 747.185661891 950.078278192 746.095894683 950 745 c 2
95 800 m 1
 121 800 147 781 150 755 c 2
 150 755 200 205 200 205 c 2
 200.092363233 203.706914738 200.137806149 202.422360443 200.137806149 201.148011504 c 0
 200.137806149 174.828069984 180.753096355 152.861455151 155 150 c 0
 154 150 152 150 151 150 c 0
 125 150 103 169 100 195 c 2
 100 195 50 745 50 745 c 2
 49.907636767 746.293085262 49.8621938515 747.577639557 49.8621938515 748.851988496 c 0
 49.8621938515 775.171930016 69.2469036452 797.138544849 95 800 c 1
EndSplineSet
Validated: 1
EndChar

StartChar: SP_WEKA
Encoding: 119 989558 119
Width: 1000
Flags: W
HStem: 0 21G<86.7957 106.375 893.625 913.209>
LayerCount: 2
Fore
SplineSet
50 850 m 0
 50 876.40866101 73.5819913434 900 100 900 c 0
 112.75 900 125.5 895 135 885 c 2
 135 885 410 610 410 610 c 2
 420 600.5 425 587.75 425 575 c 0
 425 548.59133899 401.418008657 525 375 525 c 0
 362.25 525 349.5 530 340 540 c 2
 340 540 65 815 65 815 c 2
 55 824.5 50 837.25 50 850 c 0
600 300 m 0
 600 326.40866101 623.581991343 350 650 350 c 0
 662.75 350 675.5 345 685 335 c 2
 685 335 935 85 935 85 c 2
 945 75.5 950 62.75 950 50 c 0
 950 23.5913389903 926.418008657 0 900 0 c 0
 887.25 0 874.5 5 865 15 c 2
 865 15 615 265 615 265 c 2
 605 274.5 600 287.25 600 300 c 0
100 0 m 0
 73.5913389903 0 50 23.5819913434 50 50 c 0
 50 62.75 55 75.5 65 85 c 2
 65 85 340 360 340 360 c 2
 349.5 370 362.25 375 375 375 c 0
 401.40866101 375 425 351.418008657 425 325 c 0
 425 312.25 420 299.5 410 290 c 2
 410 290 135 15 135 15 c 2
 125.5 5 112.75 0 100 0 c 0
650 550 m 0
 623.59133899 550 600 573.581991343 600 600 c 0
 600 612.75 605 625.5 615 635 c 2
 615 635 865 885 865 885 c 2
 874.5 895 887.25 900 900 900 c 0
 926.40866101 900 950 876.418008657 950 850 c 0
 950 837.25 945 824.5 935 815 c 2
 935 815 685 565 685 565 c 2
 675.5 555 662.75 550 650 550 c 0
EndSplineSet
Validated: 1
EndChar

StartChar: SP_WILE
Encoding: 120 989559 120
Width: 1000
Flags: W
HStem: 0 100<230.078 377.38 622.655 768.727>
VStem: 50 100<223.058 554.025> 450 100.001<172.22 290.883> 850 100<221.639 554.03>
LayerCount: 2
Fore
SplineSet
150 400 m 0
 150 320 160 240 186 183 c 0
 198 155 214 135 231 121 c 0
 249 108 270 100 300 100 c 0
 383 100 450 167 450 250 c 0
 450 278 472 300 500 300 c 0
 528 300 550.000976562 277.614257812 550.000976562 250 c 0
 550.000976562 167.157226562 617.158203125 100 700.000976562 100 c 0
 729.696289062 100 751.481445312 108.2890625 768.598632812 121.228515625 c 0
 786.362304688 134.658203125 801.782226562 155.18359375 814.39453125 183.247070312 c 0
 840.087890625 240.415039062 850 319.541992188 850 400 c 0
 850 470.184570312 841.01171875 526.198242188 820.80859375 574.924804688 c 0
 800.756835938 623.286132812 768.379882812 667.548828125 717.103515625 712.345703125 c 0
 705.788870641 722.231006745 700.000038616 736.089009358 700.000038616 750.01988699 c 0
 700.000038616 761.692244142 704.064014558 773.415762275 712.346679688 782.896484375 c 0
 722.232077599 794.211768642 736.09025029 800.000845416 750.021419505 800.000845416 c 0
 761.693776747 800.000845416 773.417378126 795.936867714 782.8984375 787.654296875 c 0
 843.610351562 734.612304688 886.232421875 678.227539062 913.182617188 613.224609375 c 0
 939.982421875 548.588867188 950 478.522460938 950 400 c 0
 950 314.458007812 939.912109375 218.584960938 905.606445312 142.252929688 c 0
 888.217773438 103.56640625 863.638671875 67.716796875 828.90234375 41.4580078125 c 0
 793.51953125 14.7109375 750.305664062 0 700.000976562 0 c 0
 618.220703125 0 545.611328125 39.267578125 500 99.9765625 c 1
 454.388671875 39.267578125 381.779296875 0 299.999023438 0 c 0
 249.694335938 0 206.48046875 14.7109375 171.09765625 41.4580078125 c 0
 136.361328125 67.716796875 111.782226562 103.56640625 94.3935546875 142.252929688 c 0
 60.087890625 218.584960938 50 314.458007812 50 400 c 0
 50 478.522460938 60.017578125 548.588867188 86.81640625 613.224609375 c 0
 113.767578125 678.227539062 156.389648438 734.612304688 217.1015625 787.654296875 c 0
 226.582621874 795.936867714 238.306223253 800.000845416 249.978580495 800.000845416 c 0
 263.90974971 800.000845416 277.767922401 794.211768642 287.653320312 782.896484375 c 0
 295.935985442 773.415762275 299.999961384 761.692244142 299.999961384 750.01988699 c 0
 299.999961384 736.089009358 294.211129359 722.231006745 282.896484375 712.345703125 c 0
 231.620117188 667.548828125 199.243164062 623.286132812 179.19140625 574.924804688 c 0
 158.98828125 526.198242188 150 470 150 400 c 0
EndSplineSet
Validated: 1
EndChar

StartChar: SP_NAMAKO
Encoding: 121 989560 121
Width: 1000
Flags: W
HStem: 0 21G<486 514> 400 100<58.4375 391.562 608.438 941.562>
VStem: 450 100<8.4375 341.562 558.438 891.562>
LayerCount: 2
Fore
SplineSet
600 450 m 0
 600 478 622 500 650 500 c 2
 650 500 900 500 900 500 c 2
 928 500 950 478 950 450 c 0
 950 422 928 400 900 400 c 2
 900 400 650 400 650 400 c 2
 622 400 600 422 600 450 c 0
500 900 m 0
 528 900 550 878 550 850 c 2
 550 850 550 600 550 600 c 2
 550 572 528 550 500 550 c 0
 472 550 450 572 450 600 c 2
 450 600 450 850 450 850 c 2
 450 878 472 900 500 900 c 0
500 350 m 0
 528 350 550 328 550 300 c 2
 550 300 550 50 550 50 c 2
 550 22 528 0 500 0 c 0
 472 0 450 22 450 50 c 2
 450 50 450 300 450 300 c 2
 450 328 472 350 500 350 c 0
50 450 m 0
 50 478 72 500 100 500 c 2
 100 500 350 500 350 500 c 2
 378 500 400 478 400 450 c 0
 400 422 378 400 350 400 c 2
 350 400 100 400 100 400 c 2
 72 400 50 422 50 450 c 0
EndSplineSet
Validated: 1
EndChar

StartChar: SP_KIN
Encoding: 122 989561 122
Width: 1000
Flags: W
HStem: 0 21G<486 514>
VStem: 450 100<8.4375 113 287 391.562 458.438 891.562>
LayerCount: 2
Fore
SplineSet
550 850 m 2
 550 850 550 500 550 500 c 2
 550 472 528 450 500 450 c 0
 472 450 450 472 450 500 c 2
 450 500 450 850 450 850 c 2
 450 878 472 900 500 900 c 0
 528 900 550 878 550 850 c 2
320.111111111 274.814814815 m 0
 320.111111111 304.030702897 345.005873852 324.888888889 369.814814815 324.888888889 c 0
 378.333333333 324.888888889 387 322.666666667 395 318 c 2
 395 318 450 287 450 287 c 1
 450 287 450 350 450 350 c 2
 450 378 472 400 500 400 c 0
 528 400 550 378 550 350 c 2
 550 350 550 287 550 287 c 1
 550 287 605 318 605 318 c 2
 613 322.666666667 621.666666667 324.888888889 630.185185185 324.888888889 c 0
 654.996576811 324.888888889 679.888888889 304.061086372 679.888888889 274.814814815 c 0
 679.888888889 257.777777778 671 241.333333333 655 232 c 2
 655 232 600 200 600 200 c 1
 600 200 655 168 655 168 c 2
 671 158.666666667 679.888888889 142.222222222 679.888888889 125.185185185 c 0
 679.888888889 95.969297103 654.994126148 75.1111111111 630.185185185 75.1111111111 c 0
 621.666666667 75.1111111111 613 77.3333333333 605 82 c 2
 605 82 550 113 550 113 c 1
 550 113 550 50 550 50 c 2
 550 22 528 0 500 0 c 0
 472 0 450 22 450 50 c 2
 450 50 450 113 450 113 c 1
 450 113 395 82 395 82 c 2
 387 77.3333333333 378.333333333 75.1111111111 369.814814815 75.1111111111 c 0
 345.003423189 75.1111111111 320.111111111 95.938913628 320.111111111 125.185185185 c 0
 320.111111111 142.222222222 329 158.666666667 345 168 c 2
 345 168 400 200 400 200 c 1
 400 200 345 232 345 232 c 2
 329 241.333333333 320.111111111 257.777777778 320.111111111 274.814814815 c 0
EndSplineSet
Validated: 1
EndChar

StartChar: SP_OKO
Encoding: 123 989562 123
Width: 1000
Flags: W
HStem: 175 100<370.405 629.595> 350 200<438.358 561.642> 625 100<370.405 629.595>
VStem: 400 200<388.358 511.642>
CounterMasks: 1 e0
LayerCount: 2
Fore
SplineSet
600 450 m 0
 600 395 555 350 500 350 c 0
 445 350 400 395 400 450 c 0
 400 505 445 550 500 550 c 0
 555 550 600 505 600 450 c 0
880 550 m 1
 881 549 l 1
 906 519 929 486 947 450 c 1
 928 414 906 380 880 350 c 0
 788 243 652 175 500 175 c 0
 348 175 212 243 120 350 c 0
 94 380 72 414 53 450 c 1
 72 486 94 520 120 550 c 0
 212 657 348 725 500 725 c 0
 652 725 788 657 880 550 c 1
831 450 m 1
 759 556 637 625 500 625 c 0
 363 625 241 556 169 450 c 1
 241 344 363 275 500 275 c 0
 637 275 759 344 831 450 c 1
EndSplineSet
Validated: 1
EndChar

StartChar: SP_KIPISI
Encoding: 124 989563 124
Width: 1000
Flags: W
HStem: 100 200<688.358 811.642> 600 200<187.358 310.642>
VStem: 149 200<638.358 761.642> 650 200<138.358 261.642>
LayerCount: 2
Fore
SplineSet
800 800 m 0
 826.40866101 800 850 776.418008657 850 750 c 0
 850 737.25 845 724.5 835 715 c 2
 835 715 235 115 235 115 c 2
 225.5 105 212.75 100 200 100 c 0
 173.59133899 100 150 123.581991343 150 150 c 0
 150 162.75 155 175.5 165 185 c 2
 165 185 765 785 765 785 c 2
 774.5 795 787.25 800 800 800 c 0
349 700 m 0
 349 645 304 600 249 600 c 0
 194 600 149 645 149 700 c 0
 149 755 194 800 249 800 c 0
 304 800 349 755 349 700 c 0
850 200 m 0
 850 145 805 100 750 100 c 0
 695 100 650 145 650 200 c 0
 650 255 695 300 750 300 c 0
 805 300 850 255 850 200 c 0
EndSplineSet
Validated: 1
EndChar

StartChar: SP_LEKO
Encoding: 125 989564 125
Width: 1000
Flags: W
HStem: 0 100<150 850> 200 100<350 650> 600 100<350 650> 800 100<150 850>
VStem: 50 100<100 800> 250 100<300 600> 650 100<300 600> 850 100<100 800>
LayerCount: 2
Fore
SplineSet
50 850 m 2
 50 878 72 900 100 900 c 2
 100 900 900 900 900 900 c 2
 928 900 950 878 950 850 c 2
 950 850 950 50 950 50 c 2
 950 22 928 0 900 0 c 2
 900 0 100 0 100 0 c 2
 72 0 50 22 50 50 c 2
 50 850 l 2
150 800 m 1
 150 800 150 100 150 100 c 1
 150 100 850 100 850 100 c 1
 850 100 850 800 850 800 c 1
 150 800 l 1
250 650 m 2
 250 678 272 700 300 700 c 2
 300 700 700 700 700 700 c 2
 728 700 750 678 750 650 c 2
 750 650 750 250 750 250 c 2
 750 222 728 200 700 200 c 2
 700 200 300 200 300 200 c 2
 272 200 250 222 250 250 c 2
 250 650 l 2
350 600 m 1
 350 600 350 300 350 300 c 1
 350 300 650 300 650 300 c 1
 650 300 650 600 650 600 c 1
 350 600 l 1
EndSplineSet
Validated: 1
EndChar

StartChar: SP_MONSUTA
Encoding: 126 989565 126
Width: 1000
Flags: W
LayerCount: 2
Fore
SplineSet
949.939729619 401.747237362 m 0
 949.939729619 376.574109945 930.193602504 352.490640567 900.259623854 352.490640567 c 0
 880.295195904 352.490640567 861.624689053 364.175808463 854 384 c 2
 854 384 838 421 838 421 c 1
 838 421 793 307 793 307 c 2
 785 288 766 276 746 276 c 0
 725 276 707 289 699 308 c 2
 699 308 628 496 628 496 c 1
 628 496 548 235 548 235 c 2
 541 214 522 200 500 200 c 0
 478 200 459 214 452 235 c 2
 452 235 372 496 372 496 c 1
 372 496 301 308 301 308 c 2
 293 289 275 276 254 276 c 0
 234 276 215 288 207 307 c 2
 207 307 162 421 162 421 c 1
 162 421 146 384 146 384 c 2
 138.375310947 364.175808463 119.704804096 352.490640567 99.7403761456 352.490640567 c 0
 69.829679181 352.490640567 50.0602703815 376.577114661 50.0602703815 401.747237362 c 0
 50.0602703815 408.130306697 51.3153652136 414.654499596 54 421 c 2
 54 421 115 573 115 573 c 2
 123 592 141 605 162 605 c 0
 182 605 200 592 208 573 c 2
 208 573 252 463 252 463 c 1
 252 463 330 668 330 668 c 2
 337.711688097 687.279220242 355.644805356 700.053894655 376.63349054 700.053894655 c 0
 399.288503977 700.053894655 417.829942914 685.485877389 425 665 c 2
 425 665 500 420 500 420 c 1
 500 420 575 665 575 665 c 2
 582.170084692 685.485956264 600.716471011 700.053894655 623.36650946 700.053894655 c 0
 644.355194644 700.053894655 662.288311903 687.279220242 670 668 c 2
 670 668 748 463 748 463 c 1
 748 463 792 573 792 573 c 2
 800 592 818 605 838 605 c 0
 859 605 877 592 885 573 c 2
 885 573 946 421 946 421 c 2
 948.684634786 414.654499596 949.939729619 408.130306697 949.939729619 401.747237362 c 0
EndSplineSet
Validated: 1
EndChar

StartChar: SP_TONSI
Encoding: 127 989566 127
Width: 1000
Flags: W
HStem: 264 96<411.02 450 550 588.98> 760 100<411.513 588.736>
VStem: 200 100<471.092 650.721> 450 100<56.4375 268.02> 700 100<471.092 650.721>
CounterMasks: 1 38
LayerCount: 2
Fore
SplineSet
50.1111111111 790.814814815 m 0
 50.1111111111 820.030702897 75.0058738522 840.888888889 99.8148148148 840.888888889 c 0
 108.333333333 840.888888889 117 838.666666667 125 834 c 2
 125 834 269 751 269 751 c 1
 324 818 407 860 500 860 c 0
 593 860 676 818 731 751 c 1
 731 751 875 834 875 834 c 2
 883 838.666666667 891.777777778 840.888888889 900.444444444 840.888888889 c 0
 925.419692218 840.888888889 950.192840444 821.268223814 950.192840444 791.695228604 c 0
 950.192840444 774.346094887 941.275453262 757.494014403 925 748 c 2
 925 748 781 665 781 665 c 1
 793 632 800 597 800 560 c 0
 800 411 692 288 550 264 c 1
 550 264 550 98 550 98 c 2
 550 70 528 48 500 48 c 0
 472 48 450 70 450 98 c 2
 450 98 450 264 450 264 c 1
 308 288 200 411 200 560 c 0
 200 597 207 632 219 665 c 1
 219 665 75 748 75 748 c 2
 59 757.333333333 50.1111111111 773.777777778 50.1111111111 790.814814815 c 0
500 360 m 0
 611 360 700 450 700 560 c 0
 700 596 691 629 674 659 c 1
 674 659 674 660 673 660 c 1
 673 660 673 661 673 661 c 1
 638 720 574 760 500 760 c 0
 427 760 362 720 328 661 c 0
 327 661 327 660 327 660 c 1
 327 660 326 659 326 659 c 1
 310 629 300 596 300 560 c 0
 300 450 390 360 500 360 c 0
EndSplineSet
Validated: 1
EndChar

StartChar: SP_JASIMA
Encoding: 128 989567 128
Width: 1000
Flags: W
HStem: 0 21G<486 514> 50.2379 107.065<617.815 772.517> 342.697 106.823<227.524 381.567> 450.238 107.065<617.815 772.517> 742.697 106.823<227.524 381.567>
VStem: 50.2529 99.6871<87.5613 258.945 487.561 658.945> 65 96.8437<59.0499 175.849 459.05 575.849> 450 100<8.4375 98 222.08 277.92 402 498 622.08 677.92 802 891.562> 838.166 96.834<324.151 440.877 724.151 840.877> 850.06 99.6775<241.015 412.392 641.015 812.392>
LayerCount: 2
Fore
SplineSet
161.843667646 502.972813946 m 0xfb
 161.843667646 476.849467157 143.214857586 449.89633955 112.384959371 449.89633955 c 0
 91.6697893299 449.89633955 72.1041537907 463.898188207 65 486 c 0xfb
 55.0017234231 516.20755902 50.252881886 547.048670544 50.252881886 577.368118798 c 0
 50.252881886 689.574640591 115.29299542 794.636464444 220 834 c 0
 248.091487764 844.534307912 276.799484657 849.520033664 305.041574514 849.520033664 c 0
 357.228374984 849.520033664 407.824333808 832.496250939 450 802 c 1
 450 802 450 850 450 850 c 2
 450 878 472 900 500 900 c 0
 528 900 550 878 550 850 c 2
 550 850 550 660 550 660 c 1
 574.199820681 596.768210478 631.916522377 557.302936585 693.655468347 557.302936585 c 0
 790.004111102 557.302936585 850.060052352 640.657976426 850.060052352 723.28470374 c 0xfd40
 850.060052352 741.752316582 847.148021484 760.555935548 841 779 c 0
 839.085006021 784.957759044 838.166042199 791.006066285 838.166042199 796.932989304 c 0
 838.166042199 822.874703098 857.250167007 850.10366045 888.500615305 850.10366045 c 0
 908.953284757 850.10366045 927.895846209 836.101811793 935 814 c 0xf980
 944.98816341 783.822995655 949.737505922 753.013719822 949.737505922 722.72388635 c 0
 949.737505922 610.482794493 884.523108575 505.374294245 779 466 c 0
 750.935224975 455.342490497 722.113233225 450.237903647 693.699697836 450.237903647 c 0
 642.131501901 450.237903647 591.90872941 467.052015205 550 498 c 1
 550 498 550 260 550 260 c 1
 574.199820681 196.768210478 631.916522377 157.302936585 693.655468347 157.302936585 c 0
 790.004111102 157.302936585 850.060052352 240.657976426 850.060052352 323.28470374 c 0xf940
 850.060052352 341.752316582 847.148021484 360.555935548 841 379 c 0
 839.085006021 384.957759044 838.166042199 391.006066285 838.166042199 396.932989304 c 0
 838.166042199 422.874703098 857.250167007 450.10366045 888.500615305 450.10366045 c 0
 908.953284757 450.10366045 927.895846209 436.101811793 935 414 c 0xf980
 944.98816341 383.822995655 949.737505922 353.013719822 949.737505922 322.72388635 c 0
 949.737505922 210.482794493 884.523108575 105.374294245 779 66 c 0
 750.935224975 55.3424904969 722.113233225 50.2379036467 693.699697836 50.2379036467 c 0
 642.131501901 50.2379036467 591.90872941 67.0520152049 550 98 c 1
 550 98 550 50 550 50 c 2
 550 22 528 0 500 0 c 0
 472 0 450 22 450 50 c 2
 450 50 450 240 450 240 c 1
 425.019539942 303.231789522 367.131596706 342.697063415 305.830807032 342.697063415 c 0
 209.823348204 342.697063415 149.939947648 259.013956853 149.939947648 176.71529626 c 0xfd40
 149.939947648 158.247683418 152.851978516 139.444064452 159 121 c 0
 160.9251401 115.010675244 161.843667646 108.929840256 161.843667646 102.972813946 c 0
 161.843667646 76.8494671572 143.214857586 49.8963395501 112.384959371 49.8963395501 c 0
 91.6697893299 49.8963395501 72.1041537907 63.8981882068 65 86 c 0xfb
 55.0017234231 116.20755902 50.252881886 147.048670544 50.252881886 177.368118798 c 0
 50.252881886 289.574640591 115.29299542 394.636464444 220 434 c 0
 248.091487764 444.534307912 276.799484657 449.520033664 305.041574514 449.520033664 c 0
 357.228374984 449.520033664 407.824333808 432.496250939 450 402 c 1
 450 402 450 640 450 640 c 1
 425.019539942 703.231789522 367.131596706 742.697063415 305.830807032 742.697063415 c 0
 209.823348204 742.697063415 149.939947648 659.013956853 149.939947648 576.71529626 c 0xfd
 149.939947648 558.247683418 152.851978516 539.444064452 159 521 c 0
 160.9251401 515.010675244 161.843667646 508.929840256 161.843667646 502.972813946 c 0xfb
EndSplineSet
Validated: 1
EndChar

StartChar: SP_KIJETESANTAKALU
Encoding: 129 989568 129
Width: 1000
Flags: W
HStem: 0 222<594.393 665.607> 0 100<280 320 400 461> 500 100<508.438 591.562 664.701 747.562>
VStem: 50 100<119.017 274.858> 200 80<102 308> 320 80<100 320> 439.761 98.2392<184.016 241.391> 443 118.444<100.235 182.999 183 210.159> 500 100<508.438 591.562> 590 80<4.39297 217.607> 641 100<750.425 797.695> 656 100<509.117 590.883> 700 100<8.4375 387.592> 850 100<523.77 582.997>
LayerCount: 2
Fore
SplineSet
741 790 m 2x7d24
 741 788 l 2x7d24
 741 772 741 759 742 750 c 1
 800 719 848 693 881 669 c 0
 917 643 950 608 950 558 c 0
 950 510 919 471 890 443 c 0
 865 418 833 395 800 373 c 1
 800 373 800 50 800 50 c 2
 800 22 778 0 750 0 c 0
 722 0 700 22 700 50 c 2
 700 50 700 427 700 427 c 1x7c0c
 700 427 723 442 723 442 c 2
 763 468 797 492 820 515 c 0
 846 540 850 553 850 558 c 0
 850 559 850 568 822 588 c 0
 794 609 749 633 683 668 c 0
 644.757886267 689.511188975 641 730.916524572 641 786 c 2
 641 798 l 1
 566 788 510 746 471 681 c 0
 424 604 400 494 400 370 c 2
 400 370 400 100 400 100 c 1
 400 100 461 100 461 100 c 1
 460 105 460 111 459 117 c 0
 455.012475357 138.266798096 450.16192961 160.514211169 444 179 c 0
 444 181 443 183 443 183 c 1
 443 183 443 184 443 184 c 1x7d24
 443 184 442 184 442 184 c 1
 442 185 442 185 442 185 c 1
 440.486918338 189.917515402 439.760823466 194.906575057 439.760823466 199.825097825 c 0
 439.760823466 224.29415903 458.917003184 250.239176534 489.825097825 250.239176534 c 0
 510.911901225 250.239176534 530.70221687 236.893349391 538 215 c 1
 538 213 l 1x7e04
 541.880775543 209.119224457 542.870792844 197.452225045 545 190 c 0
 552.195643603 163.01633649 561.444444444 124.383387922 561.444444444 88.4074074074 c 0
 561.444444444 41.7582129456 537.272251151 0 490 0 c 2
 490 0 225 0 225 0 c 2
 164 0 117 21 87 60 c 0
 58 97 50 143 50 183 c 0
 50 244 68 300 97 343 c 0
 126 384 170 418 225 418 c 0
 248 418 271 419 292 419 c 2
 301 419 l 1
 313.693303825 666.519424592 422.355093099 900 675 900 c 0
 710.966516055 900 734.50109532 870.49014212 738 839 c 0
 741 824 741 804 741 790 c 2x7d24
320 100 m 1
 320 100 320 320 320 320 c 1
 314 320 307 319 301 319 c 2
 280 319 l 1
 280 319 280 100 280 100 c 1
 320 100 l 1
200 308 m 1
 168.965914056 285.832795754 150 237.658613126 150 183 c 0
 150 154 156 134 166 121 c 0
 171 114 181 106 200 102 c 1
 200 102 200 308 200 308 c 1
670 182 m 2xbc44
 670 182 670 40 670 40 c 2
 670 18 652 0 630 0 c 0
 608 0 590 18 590 40 c 2
 590 40 590 182 590 182 c 2
 590 204 608 222 630 222 c 0
 652 222 670 204 670 182 c 2xbc44
756 550 m 0x3c14
 756 522 734 500 706 500 c 0
 679 500 656 522 656 550 c 0
 656 578 679 600 706 600 c 0
 734 600 756 578 756 550 c 0x3c14
550 500 m 0
 522 500 500 522 500 550 c 0
 500 578 522 600 550 600 c 0
 578 600 600 578 600 550 c 0x3c84
 600 522 578 500 550 500 c 0
EndSplineSet
Validated: 1
EndChar

StartChar: SP_SOKO
Encoding: 130 989569 130
Width: 1000
Flags: W
HStem: 0 21G<486 514> 400 100<155 450 550 847> 800 100<385.879 616.121>
VStem: 450 100<8.4375 400>
LayerCount: 2
Fore
SplineSet
901 400 m 2
 901 400 550 400 550 400 c 1
 550 400 550 50 550 50 c 2
 550 22 528 0 500 0 c 0
 472 0 450 22 450 50 c 2
 450 50 450 400 450 400 c 1
 450 400 101 400 101 400 c 2
 73 400 51 422 51 450 c 0
 51 699 252 900 501 900 c 0
 750 900 951 699 951 450 c 0
 951 422 929 400 901 400 c 2
501 800 m 0
 325 800 179 670 155 500 c 1
 155 500 847 500 847 500 c 1
 823 670 677 800 501 800 c 0
EndSplineSet
Validated: 1
EndChar

StartChar: SP_MESO
Encoding: 131 989570 131
Width: 1000
Flags: W
HStem: 0 21G<186 214 786 814> 350 200<438.358 561.642>
VStem: 150 100<8.4375 891.562> 400 200<388.358 511.642> 750 100<8.4375 891.562>
CounterMasks: 1 38
LayerCount: 2
Fore
SplineSet
200 900 m 0
 228 900 250 878 250 850 c 2
 250 850 250 50 250 50 c 2
 250 22 228 0 200 0 c 0
 172 0 150 22 150 50 c 2
 150 50 150 850 150 850 c 2
 150 878 172 900 200 900 c 0
800 900 m 0
 828 900 850 878 850 850 c 2
 850 850 850 50 850 50 c 2
 850 22 828 0 800 0 c 0
 772 0 750 22 750 50 c 2
 750 50 750 850 750 850 c 2
 750 878 772 900 800 900 c 0
600 450 m 0
 600 395 555 350 500 350 c 0
 445 350 400 395 400 450 c 0
 400 505 445 550 500 550 c 0
 555 550 600 505 600 450 c 0
EndSplineSet
Validated: 1
EndChar

StartChar: SP_EPIKU
Encoding: 132 989571 132
Width: 1000
Flags: W
HStem: 0 100<383.579 616.421> 612 284<459.117 540.883>
VStem: 50 100<337.381 491.562> 450 100<620.701 887.562> 850 100<337.381 491.562>
CounterMasks: 1 38
LayerCount: 2
Fore
SplineSet
500 896 m 0
 528 896 550 874 550 846 c 2
 550 846 550 662 550 662 c 2
 550 635 528 612 500 612 c 0
 472 612 450 635 450 662 c 2
 450 662 450 846 450 846 c 2
 450 874 472 896 500 896 c 0
199.921733779 794.414092203 m 0
 199.921733779 819.365447262 220.239152587 844.078266221 250.272053152 844.078266221 c 0
 269.448778446 844.078266221 287.766571679 832.460830576 296 813 c 2
 296 813 366 643 366 643 c 2
 368.766571679 636.712337093 370.078266221 630.108396546 370.078266221 623.585907797 c 0
 370.078266221 598.634552738 349.760847413 573.921733779 319.727946848 573.921733779 c 0
 300.551221554 573.921733779 282.233428321 585.539169424 274 605 c 2
 274 605 204 775 204 775 c 2
 201.233428321 781.287662907 199.921733779 787.891603454 199.921733779 794.414092203 c 0
680.272053152 573.921733779 m 0
 650.25907145 573.921733779 629.921733779 598.638663556 629.921733779 623.585907797 c 0
 629.921733779 630.108396546 631.233428321 636.712337093 634 643 c 2
 704 813 l 2
 712.233428321 832.460830576 730.551221554 844.078266221 749.727946848 844.078266221 c 0
 779.74092855 844.078266221 800.078266221 819.361336444 800.078266221 794.414092203 c 0
 800.078266221 787.891603454 798.766571679 781.287662907 796 775 c 2
 796 775 726 605 726 605 c 2
 717.766571679 585.539169424 699.448778446 573.921733779 680.272053152 573.921733779 c 0
100 500 m 0
 128 500 150 478 150 450 c 0
 150 257 307 100 500 100 c 0
 693 100 850 257 850 450 c 0
 850 478 872 500 900 500 c 0
 928 500 950 478 950 450 c 0
 950 201 749 0 500 0 c 0
 251 0 50 201 50 450 c 0
 50 478 72 500 100 500 c 0
EndSplineSet
Validated: 1
EndChar

StartChar: SP_KOKOSILA
Encoding: 133 989572 133
Width: 1000
Flags: W
HStem: 50 100<410.011 590.088> 550 100<409.912 590.676> 700 200<458.438 541.562>
VStem: 200 100<283.18 440.088> 450 100<708.438 891.562> 700 100<259.912 424.989>
CounterMasks: 1 1c
LayerCount: 2
Fore
SplineSet
500 900 m 0
 528 900 550 878 550 850 c 2
 550 850 550 750 550 750 c 2
 550 722 528 700 500 700 c 0
 472 700 450 722 450 750 c 2
 450 750 450 850 450 850 c 2
 450 878 472 900 500 900 c 0
209.350109968 97.6230105896 m 0
 183.326129201 97.6230105896 159.62301059 119.079578349 159.62301059 147.649890032 c 0
 159.62301059 163.193647155 166.709316886 178.334048644 180 188 c 2
 180 188 228 222 228 222 c 1
 210 261 200 304 200 350 c 0
 200 516 334 650 500 650 c 0
 581 650 655 618 709 566 c 1
 709 566 761 603 761 603 c 2
 770.105194926 609.334048644 780.464145234 612.37698941 790.649890032 612.37698941 c 0
 816.673870799 612.37698941 840.37698941 590.920421651 840.37698941 562.350109968 c 0
 840.37698941 546.806352845 833.290683114 531.665951356 820 522 c 2
 820 522 768 485 768 485 c 1
 788 445 800 399 800 350 c 0
 800 184 666 50 500 50 c 0
 416 50 340 85 286 140 c 1
 286 140 239 107 239 107 c 2
 229.894805074 100.665951356 219.535854766 97.6230105896 209.350109968 97.6230105896 c 0
500 550 m 0
 390 550 300 460 300 350 c 0
 300 326 304 303 312 282 c 1
 312 282 625 506 625 506 c 1
 591 534 547 550 500 550 c 0
685 426 m 1
 685 426 368 199 368 199 c 1
 404 169 450 150 500 150 c 0
 610 150 700 240 700 350 c 0
 700 377 695 402 685 426 c 1
200.111111111 783.407407407 m 0
 200.111111111 808.816733256 221.025562421 832.888888889 250.185185185 832.888888889 c 0
 267.222222222 832.888888889 283.666666667 824 293 808 c 2
 293 808 343 721 343 721 c 2
 347.666666667 713 349.888888889 704.333333333 349.888888889 695.814814815 c 0
 349.888888889 671.003423189 329.061086372 646.111111111 299.814814815 646.111111111 c 0
 282.777777778 646.111111111 266.333333333 655 257 671 c 2
 257 671 207 758 207 758 c 2
 202.333333333 766 200.111111111 774.777777778 200.111111111 783.407407407 c 0
749.814814815 832.888888889 m 0
 778.944181138 832.888888889 799.888888889 808.816220803 799.888888889 783.407407407 c 0
 799.888888889 774.777777778 797.666666667 766 793 758 c 2
 793 758 743 671 743 671 c 2
 733.666666667 655 717.222222222 646.111111111 700.185185185 646.111111111 c 0
 670.969297103 646.111111111 650.111111111 671.005873852 650.111111111 695.814814815 c 0
 650.111111111 704.333333333 652.333333333 713 657 721 c 2
 657 721 707 808 707 808 c 2
 716.333333333 824 732.777777778 832.888888889 749.814814815 832.888888889 c 0
EndSplineSet
Validated: 1
EndChar

StartChar: SP_LANPAN
Encoding: 134 989573 134
Width: 1000
Flags: W
HStem: 0 150<357.438 440.299> 48.9217 152.157<168.035 229.947 567.769 629.344> 202 100<303.504 496.496>
VStem: 50 100<456.289 891.562> 140.616 117.361<83.4199 168.437> 349 100<9.11713 140.883> 540.491 117.032<81.6125 167.91> 650 100<456.289 663>
LayerCount: 2
Fore
SplineSet
949.888888889 501.555555556 m 0x35
 949.888888889 476.451324088 930.21361256 451.807159556 900.484479065 451.807159556 c 0
 882.909565375 451.807159556 865.815870517 460.724546738 857 477 c 2
 857 477 750 663 750 663 c 1
 750 663 750 552 750 552 c 2
 750 359 593 202 400 202 c 0
 207 202 50 359 50 552 c 2
 50 552 50 850 50 850 c 2
 50 878 72 900 100 900 c 0
 128 900 150 878 150 850 c 2
 150 850 150 552 150 552 c 2
 150 414 262 302 400 302 c 0
 538 302 650 414 650 552 c 2
 650 552 650 850 650 850 c 2
 650 876.40186407 670.26597573 899.833352829 700.585941796 899.833352829 c 0
 717.951915666 899.833352829 734.262021083 890.887234394 743 875 c 2
 743 875 943 527 943 527 c 2
 947.666666667 519 949.888888889 510.222222222 949.888888889 501.555555556 c 0x35
399 0 m 0xa4
 371 0 349 22 349 50 c 2
 349 50 349 100 349 100 c 2
 349 128 371 150 399 150 c 0
 426 150 449 128 449 100 c 2
 449 100 449 50 449 50 c 2
 449 22 426 0 399 0 c 0xa4
191.240234797 48.9217337795 m 0x6c
 160.395194205 48.9217337795 140.616262868 77.3842855045 140.616262868 102.232709427 c 0
 140.616262868 108.233072748 141.6995359 114.248839751 144 120 c 2
 144 120 163 170 163 170 c 2
 170.484934837 189.460830576 188.614477082 201.078266221 207.743856025 201.078266221 c 0
 239.047133383 201.078266221 257.976829089 172.419129473 257.976829089 146.81310642 c 0
 257.976829089 140.839474 257.014455699 134.819538685 255 129 c 2
 255 129 235 80 235 80 c 1
 228.263558647 60.5391694237 210.32226739 48.9217337795 191.240234797 48.9217337795 c 0x6c
657.522881409 101.535944905 m 0x66
 657.522881409 76.5016401597 638.218474226 48.9217337795 607.321142111 48.9217337795 c 0
 588.054234587 48.9217337795 570.484934837 60.5391694237 563 80 c 2
 563 80 544 129 544 129 c 2
 541.624689053 135.175808463 540.490640567 141.577301009 540.490640567 147.909639208 c 0
 540.490640567 172.898680964 559.963440775 201.078266221 591.098195746 201.078266221 c 0
 609.945765413 201.078266221 627.515065163 189.460830576 635 170 c 2
 635 170 654 120 654 120 c 2
 656.389518621 114.026203448 657.522881409 107.766916934 657.522881409 101.535944905 c 0x66
EndSplineSet
Validated: 1
EndChar

StartChar: SP_N
Encoding: 135 989574 135
Width: 1000
Flags: W
HStem: 0 21G<336 364 636 664> 300 100<439.527 560.473>
VStem: 300 100<8.4375 259.304> 450 100<458.438 891.562> 600 100<8.4375 259.304>
CounterMasks: 1 38
LayerCount: 2
Fore
SplineSet
500 300 m 0
 445 300 400 255 400 200 c 2
 400 200 400 50 400 50 c 2
 400 22 378 0 350 0 c 0
 322 0 300 22 300 50 c 2
 300 50 300 200 300 200 c 2
 300 310 390 400 500 400 c 0
 610 400 700 310 700 200 c 2
 700 200 700 50 700 50 c 2
 700 22 678 0 650 0 c 0
 622 0 600 22 600 50 c 2
 600 50 600 200 600 200 c 2
 600 255 555 300 500 300 c 0
500 900 m 0
 528 900 550 878 550 850 c 2
 550 850 550 500 550 500 c 2
 550 472 528 450 500 450 c 0
 472 450 450 472 450 500 c 2
 450 500 450 850 450 850 c 2
 450 878 472 900 500 900 c 0
EndSplineSet
Validated: 1
EndChar

StartChar: SP_MISIKEKE
Encoding: 136 989575 136
Width: 1000
Flags: W
HStem: 0 100<423.917 576.083> 400 100<350 650> 800 100<423.917 576.083>
VStem: 250 100<175.684 400 500 724.316> 650 100<175.684 400 500 724.316>
CounterMasks: 1 e0
LayerCount: 2
Fore
SplineSet
500 900 m 0
 638 900 750 788 750 650 c 2
 750 650 750 250 750 250 c 2
 750 112 638 0 500 0 c 0
 362 0 250 112 250 250 c 2
 250 250 250 650 250 650 c 2
 250 788 362 900 500 900 c 0
650 500 m 1
 650 500 650 650 650 650 c 2
 650 733 583 800 500 800 c 0
 417 800 350 733 350 650 c 2
 350 650 350 500 350 500 c 1
 650 500 l 1
350 400 m 1
 350 400 350 250 350 250 c 2
 350 167 417 100 500 100 c 0
 583 100 650 167 650 250 c 2
 650 250 650 400 650 400 c 1
 350 400 l 1
EndSplineSet
Validated: 1
EndChar

StartChar: SP_KU
Encoding: 137 989576 137
Width: 1000
Flags: W
HStem: 0 100<250 438 540 750> 200 150<573.417 676.583> 800 100<250 520>
VStem: 150 100<100 800> 550 150<223.417 326.583> 750 100<100 373 492 778>
LayerCount: 2
Fore
SplineSet
700 275 m 0
 700 234 666 200 625 200 c 0
 584 200 550 234 550 275 c 0
 550 316 584 350 625 350 c 0
 666 350 700 316 700 275 c 0
799 900 m 2
 828.303019355 900 850 879.292342801 850 849 c 2
 850 50 l 2
 850 22 828 0 800 0 c 2
 200 0 l 2
 172 0 150 22 150 50 c 2
 150 50 150 850 150 850 c 2
 150 878 172 900 200 900 c 2
 799 900 l 2
750 492 m 1
 750 492 750 778 750 778 c 1
 750 778 468 674 468 674 c 1
 750 492 l 1
750 373 m 1
 750 373 433 578 433 578 c 1
 433 578 540 100 540 100 c 1
 540 100 750 100 750 100 c 1
 750 373 l 1
438 100 m 1
 438 100 309 676 309 676 c 2
 308.059454663 679.762181347 307.610367954 683.548935626 307.610367954 687.290926968 c 0
 307.610367954 707.420137973 320.605423791 726.254060449 340 733 c 2
 340 733 520 800 520 800 c 1
 520 800 250 800 250 800 c 1
 250 800 250 100 250 100 c 1
 438 100 l 1
EndSplineSet
Validated: 1
EndChar

StartChar: SP_CARTOUCHE_START
Encoding: 138 989584 138
Width: 500
Flags: HWO
HStem: -50 50<275 500> 900 50<275 500>
VStem: 225 50<0 900>
LayerCount: 2
Fore
SplineSet
500 999 m 5
 500 900 l 1
 275 900 l 25
 275 0 l 1
 500 0 l 25
 500 -50 l 1
 275 -50 l 2
 245 -50 225 -30 225 0 c 2
 225 900 l 2
 225 925 245 999 275 999 c 6
 500 999 l 5
EndSplineSet
EndChar

StartChar: SP_CARTOUCHE_END
Encoding: 139 989585 139
Width: 500
Flags: W
HStem: -50 50<0 225> 900 50<0 225>
VStem: 225 50<0 900>
LayerCount: 2
Fore
SplineSet
0 950 m 5
 225 950 l 6
 255 950 275 925 275 900 c 6
 275 0 l 6
 275 -30 255 -50 225 -50 c 6
 0 -50 l 5
 0 0 l 29
 225 0 l 5
 225 900 l 29
 0 900 l 29
 0 950 l 5
EndSplineSet
Validated: 1
EndChar

StartChar: SP_CARTOUCHE_EXTEND
Encoding: 140 989586 140
Width: 0
Flags: W
HStem: -50 50<-1000 0> 900 50<-1000 0>
LayerCount: 2
Fore
SplineSet
0 900 m 29
 -1000 900 l 29
 -1000 950 l 29
 0 950 l 21
 0 900 l 29
0 -50 m 25
 -1000 -50 l 25
 -1000 0 l 25
 0 0 l 17
 0 -50 l 25
EndSplineSet
Validated: 1
EndChar

StartChar: SP_PI_LONG
Encoding: 141 989587 141
Width: 0
Flags: W
VStem: -40 80<-84.2543 907.33>
LayerCount: 2
Fore
SplineSet
0 911.538085938 m 4
 22.0908203125 911.538085938 40 894.318359375 40 873.076171875 c 6
 40 -50 l 6
 40 -71.2421875 22.0908203125 -88.4619140625 0 -88.4619140625 c 4
 -22.0908203125 -88.4619140625 -40 -71.2421875 -40 -50 c 6
 -40 873.076171875 l 6
 -40 894.318359375 -22.0908203125 911.538085938 0 911.538085938 c 4
EndSplineSet
Validated: 1
EndChar

StartChar: SP_PI_LONG_EXTEND
Encoding: 142 989588 142
Width: 0
Flags: W
HStem: -50 50<-1000 0>
LayerCount: 2
Fore
SplineSet
0 -50 m 25
 -1000 -50 l 25
 -1000 0 l 25
 0 0 l 17
 0 -50 l 25
EndSplineSet
Validated: 1
EndChar

